<svg width="381.00000000000006" height="615.91263" xmlns="http://www.w3.org/2000/svg">
 <title>active_options</title>

 <g>
  <title>background</title>
  <rect fill="none" id="canvas_background" height="617.91263" width="383" y="-1" x="-1"/>
 </g>
 <g>
  <title>Layer 1</title>
  <polygon id="svg_4" fill="#e6e6e6" points="377.3263244628906,344.00648283958435 141.15234375,382.0344979763031 140.15133666992188,152.43348479270935 376.3253479003906,1.3384835720062256 377.3263244628906,344.00648283958435 "/>
  <polygon id="svg_5" fill="#fff" points="355.3093566894531,309.9814889431 151.15933227539062,354.013471364975 151.15933227539062,161.87248015403748 355.3093566894531,51.068483114242554 355.3093566894531,309.9814889431 "/>
  <polygon id="svg_6" fill="#3f3d56" points="335.2953186035156,133.8524911403656 163.1683349609375,210.93348479270935 163.1683349609375,183.88848662376404 335.2953186035156,98.85548186302185 335.2953186035156,133.8524911403656 "/>
  <polygon id="svg_7" fill="#b514ac" points="335.2953186035156,205.90548491477966 163.1683349609375,266.61549162864685 163.1683349609375,239.93047881126404 335.2953186035156,171.3734872341156 335.2953186035156,205.90548491477966 "/>
  <path id="svg_8" fill="#e6e6e6" d="m229.66981,172.47036a0.645,0.645 0 0 1 1.24118,-0.04088l2.7869,8.78335l3.33872,10.52249a0.645,0.645 0 0 1 -0.36673,0.7905l-6.4521,2.68854l-5.67052,2.36286a0.645,0.645 0 0 1 -0.87445,-0.74964l3.10159,-12.59732l2.89541,-11.7599z"/>
  <path id="svg_9" fill="#e6e6e6" d="m219.31787,237.9618a1.06452,1.06452 0 0 1 2.04832,-0.06745l2.33611,7.36258l3.22251,10.15622a1.06454,1.06454 0 0 1 -0.60522,1.30458l-6.0974,2.54073l-4.9031,2.04308a1.06452,1.06452 0 0 1 -1.44311,-1.23712l2.90283,-11.79l2.53906,-10.31262z"/>
  <polygon id="svg_10" fill="#f2f2f2" points="335.2953186035156,277.9584786891937 163.1683349609375,322.29749846458435 163.1683349609375,293.96949553489685 335.2953186035156,241.3024880886078 335.2953186035156,277.9584786891937 "/>
  <path id="svg_11" fill="#3f3d56" d="m331.29202,153.32031c0,6.027 -2.70015,12.01954 -6.00441,13.37389c-3.27531,1.3425 -5.90948,-2.38638 -5.90948,-8.31806s2.63417,-11.89626 5.90948,-13.33362c3.30426,-1.45006 6.00441,2.25082 6.00441,8.27779z"/>
  <path id="svg_12" fill="#fff" d="m327.28908,155.01901c0,2.009 -0.89741,4.01407 -2.00147,4.47724c-1.10081,0.4618 -1.99081,-0.78477 -1.99081,-2.78306s0.89,-4.00023 1.99081,-4.47271c1.10406,-0.47388 2.00147,0.76954 2.00147,2.77853z"/>
  <path id="svg_13" fill="#b514ac" d="m331.29202,223.3718c0,6.027 -2.70015,12.01954 -6.00441,13.3739c-3.27531,1.34249 -5.90948,-2.38639 -5.90948,-8.31807s2.63417,-11.89626 5.90948,-13.33361c3.30426,-1.4501 6.00441,2.25078 6.00441,8.27778z"/>
  <path id="svg_14" fill="#fff" d="m327.28908,225.07047c0,2.009 -0.89741,4.01407 -2.00147,4.47723c-1.10081,0.46181 -1.99081,-0.78476 -1.99081,-2.78305s0.89,-4.00023 1.99081,-4.47272c1.10406,-0.47388 2.00147,0.76955 2.00147,2.77854z"/>
  <path id="svg_15" fill="#f2f2f2" d="m331.29202,293.42322c0,6.027 -2.70015,12.01954 -6.00441,13.3739c-3.27531,1.34249 -5.90948,-2.38639 -5.90948,-8.31807s2.63417,-11.89626 5.90948,-13.33362c3.30426,-1.45006 6.00441,2.25082 6.00441,8.27779z"/>
  <path id="svg_16" fill="#fff" d="m327.28908,295.12192c0,2.009 -0.89741,4.01408 -2.00147,4.47724c-1.10081,0.4618 -1.99081,-0.78477 -1.99081,-2.78306s0.89,-4.00023 1.99081,-4.47271c1.10406,-0.47388 2.00147,0.76954 2.00147,2.77853z"/>
  <path id="svg_17" fill="#e6e6e6" d="m235.31787,296.00738a1.06452,1.06452 0 0 1 2.04832,-0.06746l2.33611,7.36259l3.22251,10.15622a1.06452,1.06452 0 0 1 -0.60522,1.30457l-6.0974,2.54074l-4.9031,2.04308a1.06453,1.06453 0 0 1 -1.44311,-1.23713l2.90283,-11.79l2.53906,-10.31261z"/>
  <path id="svg_18" fill="#a0616a" d="m194.69133,283.69414l9.31146,-8.58908s21.077,-14.51772 13.71488,-22.499s-22.20075,10.6303 -22.20075,10.6303l-9.20827,6.03186l8.38268,14.42592z"/>
  <path id="svg_19" fill="#2f2e41" d="m71.58357,287.69088l-5.424,7.46526s-7.57983,29.15 30.77846,30.698c0,0 48.98859,23.74873 61.11527,8.86981s45.5883,-50.66863 45.5883,-50.66863l-19.6838,-20.00472l-40.11266,41.92475l-38.91452,-19.50011s-20.04496,-11.05444 -33.34705,1.21564z"/>
  <polygon id="svg_20" fill="#e6e6e6" points="46.05633544921875,426.01746916770935 -4.731658935546875,613.1345040798187 1.66632080078125,614.4144723415375 55.013336181640625,426.01746916770935 46.05633544921875,426.01746916770935 "/>
  <polygon id="svg_21" fill="#e6e6e6" points="107.6273193359375,426.01746916770935 158.41433715820312,613.1345040798187 152.01632690429688,614.4144723415375 98.66934204101562,426.01746916770935 107.6273193359375,426.01746916770935 "/>
  <polygon id="svg_22" fill="#e6e6e6" points="72.9283447265625,422.17847990989685 81.44534301757812,613.4474923610687 88.84133911132812,613.7764718532562 79.32733154296875,419.6184823513031 72.9283447265625,422.17847990989685 "/>
  <path id="svg_23" fill="#e6e6e6" d="m96.60233,419.15212c0,4.85147 -13.28064,10.05931 -30.71161,11.73268c-18.70837,1.796 -34.91149,-1.11922 -34.91149,-6.63414s16.20312,-10.94793 34.91149,-12.059c17.43095,-1.03519 30.71161,2.10899 30.71161,6.96046z"/>
  <path id="svg_24" fill="#2f2e41" d="m115.15724,386.34785l12.7965,8.95755s55.025,39.66917 49.90637,55.025s-33.27091,76.779 -33.27091,76.779l-35.83021,-11.51686l40.94881,-65.26217l-21.75406,-20.47441l-11.51685,-28.15231l-1.27965,-15.3558z"/>
  <path id="svg_25" fill="#2f2e41" d="m65.25087,363.31414s-25.593,39.66917 -10.2372,51.186s58.86392,56.30466 58.86392,56.30466l8.95755,20.47441l31.99126,103.65168l39.66917,-20.47441l-35.83022,-80.618s-3.83895,-29.432 -16.63545,-46.06742s-17.91511,-40.94881 -17.91511,-40.94881l3.839,-11.51686l-22.91252,-36.66148l-39.7904,4.67023z"/>
  <path id="svg_26" fill="#2f2e41" d="m134.84153,519.77661l-23,-7s-24.8366,-1.023 -23.557,7.93454s21.75406,67.82147 28.15231,63.98252s1.27965,-21.75406 1.27965,-21.75406l17.12504,-43.163z"/>
  <polygon id="svg_27" fill="#a0616a" points="83.80532836914062,238.5484902858734 71.00933837890625,252.62447905540466 91.48333740234375,285.8954904079437 100.44134521484375,260.3024728298187 83.80532836914062,238.5484902858734 "/>
  <path id="svg_28" fill="#b514ac" d="m95.96248,287.8148l-22.72826,-37.63781l-7.98335,1.80759l0,12.79651l-2.5593,107.49063l42.22847,-6.39825s2.55929,-69.10115 -8.95756,-78.05867z"/>
  <path id="svg_29" fill="#2f2e41" d="m84.44563,286.53512l-19.19476,-34.55057l-16.63545,7.67791l-29.432,120.28714l-17.91509,34.55056s58.86392,29.432 72.94007,0s15.35581,-94.69413 15.35581,-94.69413l-5.11858,-33.27091z"/>
  <path id="svg_30" fill="#2f2e41" d="m56.29333,264.78106l-7.6779,-5.1186s-29.432,-6.39826 -29.432,31.99126c0,0 -21.75406,49.90636 -6.39826,61.42322s52.46567,43.50811 52.46567,43.50811l19.19476,-20.4744l-43.50812,-38.38952l17.91511,-39.66916s10.23723,-20.47441 -2.55926,-33.27091z"/>
  <path id="svg_31" fill="#a0616a" d="m65.25087,387.6275l8.95755,8.95755s15.35581,20.47441 23.03371,12.79651s-11.5168,-21.75406 -11.5168,-21.75406l-6.39825,-8.95755l-14.07621,8.95755z"/>
  <path id="svg_32" fill="#2f2e41" d="m94.4789,276.20191l21.958,53.84132s8.95755,26.87266 8.95755,37.10986l0,28.15231l-24.31336,-31.99126s-13.20438,-83.36927 -6.60219,-87.11223z"/>
  <path id="svg_33" fill="#2f2e41" d="m164.39102,584.72545s-6.3392,24.96005 1.98081,27.07312s78.129,3.9007 78.17309,-7.897s-45.30659,-21.54428 -45.30659,-21.54428l-16.75448,-10.75009l-18.09283,13.11825z"/>
  <circle id="svg_34" fill="#a0616a" r="23.03371" cy="239.18804" cx="99.80143"/>
  <path id="svg_35" fill="#2f2e41" d="m124.36301,235.05224s4.49919,-19.49652 0,-23.99572l0,2.99947s-2.99947,-10.49813 -8.9984,-7.49866c0,0 -7.49866,-5.99892 -8.99841,-2.99947c-8.82431,-7.978 -47.95252,-0.49854 -28.95865,41.38862c0,0 3.46322,-12.89371 3.46322,-8.39451c0,0 8.9984,-8.99839 10.49813,-11.99786s26.99518,16.49706 32.99411,10.49813z"/>
 </g>
</svg>