<?xml version="1.0" encoding="utf-8"?>
<!-- Generator: Adobe Illustrator 16.0.0, SVG Export Plug-In . SVG Version: 6.00 Build 0)  -->
<!DOCTYPE svg PUBLIC "-//W3C//DTD SVG 1.1//EN" "http://www.w3.org/Graphics/SVG/1.1/DTD/svg11.dtd">
<svg version="1.1" id="Layer_1" xmlns="http://www.w3.org/2000/svg" xmlns:xlink="http://www.w3.org/1999/xlink" x="0px" y="0px"
	 width="768.781px" height="634.58px" viewBox="0 0 768.781 634.58" enable-background="new 0 0 768.781 634.58"
	 xml:space="preserve">
<title>business deal</title>
<g>
	<title>background</title>
	<polyline id="canvas_background_1_" fill="none" points="-1,-1 769.781,-1 769.781,635.58 -1,635.58 	"/>
</g>
<g>
	<title>Layer 1</title>
	
		<ellipse id="svg_6" transform="matrix(-0.9798 -0.2002 0.2002 -0.9798 879.793 923.5821)" opacity="0.1" fill="#B514AC" enable-background="new    " cx="486.6" cy="417.302" rx="213.77" ry="64.961"/>
	<path id="svg_7" fill="#3A3768" d="M464.449,234.88c0,0,11.371-55.81,54.781-50.64c0,0,30,2.06,36.17,21.7v43.41L464.449,234.88
		L464.449,234.88z"/>
	<polygon id="svg_8" fill="#D48A9B" points="702.179,255.56 315.609,223.51 266,233.85 269.1,303.1 272.479,303.51 276.33,407.5 
		655.66,475.71 695.98,441.6 695.98,328.87 701.14,325.84 	"/>
	<polygon id="svg_9" opacity="0.05" enable-background="new    " points="702.699,255.56 701.66,325.84 659.8,345.479 
		659.279,272.09 	"/>
	<polygon id="svg_10" opacity="0.05" enable-background="new    " points="695.98,328.94 696.49,439.54 656.179,473.649 
		658.769,345.479 	"/>
	<polygon id="svg_11" opacity="0.05" enable-background="new    " points="271,307.65 657.08,354.76 657.279,345.819 270.71,304.13 
			"/>
	<polygon id="svg_12" opacity="0.05" enable-background="new    " points="695.98,333 695.98,328.94 657.73,345.819 657.73,354.78 	
		"/>
	<polygon id="svg_13" fill="#EFC6CD" points="265.479,233.85 315.09,223.51 701.66,255.56 658.25,272.09 	"/>
	<polygon id="svg_14" opacity="0.1" enable-background="new    " points="660.48,257.55 679.449,258.79 648.009,268.2 632,267.05 	
		"/>
	<polygon id="svg_15" fill="#FFFFFF" points="660.48,256.72 679.449,257.96 648.009,267.38 632,266.22 	"/>
	<path id="svg_16" fill="#D3DAE1" d="M658.21,258.85c0.75-0.32,1.539,0.29,2.34,0.44c0.459,0.09,0.93,0,1.389,0.09
		c0.932,0.12,1.852,0.74,2.74,0.43"/>
	<path id="svg_17" fill="#D3DAE1" d="M657.23,259.42c0.74-0.32,1.539,0.28,2.34,0.44c0.459,0.08,0.93,0,1.391,0.08
		c0.93,0.13,1.85,0.75,2.738,0.44"/>
	<path id="svg_18" fill="#D3DAE1" d="M654.97,260.56c0.75-0.32,1.549,0.28,2.35,0.43c0.449,0.09,0.93,0,1.379,0.09
		c0.941,0.13,1.861,0.75,2.74,0.43"/>
	<polygon id="svg_19" opacity="0.1" enable-background="new    " points="578.48,248.21 597.449,249.46 566.009,258.87 550,257.71 	
		"/>
	<polygon id="svg_20" fill="#FFFFFF" points="578.48,247.39 597.449,248.63 566.009,258.04 550,256.89 	"/>
	<path id="svg_21" fill="#D3DAE1" d="M576.21,249.52c0.75-0.32,1.539,0.28,2.34,0.44c0.459,0.08,0.93,0,1.389,0.08
		c0.932,0.13,1.852,0.75,2.74,0.44"/>
	<path id="svg_22" fill="#D3DAE1" d="M575.23,250.09c0.74-0.32,1.539,0.28,2.34,0.43c0.459,0.09,0.93,0,1.391,0.09
		c0.93,0.13,1.85,0.75,2.738,0.43"/>
	<path id="svg_23" fill="#D3DAE1" d="M572.97,251.22c0.75-0.32,1.549,0.29,2.35,0.44c0.449,0.09,0.93,0,1.379,0.09
		c0.941,0.12,1.861,0.75,2.74,0.43"/>
	<polygon id="svg_24" opacity="0.1" enable-background="new    " points="617.81,252.88 636.791,254.12 605.349,263.54 
		589.33,262.38 	"/>
	<polygon id="svg_25" fill="#FFFFFF" points="617.81,252.06 636.791,253.3 605.349,262.71 589.33,261.55 	"/>
	<path id="svg_26" fill="#D3DAE1" d="M615.541,254.19c0.75-0.32,1.549,0.28,2.35,0.43c0.449,0.09,0.92,0,1.379,0.09
		c0.93,0.12,1.861,0.75,2.74,0.43"/>
	<path id="svg_27" fill="#D3DAE1" d="M614.56,254.75c0.75-0.32,1.549,0.29,2.35,0.44c0.449,0.09,0.92,0,1.381,0.09
		c0.93,0.12,1.859,0.75,2.738,0.43"/>
	<path id="svg_28" fill="#D3DAE1" d="M612.31,255.89c0.74-0.32,1.539,0.28,2.34,0.44c0.459,0.08,0.93,0,1.391,0.08
		c0.93,0.13,1.85,0.75,2.738,0.44"/>
	<ellipse id="svg_29" opacity="0.1" fill="#B514AC" enable-background="new    " cx="266.32" cy="563.7" rx="202.48" ry="41.68"/>
	
		<linearGradient id="svg_30_1_" gradientUnits="userSpaceOnUse" x1="79.186" y1="712.6563" x2="79.186" y2="713.6572" gradientTransform="matrix(387.0939 0 0 -585.4756 -30357.502 417832.9688)">
		<stop  offset="0" style="stop-color:#808080;stop-opacity:0.25"/>
		<stop  offset="0.54" style="stop-color:#808080;stop-opacity:0.12"/>
		<stop  offset="1" style="stop-color:#808080;stop-opacity:0.1"/>
	</linearGradient>
	<path id="svg_30" fill="url(#svg_30_1_)" d="M488.05,222.38c-2.16-18.98-10.711-37.09-10.711-37.09l0.65-6.4c0,0,0.141-3.2-0.07-8
		c0.023-2.997,0.416-5.979,1.17-8.88c1.75-5.55-2.189-12.37-2.629-13c-0.441-0.63,0.219-12.8-3.721-18.77s-30.18-17.07-30.18-17.07
		s-1.41-2.95-3.4-6.4l0.18-0.35c-1.627-2.954-3.646-5.675-6-8.09c-1.609-1.72-3.16-2.7-4.41-2.22c-0.508-1.66-0.896-3.354-1.16-5.07
		c0.26,0.07,0.531,0.14,0.791,0.19c1.082,0.251,2.205,0.278,3.299,0.08c2.441-0.55,4.061-2.74,5.42-4.8
		c6.781-10.3,12.621-21.6,13.811-33.79c0.32-2.488,0.201-5.013-0.35-7.46c-0.563-1.902-1.348-3.732-2.34-5.45
		c-1.752-3.525-3.973-6.798-6.6-9.729c-4.67-4.92-11.111-7.93-17.73-9.71c-7.457-2.005-15.227-2.585-22.9-1.71
		c-2,0.23-4,0.56-6,0.69c-2.537,0.112-5.078,0.068-7.609-0.13l-13.09-0.76l-0.06-0.2l-2.181-0.13c-0.859,1.71,0,3.74,1.07,5.34
		s2.3,3.27,2.21,5.16c-0.09,1.89-1.46,3.41-2.53,5c-1.069,1.59-1.88,3.67-0.81,5.23c0.15,0.216,0.328,0.411,0.53,0.58
		c1.13,1.17,3.1,1.3,4.81,1.28h0.3c-4.307,5.672-6.635,12.599-6.63,19.72c0.06,12.406,7.039,23.742,18.089,29.38
		c0.191,0.65,0.381,1.32,0.561,2c1.982,7.024,2.693,14.346,2.1,21.62l-0.229,0.5l-0.141-0.53c0,0-15.42,10.46-20,13.23
		s-9.18,12.16-9.399,14.72c-0.221,2.56-7.44,41.17-7.44,41.17c-1.467,3.89-2.677,7.872-3.62,11.92l-9.21,8.09c0,0-19,1.71-24.5,0.43
		l0.16,1.06c-4.851-1.107-9.79-1.776-14.76-2c-2.714-0.349-5.473,0.02-8,1.07l-0.19,0.09l-0.15,0.07
		c-2.896,0.396-5.722,1.19-8.4,2.36c-0.32,0.13-0.61,0.26-0.89,0.39l0.06-1.31l-20.56-1.06l-10.5-2.13c0,0-3.72-3-5.91-2.56
		c-2.19,0.44-6.78-2.56-6.78-2.56c-1.047-0.82-2.181-1.524-3.38-2.1c-0.35-2.42-0.57-3.89-0.57-3.89s-8.17-32.42-14.29-51.48
		c-4.1-12.73-10-19-13.48-21.73c-1.55-2.7-2.57-4.44-2.57-4.44c-0.67-2.34-4.35-7.61-5.29-7.74c-0.15-0.24-0.26-0.36-0.32-0.36
		c-0.201-0.021-0.404,0.009-0.59,0.09c-1.72-8.56-2.72-19.29-0.09-28.64c7.29-5.991,11.522-14.924,11.54-24.36c0-0.14,0-0.28,0-0.42
		s0-0.29,0-0.43c-0.002-7.432-2.634-14.623-7.43-20.3l-0.34-0.38c0.091-0.064,0.178-0.135,0.26-0.21
		c1.531-1.242,2.256-3.224,1.89-5.16c-0.45-1.92-1.95-3.43-2.72-5.25c-0.462-1.401-0.833-2.831-1.11-4.28
		c-0.589-2.058-1.67-3.942-3.15-5.49l0.15,0.4c-3.92-4.41-10.66-6.6-16.73-5.62c-4.51,0.72-8.71,2.82-13.24,3.47
		c-3.25,0.46-6.56,0.16-9.83,0.49c-3.034,0.312-5.987,1.166-8.72,2.521c-0.714,0.303-1.347,0.769-1.85,1.36
		c-0.465,0.792-0.777,1.663-0.92,2.57c-1.11,4.05-4.63,6.94-7.18,10.32c-2.913,3.861-4.599,8.509-4.84,13.34
		c-0.1,1.228,0.019,2.463,0.35,3.65c0.22,0.71,0.56,1.38,0.72,2.1c0.5,2.2-0.65,4.39-1.21,6.57c-0.706,2.781-0.456,5.718,0.71,8.34
		c3.95,8.84,16.92,11.79,19.62,21.07c2.066,0.95,4.248,1.622,6.49,2c0.18,0.92,0.34,1.85,0.47,2.79
		c-0.061,0.025-0.118,0.059-0.17,0.1c-3.5,3.41-4.37,10-4.37,10l-0.42,0.34c-1.43,1.18-6.32,5.14-10.74,8.19
		c-5.25,3.63-14,15.79-20.12,19.42c-6.12,3.63-11.16,26-9.84,34.13c1.32,8.13,6.78,30.93,4.59,39.25
		c-2.19,8.32,3.28,46.29,3.28,46.29c3.67,0.699,7.262,1.765,10.72,3.18l-0.11,1.66l-0.33,5c0,0-9.91,35.84-6.12,63.43
		s-1.75,30.431-1.75,30.431s1.16,12.229-1.75,16.5c-2.91,4.27-3.5,13.649-3.5,13.649s-0.29,21.05,0.29,27
		c0.58,5.95,0.87,16.79-1.17,19.35c-2.04,2.561-5.83,19.33-5.54,24.45c0.29,5.12-7.29,16.79-3.21,31.86
		c4.08,15.07-12,15.359-12,15.359s2.05,23,6.42,29.58l0.64,0.94c-0.11,0.38-0.22,0.78-0.34,1.21c-1.65,6-3.91,15.47-2.34,17.76
		c2.33,3.42,3.5,2.84,3.5,2.84l0.87,15.36c0,0,17.5,14.79,30.92,14.23c13.42-0.561,10.79-14.23,10.79-14.23l-11.43-29.64l-0.39-1
		l12.7-24c0,0,3.5-10.521,4.37-14.221c0.87-3.699,5.62-16.81,5.62-16.81s12-28.44,12.25-31.86s1.17-21.89,3.5-25.6s8.75-25,8.75-25
		l0.16,0.14c2.219,2.181,3.057,5.405,2.18,8.391c-1.47,5.399-0.59,16.489-0.59,16.489s-0.58,9.391-1.75,14.23
		s-1.45,44.37,0.59,53.75c1.63,7.51,1.58,21.57,1.5,26.89c-1.37,5.65-2.57,12.67-0.34,13.5c3.8,1.431,23.05,1.141,23.05,1.141
		s8.16-2.851,19.25,7.109c11.09,9.96,45.2-2.84,45.2-2.84s10.5-2.85-10.21-11.09c-14.45-5.75-23.78-9.58-29.88-13.68
		c0.14-0.271,0.29-0.54,0.42-0.83c0,0-8.46-8-1.46-22.181c7-14.18,6.71-26.17,6.71-26.17l1.17-47.79l-3.5-63.439l-2.71-66.58
		l0.48-0.16c0.46,12.24,2.85,41.38,15.36,35.73c15.75-7.11,2.33-25.6,2.33-25.6l-7.07-13.78l2.11-0.72l-7.91-25.56
		c-0.759-4.989-0.86-10.056-0.3-15.07c0.157-2.934,0.097-5.875-0.18-8.8c10.36-1.81,20.28-3.73,22.06-3.29
		c2.1,0.51,13.85,0.61,18.47,0.63c-1.51,1.18-2.72,2.35-2.72,2.35l18.81,12.66c0,0,6.38-3.49,7.71-7.19
		c1.309-0.331,2.517-0.977,3.52-1.88c0.2,4.37,1.36,9.1,5.4,9.21c1.01,0.021,2.013-0.176,2.939-0.58l30.76-6.09l-2.64,16.49
		l1.84,3.27c-0.93,13.91-2,28.68-2.939,41.67l-0.431,2.84l0.221,0.05c-1.46,20-2.63,35.15-2.63,35.15
		c1.723-3.283,4.396-5.971,7.67-7.71l0.199,29.68c0,0,1.54,46.93,1.54,53.33s0.21,20.69,0.21,20.69s3.29,17.489,5.25,23.25
		c1.96,5.76,3.5,32,3.5,32s4.601,7.25,2.631,10c-1.971,2.75,7.659,8.739,7.659,8.739s-6.13,8.32-6.569,13.87
		c-0.05,0.641,0.58,1.32,1.72,2c-0.36,0.29-0.73,0.58-1.14,0.86c-2.841,1.9-7,3.22-13.261,2.68c-17.069-1.5-29.1,14.29-18.6,17.49
		s42,3.84,42,3.84s9.54-5.95,17-3.27c-0.109,6.26,0.201,12,0.25,12.76l-0.09,0.07c-4.459,4-13,10.88-21.339,13.689
		c-12,4.05-14.66,20.48,0.87,22.61c15.53,2.13,38.28-2.561,38.28-2.561s11.811-8.739,20.779-10.659
		c8.971-1.921,16.631-6.19,15.1-11.311c-1-3.27-3.568-11.84-5.309-17.6c-0.1-0.347-0.201-0.681-0.301-1
		c0.27-0.601,0.541-1.221,0.791-1.86c0,0-4.59-23.89-0.871-29.86c3.721-5.97,1.75-65.71,1.75-65.71s-6.35-15.14-3.061-24.31
		c3.291-9.17-5.25-22.19-5.25-22.19s0.932-26.09,3.432-40.629c0.113-0.621,0.223-1.221,0.33-1.801
		c4.186-1.242,8.264-2.817,12.199-4.71c0,0,2.189-32.86,3.5-40.32c0.131-0.7,0.311-1.83,0.529-3.3l1-5.27l0,0l1.18-6l0,0l4-20.45
		l7.221-9.34l18.6-19C485.769,251.41,490.24,241.37,488.05,222.38L488.05,222.38z M201.21,105.05l-0.14,0.1
		c-0.021-0.072-0.038-0.146-0.05-0.22C201.078,104.978,201.142,105.018,201.21,105.05z M384.98,128.34l-0.72,1.57l2.63-2.62
		l-3.571,4l1.2-2.52L384.98,128.34z M367.22,165.04c-0.69,1.83-1.43,3.81-2.2,5.87l1.41-4.21L367.22,165.04z"/>
	<path id="svg_31" fill="#585B8A" d="M309.83,224.87c0,0-2.45,16.31,4.899,16.52c7.351,0.21,12.261-12.58,12.261-12.58l-3-10.229
		L309.83,224.87z"/>
	<path id="svg_32" opacity="0.2" enable-background="new    " d="M309.83,224.87c0,0-2.45,16.31,4.899,16.52
		c7.351,0.21,12.261-12.58,12.261-12.58l-3-10.229L309.83,224.87z"/>
	<path id="svg_33" fill="#636992" d="M145.2,577.91c-13.08,0.569-30.14-14.21-30.14-14.21l-0.85-15.351c0,0-1.13,0.57-3.41-2.84
		c-1.53-2.29,0.67-11.78,2.28-17.75c0.78-2.92,1.42-5,1.42-5l28.7,7.68l1.37,3.63l11.14,29.62
		C155.71,563.689,158.27,577.34,145.2,577.91L145.2,577.91z"/>
	<path id="svg_34" fill="#636992" d="M277.07,534.43c0,0-33.25,12.79-44,2.84c-10.75-9.949-18.76-7.109-18.76-7.109
		s-18.76,0.29-22.46-1.141c-2.18-0.83-1-7.939,0.36-13.6c0.92-3.91,1.92-7.14,1.92-7.14s32.68-11.091,37.8-4.271
		c1.538,2.004,3.376,3.758,5.45,5.2c5.92,4.28,15.17,8.16,29.8,14.13C287.3,531.58,277.07,534.43,277.07,534.43L277.07,534.43z"/>
	<path id="svg_35" fill="#FFD6D6" d="M247.23,274.64l9.09,18.19c0,0,13.08,18.48-2.27,25.58c-15.35,7.101-15.06-40.919-15.06-40.919
		L247.23,274.64L247.23,274.64z"/>
	<path id="svg_36" fill="#DCE6F2" d="M209.14,116.9c0,0,9.95,4.55,15.92,23.59c5.97,19.04,13.93,51.45,13.93,51.45
		s5.4,36.66,4.54,45.76c-0.547,5.012-0.45,10.073,0.29,15.06l7.67,25.58l-15.35,5.4l-23.59-90.38L209.14,116.9L209.14,116.9z"/>
	<path id="svg_37" opacity="0.05" enable-background="new    " d="M209.14,116.9c0,0,9.95,4.55,15.92,23.59
		c5.97,19.04,13.93,51.45,13.93,51.45s5.4,36.66,4.54,45.76c-0.547,5.012-0.45,10.073,0.29,15.06l7.67,25.58l-15.35,5.4
		l-23.59-90.38L209.14,116.9L209.14,116.9z"/>
	<path id="svg_38" opacity="0.1" enable-background="new    " d="M143.2,530.45l1.37,3.63l-1.68,3.21
		c-6.54,2.84-22.74,0.569-22.74,0.569s-3-3.81-7.1-10.079c0.78-2.921,1.42-5,1.42-5L143.2,530.45z"/>
	<path id="svg_39" opacity="0.1" enable-background="new    " d="M238.42,510.55c-8.29,18.78-36.47,11.81-44.3,9.46
		c-1.29-0.39-2-0.65-2-0.65s0.05-1.529,0.07-3.939c0.92-3.91,1.92-7.141,1.92-7.141s32.68-11.09,37.8-4.27
		c1.538,2.004,3.376,3.758,5.45,5.2C237.673,509.687,238.027,510.136,238.42,510.55z"/>
	<path id="svg_40" fill="#565988" d="M236.99,486.68c-6.82,14.2,1.43,22.17,1.43,22.17c-8.29,18.771-36.47,11.811-44.3,9.45
		c-1.29-0.38-2-0.64-2-0.64s0.57-19.62-1.42-29c-1.99-9.381-1.71-48.881-0.57-53.71c1.14-4.83,1.7-14.221,1.7-14.221
		s-0.85-11.08,0.57-16.479c0.87-2.972,0.058-6.181-2.12-8.38l-0.15-0.15c0,0-6.25,21.32-8.53,25c-2.28,3.68-3.12,22.17-3.41,25.58
		s-11.94,31.84-11.94,31.84s-4.54,13.07-5.39,16.76c-0.85,3.69-4.27,14.221-4.27,14.221l-13.7,26.439
		c-6.54,2.84-22.74,0.57-22.74,0.57s-3.12-4-7.39-10.521c-4.27-6.52-6.25-29.55-6.25-29.55s15.63-0.29,11.65-15.35
		c-3.98-15.061,3.41-26.72,3.13-31.84c-0.28-5.12,3.41-21.88,5.4-24.44c1.99-2.56,1.7-13.36,1.13-19.33s-0.28-27-0.28-27
		s0.57-9.38,3.41-13.64s1.71-16.49,1.71-16.49s5.39-2.84,1.7-30.41c-3.69-27.57,6-63.38,6-63.38l0.33-5l0.52-8.1
		c0,0,81.29-5.12,87.83,1.13c1.709,1.734,3.113,3.746,4.15,5.95c2.237,4.81,3.818,9.899,4.7,15.13l3.41,86.12l3.41,63.381
		l-1.14,47.75C243.57,460.54,243.82,472.46,236.99,486.68L236.99,486.68z"/>
	<path id="svg_41" opacity="0.1" enable-background="new    " d="M212.89,316.71l-8.53,184.74l-10.24,16.84
		c-1.29-0.38-2-0.641-2-0.641s0.57-19.619-1.42-29c-1.99-9.38-1.71-48.88-0.57-53.71c1.14-4.83,1.7-14.22,1.7-14.22
		s-0.85-11.08,0.57-16.479c0.87-2.972,0.058-6.181-2.12-8.38l0.14-1L212.89,316.71L212.89,316.71z"/>
	<path id="svg_42" opacity="0.1" enable-background="new    " d="M121.03,515.1c0,0,22.17-8.81,25.58-6
		c3.41,2.811-26.14,7.101-26.14,7.101L121.03,515.1z"/>
	<path id="svg_43" opacity="0.1" enable-background="new    " d="M230.46,491.79c-0.85,0.29-22.45,8-20.46,16.2
		C211.99,516.189,230.46,491.79,230.46,491.79z"/>
	<path id="svg_44" fill="#FFD6D6" d="M162.96,71.29c0,0,7.24,17.479,3.41,26.44c-3.83,8.96,41.35,24.3,41.35,24.3
		s-13.21-34.11-0.42-53.3S162.96,71.29,162.96,71.29L162.96,71.29z"/>
	<path id="svg_45" fill="#505484" d="M427.5,577.34c-8.74,1.92-20.25,10.66-20.25,10.66s-22.17,4.689-37.31,2.56
		c-15.14-2.13-12.569-18.55-0.85-22.6c8.13-2.8,16.46-9.71,20.81-13.67c1.92-1.771,3.061-3,3.061-3l42.43-8.53
		c0,0,0.689,2.37,1.65,5.64c1.699,5.771,4.209,14.33,5.17,17.591C443.701,571.16,436.24,575.42,427.5,577.34z"/>
	<path id="svg_46" fill="#505484" d="M416.63,544.51c0,0-17.91,1.92-25.371-2.34c-7.459-4.26-18.12,2.56-18.12,2.56
		s-30.7-0.64-40.93-3.84c-10.23-3.2,1.49-19,18.12-17.479c6.06,0.55,10.16-0.78,12.93-2.681c2.894-1.983,4.91-5.006,5.63-8.439
		l36,2.13l5,12.76L416.63,544.51z"/>
	<path id="svg_47" opacity="0.1" enable-background="new    " d="M410.439,533c0,0-41.839-6.84-47.179-12.271
		c2.894-1.983,4.91-5.006,5.63-8.439l36,2.13l5,12.76L410.439,533z"/>
	<path id="svg_48" fill="#575988" d="M348.41,293.62l0.43,62.45c0,0,1.49,46.9,1.49,53.301c0,6.399,0.21,20.67,0.21,20.67
		s3.2,17.479,5.12,23.24c1.92,5.76,3.409,32,3.409,32s4.48,7.25,2.561,10s7.46,8.739,7.46,8.739s-6,8.32-6.39,13.86
		c-0.391,5.54,47.739,13.41,47.739,13.41l-18.75-192.271l-14.929-48.17L348.41,293.62L348.41,293.62z"/>
	<path id="svg_49" opacity="0.1" enable-background="new    " d="M348.41,293.62l0.43,62.45c0,0,1.49,46.9,1.49,53.301
		c0,6.399,0.21,20.67,0.21,20.67s3.2,17.479,5.12,23.24c1.92,5.76,3.409,32,3.409,32s4.48,7.25,2.561,10s7.46,8.739,7.46,8.739
		s-6,8.32-6.39,13.86c-0.391,5.54,47.739,13.41,47.739,13.41l-18.75-192.271l-14.929-48.17L348.41,293.62L348.41,293.62z"/>
	<path id="svg_50" opacity="0.1" enable-background="new    " d="M437.041,548.45c-13.932,33.21-47.061,7.58-47.061,7.58
		s0-0.641-0.08-1.74c1.92-1.771,3.061-3,3.061-3l42.43-8.53C435.39,542.76,436.08,545.18,437.041,548.45z"/>
	<path id="svg_51" fill="#575988" d="M437.519,545.58c-13.648,35-47.539,8.74-47.539,8.74s-1.07-18.12,1.07-26.431
		c2.139-8.31-2.35-33.26-2.35-33.26s-2.561-22.17-4.901-27.28c-2.34-5.109-2.13-15.35-2.13-16.2c0-0.85,0.85-7.68-1.07-12.369
		c-1.92-4.69-3-16.2-3-16.2s0-16.2-1.92-25.79l-6.61-33l-11.939-67.58l3.729-0.64l66.83-11.72c0,0,12.58,64,8.311,70.56
		c-0.92,1.44-1.73,4.591-2.4,8.65c-2.439,14.52-3.35,40.59-3.35,40.59s8.311,13,5.121,22.17c-3.191,9.171,3,24.301,3,24.301
		s1.92,59.689-1.711,65.659C433.029,521.75,437.519,545.58,437.519,545.58L437.519,545.58z"/>
	<path id="svg_52" fill="#D28690" d="M431.121,109.23c0,0-60.541,42.63-46.901,21.31c7.35-11.48,6-26.1,3.12-37.14
		c-1.455-5.615-3.465-11.072-6-16.29c0,0,51.439-21.88,44.621-2.27c-1.6,4.568-2.279,9.408-2,14.24
		C424.369,96.343,426.853,103.337,431.121,109.23z"/>
	<path id="svg_53" fill="#D28690" d="M322.12,206.86c0,0-25.58-7.39-29.84-0.14s1.28,23.16,9,25.72s25.44-8.67,25.44-8.67
		L322.12,206.86z"/>
	<path id="svg_54" fill="#585B8A" d="M351.399,194.29l-10.659,9.81c0,0-18.551,1.7-23.881,0.42c0,0,4.91,32.83-2.13,36.88
		l43.061-8.74L351.399,194.29L351.399,194.29z"/>
	<path id="svg_55" opacity="0.1" enable-background="new    " d="M351.399,194.29l-10.659,9.81c0,0-18.551,1.7-23.881,0.42
		c0,0,4.91,32.83-2.13,36.88l43.061-8.74L351.399,194.29L351.399,194.29z"/>
	<path id="svg_56" opacity="0.1" enable-background="new    " d="M214.54,53.38c0,17.673-14.327,32-32,32
		c-16.42-7.89-32-14.31-32-32c-0.698-17.659,13.051-32.542,30.71-33.24c17.659-0.699,32.542,13.051,33.24,30.71
		c0.033,0.843,0.033,1.687,0,2.529H214.54z"/>
	<path id="svg_57" fill="#FFD6D6" d="M214.54,52.52c0.011,17.64-14.279,31.949-31.919,31.96s-31.949-14.28-31.96-31.919
		c-0.011-17.64,14.28-31.949,31.92-31.96c9.576-0.006,18.649,4.285,24.72,11.69C211.973,37.997,214.53,45.144,214.54,52.52z"/>
	<path id="svg_58" opacity="0.1" enable-background="new    " d="M233.19,248.19c-3.166,1.966-6.479,3.685-9.91,5.14
		c0,0-16.2-2.35-18.54,0.42c-2.34,2.77-23,3.84-23,3.84s-31.55-1.49-36.24-5.54c-1.45-1.174-3.064-2.131-4.79-2.84l0.52-8.1
		c0,0,81.29-5.12,87.83,1.13C230.762,243.976,232.159,245.988,233.19,248.19L233.19,248.19z"/>
	<path id="svg_59" fill="#DCE6F2" d="M237.14,242.46c-0.64,3.62-13.86,9.16-13.86,9.16s-16.2-2.34-18.54,0.43s-23,3.84-23,3.84
		s-31.55-1.5-36.24-5.55c-4.69-4.05-15.14-6-15.14-6s-5.33-37.94-3.19-46.25c2.14-8.31-3.2-31.13-4.48-39.23
		c-1.28-8.1,3.62-30.48,9.59-34.1s14.5-15.78,19.61-19.4c4.31-3.05,9.07-7,10.46-8.19l0.41-0.34c0,0,0.86-6.61,4.27-10
		c3.41-3.39,34.74,21.53,34.74,21.53s0.22,1.92,2.35-1.7c0.48-0.81,4.61,5.15,5.33,7.67c0,0,17.05,29.85,18.12,36
		c1.07,6.15,5.54,26.22,6.39,31.12c0.22,1.26,0.58,5.68,1,11.6c0.08,1.16,0.15,2.39,0.24,3.67c0.63,9.82,1.31,22.36,1.72,31.84
		c0,1.08,0.09,2.12,0.12,3.12C237.256,235.269,237.289,238.867,237.14,242.46L237.14,242.46z"/>
	<path id="svg_60" opacity="0.1" enable-background="new    " d="M128.89,165.5c0,0,11.72,14.28,15.56,14.28
		S128.89,165.5,128.89,165.5z"/>
	<path id="svg_61" opacity="0.1" enable-background="new    " d="M153.58,196.2c0,0-19.19,20.89-16.63,24.73
		S153.58,196.2,153.58,196.2z"/>
	<path id="svg_62" opacity="0.1" enable-background="new    " d="M139.51,237.77c0,0,22-24.09,23-32.4L139.51,237.77z"/>
	<path id="svg_63" opacity="0.1" enable-background="new    " d="M167.22,239.47c0,0,25.37-13.43,27.5-24.09
		S167.22,239.47,167.22,239.47z"/>
	<path id="svg_64" opacity="0.1" enable-background="new    " d="M199.41,109.87l-3.52,8.52l5.86,2.77l5.76,16.1
		c0,0,15.88,31.76,15.24,48.28c-0.64,16.52,2.88,41.35,2.88,41.35l9.16-1.7l-4.32-48.59c-0.673-7.523-2.557-14.888-5.58-21.81
		c-7.32-16.76-20.94-47.7-21.8-47.7c-1.17,0-0.35,0.43-0.35,0.43L199.41,109.87L199.41,109.87z"/>
	<path id="svg_65" fill="#575989" d="M200.26,109.01l-3.52,8.53l5.87,2.77l5.75,16.1c0,0,15.88,31.76,15.24,48.28
		c-0.64,16.52,2.88,41.35,2.88,41.35l9.17-1.7l-4.33-48.59c-0.665-7.523-2.546-14.889-5.57-21.81c-7.32-16.77-20.94-47.7-21.79-47.7
		c-1.18,0-0.36,0.43-0.36,0.43L200.26,109.01z"/>
	<path id="svg_66" fill="#FFD6D6" d="M304.07,234.29c-4.46-0.34-15.16-5.75-19.41-8l-1.8-1l0.22-16.51
		c1.051-0.618,2.14-1.169,3.26-1.65c5.68-2.48,17.33-5.85,23.17,5C317.39,226.68,309.72,234.67,304.07,234.29L304.07,234.29z"/>
	<path id="svg_67" opacity="0.1" enable-background="new    " d="M207.3,32.29c-0.458,0.287-0.962,0.493-1.49,0.61
		c-3.71,0.81-7.93-2.38-11.11-0.33c-1.94,1.26-2.39,3.87-2.65,6.17c-0.453,4-0.907,7.973-1.36,11.92
		c-0.095,1.405-0.392,2.79-0.88,4.11c-1.57,3.59-5.88,5.28-9.81,5.22c-1.54,0.11-3.06-0.394-4.23-1.4c-0.69-0.7-1.06-1.68-1.82-2.32
		c-5-4.189-6.52,6.08-5.2,9c2.12,4.771,9.65,9.37,6.49,15.43c-0.531,0.985-1.337,1.794-2.32,2.33
		c-16.866-5.282-26.256-23.236-20.974-40.101s23.235-26.256,40.101-20.974C198.034,23.83,203.338,27.424,207.3,32.29z"/>
	<path id="svg_68" fill="#353045" d="M173.1,56.23c0.75,0.63,1.13,1.61,1.82,2.31c1.17,1.005,2.69,1.508,4.23,1.4
		c3.93,0.06,8.24-1.62,9.8-5.23c0.498-1.315,0.797-2.697,0.89-4.1l1.36-11.92c0.26-2.3,0.7-4.91,2.65-6.17
		c3.18-2,7.4,1.14,11.11,0.33c2.775-0.705,4.526-3.445,4-6.26c-0.43-1.91-1.89-3.42-2.64-5.24c-0.455-1.398-0.819-2.825-1.09-4.27
		c-2.07-7.76-11.18-12.12-19.1-10.82c-4.4,0.73-8.49,2.83-12.9,3.47c-3.16,0.46-6.39,0.16-9.58,0.5
		c-2.964,0.306-5.846,1.157-8.5,2.51c-0.697,0.309-1.313,0.774-1.8,1.36c-0.453,0.792-0.758,1.659-0.9,2.56
		c-1.07,4-4.51,6.95-7,10.32c-2.848,3.877-4.496,8.505-4.74,13.31c-0.098,1.227,0.017,2.462,0.34,3.65c0.21,0.7,0.54,1.38,0.7,2.1
		c0.49,2.19-0.63,4.38-1.18,6.56c-0.684,2.782-0.438,5.711,0.7,8.34c3.84,8.83,16.49,11.78,19.12,21.05
		c2.335,1.12,4.858,1.798,7.44,2c2.58,0.05,5.36-1.06,6.56-3.35c3.15-6-4.37-10.66-6.49-15.42
		C166.57,62.29,168.06,52.03,173.1,56.23L173.1,56.23z"/>
	<path id="svg_69" opacity="0.1" enable-background="new    " d="M426.009,74.84c-1.598,4.568-2.277,9.408-2,14.24
		c-1.539,1.31-3.219-2.61-5-1.6c-4.879,2.82-10.52,9.53-16.559,9.53c-5.238,0.003-10.402-1.233-15.07-3.61
		c-1.457-5.615-3.466-11.072-6-16.29C381.38,77.11,432.83,55.23,426.009,74.84z"/>
	<path id="svg_70" fill="#D28690" d="M435.669,62.05c0,18.369-14.891,33.26-33.26,33.26c-18.369,0-33.26-14.891-33.26-33.26
		s14.892-33.26,33.26-33.26c18.363-0.006,33.254,14.876,33.26,33.24C435.669,62.037,435.669,62.043,435.669,62.05z"/>
	<path id="svg_71" fill="#F0F3F7" d="M434.25,116.62c0,0-6.26,6.82-7.109,7.38c-0.85,0.56-19,77-19.32,77.89
		c-0.32,0.89-21.609,69.91-21.609,69.91L352.1,288.57l2.851-84.42l25-69.62c0,0,8.25-9.38,10.799-12.79
		c2.551-3.41,34.391-23.88,34.391-23.88l5.439,11.21L434.25,116.62z"/>
	<path id="svg_72" opacity="0.1" enable-background="new    " d="M429.74,110.78l-39.221,28.08l-0.629-15.42
		c2.561-3.41,34.389-23.87,34.389-23.87L429.74,110.78z"/>
	<path id="svg_73" fill="#F0F3F7" d="M430.589,109.07l-39.219,28.08l-0.611-15.41c2.561-3.42,34.391-23.88,34.391-23.88
		L430.589,109.07z"/>
	<path id="svg_74" fill="#585B8A" d="M389.451,114.88l1.309,6.86l-8.769,8.91l7-15.67c0,0-15,10.45-19.5,13.22s-9,12.15-9.171,14.71
		c-0.17,2.56-7.25,41.14-7.25,41.14s-5.329,14.28-3.829,18.33s-8.101,131.74-8.101,131.74c2.599-5.021,7.297-8.624,12.82-9.83
		l-3.42-75.46c0,0,4.16-50.2,4.37-50.84s9.699-29.74,9.699-29.74L389.451,114.88z"/>
	<path id="svg_75" opacity="0.1" enable-background="new    " d="M391.621,122.59l-0.682,14c0,0-9.489,29.95-12.679,34.85
		s-12.9,34.11-12.9,34.11l-5.47,50.74l-9.38,4.27l-4.62-8.51l7.68-49c0,0,14.49-41.35,16.631-45.62l10.689-22.52L391.621,122.59
		L391.621,122.59z"/>
	<path id="svg_76" fill="#663D5C" d="M390.759,121.74l-0.67,14c0,0-9.49,29.95-12.69,34.85c-3.199,4.9-12.89,34.11-12.89,34.11
		l-5.44,50.73l-9.38,4.26L345,251.17l7.68-49c0,0,14.49-41.36,16.62-45.62l10.77-22.49L390.759,121.74L390.759,121.74z"/>
	<path id="svg_77" fill="#D28690" d="M280.2,228.6l18.33,12.69c0,0,12.93-7.25,5.4-11.94c-7.53-4.69-14.21-5.4-16.63-5.4
		S280.2,228.6,280.2,228.6L280.2,228.6z"/>
	<path id="svg_78" fill="#D28690" d="M293.89,205.14c-0.832,0.518-1.335,1.43-1.33,2.41c0,3.89,0.44,14.19,3.7,9.54
		c4-5.69,3.27-10.8,9.38-7.11c3.798,2.365,7.121,5.417,9.8,9l-1.699-12.22C313.74,206.76,301.18,200.56,293.89,205.14z"/>
	<path id="svg_79" opacity="0.1" enable-background="new    " d="M436.019,354.37c-0.92,1.439-1.729,4.59-2.398,8.65
		c-37.381,11.209-64.731-12.49-64.731-12.49c-3.309-11.214-6.013-22.597-8.1-34.101c-0.67-3.94-0.521-11.58,0.1-20.9l66.831-11.72
		C427.72,283.81,440.291,347.76,436.019,354.37z"/>
	<path id="svg_80" fill="#585B8A" d="M474.39,163.58c-1.701,5.55-1.061,16.84-1.061,16.84l-15.35,72.48c0,0-7.461,55.85-8.74,63.31
		s-3.41,40.29-3.41,40.29c-43.49,21.319-77-7.671-77-7.671c-3.309-11.217-6.013-22.603-8.101-34.109
		c-2.14-12.66,4.16-63.38,7.141-85.91c0.89-6.67,1.489-10.87,1.489-10.87l11.19-41.57c0,0,13.75-35.07,18.87-45.3
		c5.121-10.23,25.68-33.21,25.68-33.21c2.551-1.62,6.631,4.1,9.66,9.31c2.291,3.94,4,7.6,4,7.6s25.58,11.08,29.41,17
		c3.83,5.92,3.201,18.12,3.631,18.76S476.099,158.04,474.39,163.58L474.39,163.58z"/>
	<path id="svg_81" opacity="0.1" enable-background="new    " d="M414.07,137.79c0,0,1.92,11.3-3,14.71
		c-4.75,3.3-40.11,72.83-42.31,77.17c0.89-6.68,1.49-10.88,1.49-10.88l11.189-41.56c0,0,13.761-35.07,18.871-45.31
		C405.419,121.68,426,98.71,426,98.71c2.551-1.62,6.621,4.1,9.65,9.31C431.08,117.51,421.55,135.45,414.07,137.79z"/>
	<path id="svg_82" fill="#585B8A" d="M413.22,136.94c0,0,1.91,11.3-3,14.71c-4.91,3.41-40.1,72.82-42.331,77.16
		c0.89-6.67,1.49-10.87,1.49-10.87l11.189-41.57c0,0,13.75-35.07,18.87-45.3c5.121-10.23,25.682-33.21,25.682-33.21
		c2.549-1.62,6.629,4.1,9.658,9.31C430.23,116.65,420.689,134.6,413.22,136.94L413.22,136.94z"/>
	<polygon id="svg_83" fill="#B514AC" points="463.951,239.05 451.919,301.64 451.919,301.65 450.769,307.64 450.769,307.65 
		448.179,321.12 437.13,318.78 431.98,317.69 360.71,302.59 355.47,301.48 343.51,298.95 345.85,283.41 346.819,276.95 
		355.45,219.65 	"/>
	<path id="svg_84" fill="#D28690" d="M397.439,290.21c0,0-28.349,10.23-22.169,22.38c6.181,12.149,45.83-9.38,45.83-9.38
		L397.439,290.21z"/>
	<path id="svg_85" opacity="0.1" enable-background="new    " d="M417.689,377.39c0,0.85,1.07,11.73,5.33,15.561
		C427.279,396.779,417.689,377.39,417.689,377.39z"/>
	<path id="svg_86" opacity="0.1" enable-background="new    " d="M389.13,415.97c0,0,5.109,14.07,25.359,19.83
		S389.13,415.97,389.13,415.97L389.13,415.97z"/>
	<path id="svg_87" opacity="0.1" enable-background="new    " d="M435.669,62.05c0.004,11.901-6.354,22.896-16.67,28.83
		c-1.91-1.069-3.605-2.483-5-4.17c-1.449-1.76-2.58-4.16-1.709-6.26c0.699-1.69,2.549-2.76,3-4.51c0.211-1.07,0.156-2.176-0.16-3.22
		c-0.371-1.65-0.721-3.3-1.08-4.94c-0.311-1.4-0.861-3.05-2.25-3.39c-1.391-0.34-2.551,0.82-3.641,1.68
		c-2.67,2.11-7.789,3.54-11,1.81c-3.209-1.73-2.311-7.52-2.83-10.65c-0.014-0.551-0.27-1.067-0.699-1.41
		c-0.469-0.155-0.967-0.189-1.451-0.1c-1.729,0-3.119-1.55-3.619-3.21c-0.355-1.695-0.549-3.419-0.58-5.15
		c-0.189-1.73-0.82-3.56-2.301-4.45c-1.182-0.55-2.493-0.765-3.79-0.62l-6.27,0.07c10.922-14.768,31.75-17.885,46.518-6.961
		c8.463,6.26,13.463,16.155,13.482,26.681L435.669,62.05z"/>
	<path id="svg_88" fill="#663D5C" d="M409.05,66.07c1.09-0.86,2.289-2,3.639-1.67c1.352,0.33,1.932,2,2.24,3.38l1.08,4.93
		c0.32,1.046,0.379,2.155,0.17,3.23c-0.51,1.76-2.35,2.82-3.059,4.51c-0.871,2.1,0.27,4.5,1.709,6.25
		c2.627,3.166,6.258,5.336,10.291,6.15c1.053,0.253,2.146,0.277,3.209,0.07c2.381-0.55,4-2.74,5.279-4.79
		c6.611-10.3,12.301-21.59,13.461-33.77c0.318-2.484,0.203-5.005-0.34-7.45c-0.543-1.9-1.307-3.729-2.279-5.45
		c-1.703-3.515-3.865-6.787-6.432-9.73c-4.549-4.9-10.83-7.91-17.279-9.69c-7.254-2.013-14.83-2.607-22.311-1.75
		c-2,0.23-3.92,0.56-5.889,0.69c-2.475,0.115-4.953,0.075-7.42-0.12l-14.721-0.88c-0.84,1.71,0,3.74,1,5.34s2.24,3.26,2.16,5.16
		s-1.43,3.4-2.47,5s-1.83,3.67-0.79,5.23s3.16,1.66,5,1.64l7.42-0.08c1.293-0.133,2.596,0.092,3.77,0.65
		c1.48,0.89,2.109,2.73,2.301,4.45c0.041,1.73,0.234,3.454,0.58,5.15c0.51,1.66,1.889,3.23,3.619,3.21
		c0.484-0.097,0.986-0.059,1.449,0.11c0.432,0.339,0.688,0.853,0.701,1.4c0.52,3.13-0.439,8.91,2.83,10.65
		C401.24,69.63,406.38,68.18,409.05,66.07L409.05,66.07z"/>
	<path id="svg_89" opacity="0.1" enable-background="new    " d="M451.32,131.76c-7.572-0.804-14.693,3.742-17.15,10.95
		c-4,11.39-10.67,31.94-9,40.06c2.35,11.51,5.121,30.7,5.121,30.7s12.148,7,6,14.06c-6.15,7.06-7.891,17.06-7.891,17.06
		s-7.891,3.41-9.59,10.66c-1.701,7.25-13.221,17.26-13.221,17.26l-17.26,17.27c0,0,28.561,29,34.32,30.48l17.689-20.68l20.891-27.71
		l18.119-19c0,0,4.26-10,2.131-29c-2.131-19-10.451-37.09-10.451-37.09l0.641-6.4C471.669,180.38,473.63,134.53,451.32,131.76z"/>
	<path id="svg_90" fill="#585B8A" d="M453.019,131.76c-7.564-0.794-14.674,3.75-17.129,10.95c-4,11.39-10.67,31.94-9,40.06
		c2.34,11.51,5.109,30.7,5.109,30.7s12.15,7,6,14.06s-7.879,17.06-7.879,17.06s-7.891,3.41-9.602,10.66
		c-1.709,7.25-13.209,17.26-13.209,17.26l-17.27,17.27c0,0,28.559,29,34.318,30.48l17.691-20.68l20.84-27.71l18.119-19
		c0,0,4.27-10,2.131-29c-2.141-19-10.439-37.09-10.439-37.09l0.639-6.4C473.339,180.38,475.33,134.53,453.019,131.76z"/>
	<path id="svg_91" opacity="0.1" enable-background="new    " d="M435.169,196.63c0,0,18.121,22.16,25.801,17.26
		C468.65,208.99,435.169,196.63,435.169,196.63z"/>
	<path id="svg_92" opacity="0.1" enable-background="new    " d="M441.99,179.57c1.92,0.64,17.699,22.6,25.801,20
		C475.89,196.97,441.99,179.57,441.99,179.57z"/>
	<path id="svg_93" opacity="0.1" enable-background="new    " d="M446.47,217.29c0,0,1.07,12.58,14.07,10.87
		S446.47,217.29,446.47,217.29z"/>
	<polygon id="svg_94" opacity="0.1" enable-background="new    " points="389.019,115.83 381.99,131.5 390.769,122.59 	"/>
	<polygon id="svg_95" fill="#F0F3F7" points="389.019,114.98 381.99,130.65 390.769,121.74 	"/>
	<polygon id="svg_96" opacity="0.3" enable-background="new    " points="360.71,302.59 355.47,301.48 345.85,283.41 
		346.819,276.95 	"/>
	<polygon id="svg_97" opacity="0.3" enable-background="new    " points="451.919,301.65 450.769,307.64 450.769,307.65 
		437.13,318.78 431.98,317.69 	"/>
	<path id="svg_98" opacity="0.1" enable-background="new    " d="M237.01,231.72c-2.64,0.44-5.2,0.84-7.54,1.14
		c-13,1.71-43.92-13.64-43.92-13.64s-37.73-31.55-48.6-61.39c-10.87-29.84,13-34.32,13-34.32c9-5.12,28.57,9.16,31.34,11.51
		c2.77,2.35,5.12,8.311,4.9,12.15c-0.22,3.84,6.4,8.74,6.4,8.74s11.3,19.61,14.07,21.74c2.77,2.13,3.41,4.05,4.26,7.68
		c0.85,3.63,8.31,6.61,11.51,6.39c3.2-0.22,7,1.07,7,2.77c0,1.37,3.13,2.05,5.7,2.27C235.89,207.69,236.64,222.01,237.01,231.72
		L237.01,231.72z"/>
	<path id="svg_99" opacity="0.1" enable-background="new    " d="M236.89,228.6c-2,0.32-3.92,0.61-5.72,0.85
		c-13,1.71-43.91-13.64-43.91-13.64s-37.73-31.55-48.6-61.39c-10.87-29.84,13-34.32,13-34.32c9-5.12,28.56,9.16,31.33,11.51
		s5.12,8.31,4.91,12.15s6.39,8.74,6.39,8.74s11.3,19.61,14.07,21.74s3.41,4.05,4.27,7.68s8.31,6.6,11.51,6.39
		c3.2-0.21,7,1.07,7,2.771c0,1,1.78,1.67,3.76,2c0.08,1.16,0.15,2.39,0.24,3.67C235.8,206.58,236.48,219.12,236.89,228.6
		L236.89,228.6z"/>
	<path id="svg_100" opacity="0.1" enable-background="new    " d="M286.34,207.13l-0.81,19.16h-0.87l-1.8-1l0.22-16.51
		C284.131,208.162,285.22,207.611,286.34,207.13L286.34,207.13z"/>
	<path id="svg_101" fill="#DCE6F2" d="M149.95,121.8c0,0-23.87,4.48-13,34.32c10.87,29.84,48.6,61.4,48.6,61.4
		s30.91,15.34,43.92,13.64c13.01-1.7,32.82-6.18,35.38-5.54c2.56,0.64,19.83,0.64,19.83,0.64l0.85-20l-20-1.07l-10.23-2.13
		c0,0-3.63-3-5.76-2.56c-2.13,0.44-6.6-2.56-6.6-2.56s-3.42-2.77-6-2.77c-2.58,0-7.46-0.64-7.46-2.34c0-1.7-3.84-3-7-2.771
		c-3.16,0.23-10.71-2.77-11.59-6.44c-0.88-3.67-1.49-5.54-4.26-7.67c-2.77-2.13-14.07-21.75-14.07-21.75s-6.61-4.9-6.4-8.73
		s-2.13-9.81-4.9-12.16C178.49,130.96,158.89,116.69,149.95,121.8L149.95,121.8z"/>
	<path id="svg_102" opacity="0.1" enable-background="new    " d="M211.35,190.44c0,0-9.17,9.17-6.83,10.87L211.35,190.44z"/>
	<path id="svg_103" opacity="0.1" enable-background="new    " d="M221.15,197.69c0,0-11.94,9.17-8.74,9.81
		C215.61,208.14,221.15,197.69,221.15,197.69z"/>
	<path id="svg_104" opacity="0.1" enable-background="new    " d="M200.89,211.29c1.71,0.86,27.07,16,36.67,15.78L200.89,211.29z"/>
	<path id="svg_105" opacity="0.1" enable-background="new    " d="M202.61,110.08c0,0-4.48,14.71-6.19,14.71
		c-1.34,0-23.84-18.22-33.23-25.88l0.41-0.34c0,0,0.85-6.61,4.26-10C171.27,85.18,202.61,110.08,202.61,110.08z"/>
	<path id="svg_106" fill="#DCE6F2" d="M201.75,108.37c0,0-4.47,14.71-6.18,14.71c-1.35,0-23.85-18.22-33.24-25.88l0.41-0.34
		c0,0,0.86-6.61,4.27-10S201.75,108.37,201.75,108.37L201.75,108.37z"/>
	<g id="svg_107" opacity="0.15">
		<path id="svg_108" d="M141.38,60.83L141.38,60.83c3,6.85,11.26,10.17,16.05,15.63C154.58,69.75,146.25,66.46,141.38,60.83z"/>
		<path id="svg_109" d="M171.95,76.61c-1.19,2.29-4,3.4-6.56,3.35c-2.276-0.164-4.504-0.732-6.58-1.68
			c0.753,1.11,1.327,2.332,1.7,3.62c2.334,1.122,4.857,1.8,7.44,2c2.59,0.06,5.37-1.05,6.56-3.35c1.91-3.65-0.08-6.77-2.41-9.72
			C172.98,72.669,172.925,74.819,171.95,76.61z"/>
		<path id="svg_110" d="M209.06,26.49c-0.43-1.92-1.89-3.43-2.64-5.24c-0.459-1.401-0.824-2.831-1.09-4.28
			c-0.568-2.05-1.621-3.933-3.07-5.49c0.201,0.492,0.372,0.997,0.51,1.51c0.28,1.456,0.655,2.893,1.12,4.3
			c0.75,1.81,2.21,3.32,2.64,5.24c0.526,2.815-1.225,5.555-4,6.26c-3.7,0.81-7.92-2.39-11.1-0.33c-1.95,1.25-2.4,3.86-2.66,6.16
			c-0.446,4-0.9,7.977-1.36,11.93c-0.09,1.402-0.387,2.784-0.88,4.1c-1.57,3.6-5.88,5.29-9.81,5.23c-1.536,0.103-3.05-0.4-4.22-1.4
			c-0.569-0.805-1.18-1.58-1.83-2.32c-5-4.2-6.52,6.07-5.2,9c0.661,1.318,1.48,2.551,2.44,3.67c-1.1-3.3,0.44-12.8,5.32-8.73
			c0.65,0.738,1.258,1.513,1.82,2.32c1.174,0.999,2.691,1.501,4.23,1.4c3.93,0.06,8.24-1.63,9.81-5.23
			c0.494-1.319,0.791-2.704,0.88-4.11c0.453-4,0.907-7.974,1.36-11.92c0.26-2.3,0.71-4.91,2.65-6.16c3.19-2.06,7.41,1.14,11.11,0.32
			C207.843,32.006,209.576,29.286,209.06,26.49L209.06,26.49z"/>
	</g>
	<path id="svg_111" opacity="0.1" enable-background="new    " d="M430.46,90.37c-1.064,0.199-2.158,0.171-3.211-0.08
		c-4.027-0.814-7.654-2.98-10.279-6.14c-1.451-1.76-2.59-4.16-1.711-6.26c0.701-1.69,2.541-2.75,3-4.51
		c0.209-1.074,0.15-2.184-0.17-3.23l-1.08-4.93c-0.309-1.4-0.85-3.05-2.24-3.38c-1.389-0.33-2.549,0.81-3.639,1.67
		c-2.67,2.11-7.801,3.55-11,1.81c-3.201-1.74-2.311-7.52-2.83-10.65c-0.018-0.547-0.273-1.058-0.701-1.4
		c-0.469-0.163-0.971-0.201-1.459-0.11c-1.73,0-3.109-1.55-3.621-3.21c-0.346-1.696-0.537-3.419-0.568-5.15
		c-0.201-1.72-0.82-3.56-2.311-4.45c-1.176-0.553-2.479-0.777-3.77-0.65l-7.42,0.08c-1.83,0-4-0.12-5-1.64s-0.261-3.68,0.79-5.23
		c1.05-1.55,2.38-3.09,2.47-5c0.09-1.91-1.15-3.56-2.16-5.16c-0.579-0.875-1.005-1.842-1.26-2.86l-2.13-0.13
		c-0.83,1.7,0,3.73,1,5.34c1,1.61,2.25,3.26,2.159,5.15c-0.09,1.89-1.42,3.41-2.47,5c-1.05,1.59-1.82,3.67-0.78,5.23
		s3.15,1.67,5,1.65l7.421-0.09c1.293-0.125,2.595,0.103,3.769,0.66c1.49,0.89,2.121,2.73,2.311,4.45
		c0.031,1.731,0.227,3.455,0.58,5.15c0.5,1.65,1.891,3.23,3.619,3.2c0.486-0.086,0.984-0.048,1.451,0.11
		c0.428,0.345,0.684,0.86,0.699,1.41c0.52,3.12-0.439,8.91,2.83,10.65c3.27,1.74,8.371,0.3,11-1.81c1.09-0.86,2.301-2,3.65-1.68
		c1.35,0.32,1.93,2,2.23,3.38l1.09,4.94c0.316,1.047,0.371,2.156,0.16,3.23c-0.5,1.75-2.352,2.82-3.051,4.5
		c-0.869,2.1,0.26,4.51,1.711,6.26c2.643,3.173,6.297,5.341,10.35,6.14c1.053,0.251,2.146,0.278,3.209,0.08
		c1.719-0.524,3.195-1.645,4.16-3.16C431.714,89.929,431.103,90.206,430.46,90.37L430.46,90.37z"/>
	<ellipse id="svg_113" opacity="0.1" fill="#B514AC" enable-background="new    " cx="737.609" cy="467.84" rx="24.17" ry="3.71"/>
	<ellipse id="svg_114" opacity="0.1" fill="#B514AC" enable-background="new    " cx="491.199" cy="617.34" rx="70" ry="10.74"/>
	<ellipse id="svg_115" opacity="0.1" fill="#B514AC" enable-background="new    " cx="690.189" cy="571.84" rx="54.602" ry="8.38"/>
	<path id="svg_131" fill="#B514AC" d="M718.56,432.29c0,0-3.42,15.92,11.789,17.8l0.941-1.77
		C731.291,448.32,719.5,437.229,718.56,432.29z"/>
	<path id="svg_132" fill="#B514AC" d="M736.13,448.189l-3.541,0.75l-0.35,0.08c0,0-9.439-7.66-9.32-24.76
		c1.262,2.521,2.773,4.91,4.51,7.13C731.169,436.34,735.419,442.939,736.13,448.189L736.13,448.189z"/>
	<path id="svg_133" fill="#B514AC" d="M737.32,449.83c-0.563,0.366-1.262,0.458-1.9,0.25c-9.08-2.12-6-31.71-6-31.71
		c0.5,0.229,1,4,3.141,8.859C736.21,435.76,740.24,447.689,737.32,449.83z"/>
	<path id="svg_134" fill="#B514AC" d="M757.46,432.29c0,0,0.59,15.92-14.621,17.8l-0.949-1.8
		C741.89,448.29,756.519,437.229,757.46,432.29z"/>
	<path id="svg_135" fill="#B514AC" d="M753.099,424.29c0.121,17.1-12.139,24.76-12.139,24.76l-0.361-0.08l-3.529-0.75
		c0.699-5.25,5-11.85,8.689-16.8C747.878,428.727,750.347,426.329,753.099,424.29L753.099,424.29z"/>
	<path id="svg_136" fill="#B514AC" d="M740.55,448.29c-0.539,0.664-1.223,1.195-2,1.55l0,0c-0.242,0.108-0.492,0.192-0.75,0.25
		c-2.23,0.52-3-1.09-2.881-3.83c0.211-4.87,3.27-13.32,6-19.65c1.314-3.105,3.256-5.906,5.701-8.229
		C746.621,418.38,746.48,441.41,740.55,448.29z"/>
	<path id="svg_137" fill="#B514AC" d="M738.009,407.99c0,0-10.139,36-1.41,41.38C745.33,454.75,740.25,411.17,738.009,407.99z"/>
	<path id="svg_138" opacity="0.1" enable-background="new    " d="M718.56,432.29c0,0-3.42,15.92,11.789,17.8l0.941-1.77
		C731.291,448.32,719.5,437.229,718.56,432.29z"/>
	<path id="svg_139" opacity="0.1" enable-background="new    " d="M736.13,448.189l-3.541,0.75l-0.35,0.08
		c0,0-9.439-7.66-9.32-24.76c1.262,2.521,2.773,4.91,4.51,7.13C731.169,436.34,735.419,442.939,736.13,448.189L736.13,448.189z"/>
	<path id="svg_140" opacity="0.1" enable-background="new    " d="M737.32,449.83c-0.563,0.366-1.262,0.458-1.9,0.25
		c-9.08-2.12-6-31.71-6-31.71c0.5,0.229,1,4,3.141,8.859C736.21,435.76,740.24,447.689,737.32,449.83z"/>
	<path id="svg_141" opacity="0.1" enable-background="new    " d="M757.46,432.29c0,0,0.59,15.92-14.621,17.8l-0.949-1.8
		C741.89,448.29,756.519,437.229,757.46,432.29z"/>
	<path id="svg_142" opacity="0.1" enable-background="new    " d="M753.099,424.29c0.121,17.1-12.139,24.76-12.139,24.76
		l-0.361-0.08l-3.529-0.75c0.699-5.25,5-11.85,8.689-16.8C747.878,428.727,750.347,426.329,753.099,424.29L753.099,424.29z"/>
	<path id="svg_143" opacity="0.1" enable-background="new    " d="M740.55,448.29c-0.539,0.664-1.223,1.195-2,1.55l0,0
		c-0.242,0.108-0.492,0.192-0.75,0.25c-2.23,0.52-3-1.09-2.881-3.83c0.211-4.87,3.27-13.32,6-19.65
		c1.314-3.105,3.256-5.906,5.701-8.229C746.621,418.38,746.48,441.41,740.55,448.29z"/>
	<path id="svg_144" opacity="0.1" enable-background="new    " d="M738.009,407.99c0,0-10.139,36-1.41,41.38
		C745.33,454.75,740.25,411.17,738.009,407.99z"/>
	<path id="svg_145" fill="#B514AC" d="M718.56,432.29c0,0-2,15.92,13.199,17.8l0.939-1.77
		C732.699,448.32,719.5,437.229,718.56,432.29z"/>
	<path id="svg_146" fill="#B514AC" d="M737.541,448.189l-3.541,0.75l-0.35,0.08c0,0-10.85-7.66-10.76-24.729c0,0,2.779,3,5.92,7.13
		C732.58,436.34,736.83,442.939,737.541,448.189L737.541,448.189z"/>
	<path id="svg_147" opacity="0.1" enable-background="new    " d="M737.541,448.189l-3.541,0.75c-3.35-2.939-4.68-10.619-5.16-17.55
		C732.58,436.34,736.83,442.939,737.541,448.189L737.541,448.189z"/>
	<path id="svg_148" fill="#B514AC" d="M738.74,449.83c-0.566,0.366-1.268,0.458-1.91,0.25c-9.08-2.12-7.42-31.71-7.42-31.71
		c0.5,0.229,2.461,4,4.551,8.859C737.63,435.76,741.65,447.689,738.74,449.83L738.74,449.83z"/>
	<path id="svg_149" fill="#B514AC" d="M757.46,432.29c0,0,2,15.92-13.201,17.8l-0.939-1.77
		C743.32,448.32,756.519,437.229,757.46,432.29z"/>
	<path id="svg_150" fill="#B514AC" d="M753.099,424.29c0.121,17.1-10.729,24.76-10.729,24.76l-0.352-0.08l-3.539-0.75
		c0.699-5.25,5-11.85,8.699-16.8C750.32,427.29,753.099,424.29,753.099,424.29L753.099,424.29z"/>
	<path id="svg_151" opacity="0.1" enable-background="new    " d="M747.179,431.39c-0.459,6.46-1.639,13.57-4.51,16.891
		c-0.195,0.239-0.414,0.46-0.65,0.659l-3.539-0.75C739.179,442.939,743.439,436.34,747.179,431.39z"/>
	<path id="svg_152" fill="#B514AC" d="M741.96,448.29c-0.535,0.667-1.221,1.198-2,1.55l0,0c-0.238,0.107-0.486,0.191-0.74,0.25
		c-2.24,0.52-3-1.09-2.891-3.83c0.221-4.87,3.279-13.32,6-19.65c2-4.55,3.811-8,4.291-8.229
		C746.621,418.37,747.89,441.41,741.96,448.29z"/>
	<path id="svg_153" opacity="0.1" enable-background="new    " d="M738.74,449.83c-0.518,0.006-1.021-0.156-1.439-0.46
		c-4.271-2.66-4.361-12.641-3.34-22.141C737.63,435.76,741.65,447.689,738.74,449.83z"/>
	<path id="svg_154" opacity="0.1" enable-background="new    " d="M741.96,448.29c-0.49,1.069-1.15,1.63-2,1.55l0,0
		c-0.436-0.053-0.852-0.211-1.211-0.46c-1.113-0.762-1.959-1.853-2.42-3.12c0.221-4.87,3.279-13.32,6-19.65
		C743.31,435.38,743.64,444.68,741.96,448.29z"/>
	<path id="svg_155" fill="#B514AC" d="M738.009,407.99c0,0-8.719,36,0,41.38C746.73,454.75,740.25,411.17,738.009,407.99z"/>
	<polygon id="svg_156" fill="#4B4770" points="754.75,447.609 718.439,447.609 718.439,453.62 723.98,453.62 724.121,454.33 
		726.339,466 747.449,466 749.669,454.33 749.8,453.62 754.75,453.62 	"/>
	<polygon id="svg_157" opacity="0.1" enable-background="new    " points="754.75,447.609 718.439,447.609 718.439,453.62 
		723.98,453.62 724.121,454.33 726.339,466 747.449,466 749.669,454.33 749.8,453.62 754.75,453.62 	"/>
	<polygon id="svg_158" fill="#4B4770" points="751.689,451.14 751.08,454.33 748.859,466 727.75,466 725.529,454.33 724.919,451.14 
			"/>
	<polygon id="svg_159" opacity="0.1" enable-background="new    " points="751.689,451.14 751.08,454.33 725.529,454.33 
		724.919,451.14 	"/>
	<rect id="svg_160" x="719.849" y="447.609" fill="#4B4770" width="36.311" height="6.011"/>
</g>
</svg>
