<svg width="768.78" height="634.58" xmlns="http://www.w3.org/2000/svg">
 <defs>
  <linearGradient y2="-0.00003" x2="0.50006" y1="1.00001" x1="0.50006" id="c6e87aad-8151-4bb2-867f-5915ddeef7a8">
   <stop stop-opacity="0.25" stop-color="gray" offset="0"/>
   <stop stop-opacity="0.12" stop-color="gray" offset="0.54"/>
   <stop stop-opacity="0.1" stop-color="gray" offset="1"/>
  </linearGradient>
 </defs>
 <title>business deal</title>
 <g>
  <title>background</title>
  <rect fill="none" id="canvas_background" height="636.58" width="770.78" y="-1" x="-1"/>
 </g>
 <g>
  <title>Layer 1</title>
  <ellipse id="svg_6" opacity="0.1" fill="#b514ac" transform="rotate(-78.44999694824219 -274.87030029296875,1131.9598388671875) " ry="213.77" rx="64.96" cy="1734.91981" cx="577.77969"/>
  <path id="svg_7" fill="#3a3768" d="m464.44969,234.87985s11.37,-55.81 54.78,-50.64c0,0 30,2.06 36.17,21.7l0,43.41l-90.95,-14.47z"/>
  <polygon id="svg_8" fill="#d48a9b" points="702.1796875,255.55984497070312 315.60968017578125,223.50985717773438 265.99969482421875,233.849853515625 269.09967041015625,303.099853515625 272.47967529296875,303.5098571777344 276.3297119140625,407.4998474121094 655.65966796875,475.7098693847656 695.9796752929688,441.5998229980469 695.9796752929688,328.8698425292969 701.1397094726562,325.83984375 702.1796875,255.55984497070312 "/>
  <polygon id="svg_9" opacity="0.05" points="702.69970703125,255.55984497070312 701.65966796875,325.83984375 659.7996826171875,345.4798583984375 659.2797241210938,272.08984375 702.69970703125,255.55984497070312 "/>
  <polygon id="svg_10" opacity="0.05" points="695.9796752929688,328.9398498535156 696.4896850585938,439.5398254394531 656.1796875,473.6498718261719 658.7697143554688,345.4798583984375 695.9796752929688,328.9398498535156 "/>
  <polygon id="svg_11" opacity="0.05" points="270.99969482421875,307.64984130859375 657.0797119140625,354.7598571777344 657.2797241210938,345.8198547363281 270.709716796875,304.1298522949219 270.99969482421875,307.64984130859375 "/>
  <polygon id="svg_12" opacity="0.05" points="695.9796752929688,332.9998474121094 695.9796752929688,328.9398498535156 657.7296752929688,345.8198547363281 657.7296752929688,354.77984619140625 695.9796752929688,332.9998474121094 "/>
  <polygon id="svg_13" fill="#efc6cd" points="265.47967529296875,233.849853515625 315.0897216796875,223.50985717773438 701.65966796875,255.55984497070312 658.2496948242188,272.08984375 265.47967529296875,233.849853515625 "/>
  <polygon id="svg_14" opacity="0.1" points="660.4796752929688,257.5498352050781 679.44970703125,258.78985595703125 648.0097045898438,268.1998596191406 631.9996948242188,267.0498352050781 660.4796752929688,257.5498352050781 "/>
  <polygon id="svg_15" fill="#fff" points="660.4796752929688,256.7198486328125 679.44970703125,257.9598388671875 648.0097045898438,267.3798522949219 631.9996948242188,266.2198486328125 660.4796752929688,256.7198486328125 "/>
  <path id="svg_16" fill="#d3dae1" d="m658.20969,258.84985c0.75,-0.32 1.54,0.29 2.34,0.44c0.46,0.09 0.93,0 1.39,0.09c0.93,0.12 1.85,0.74 2.74,0.43"/>
  <path id="svg_17" fill="#d3dae1" d="m657.22969,259.41985c0.74,-0.32 1.54,0.28 2.34,0.44c0.46,0.08 0.93,0 1.39,0.08c0.93,0.13 1.85,0.75 2.74,0.44"/>
  <path id="svg_18" fill="#d3dae1" d="m654.96969,260.55985c0.75,-0.32 1.55,0.28 2.35,0.43c0.45,0.09 0.93,0 1.38,0.09c0.94,0.13 1.86,0.75 2.74,0.43"/>
  <polygon id="svg_19" opacity="0.1" points="578.4796752929688,248.2098388671875 597.44970703125,249.4598388671875 566.0097045898438,258.8698425292969 549.9996948242188,257.7098388671875 578.4796752929688,248.2098388671875 "/>
  <polygon id="svg_20" fill="#fff" points="578.4796752929688,247.38986206054688 597.44970703125,248.62985229492188 566.0097045898438,258.03985595703125 549.9996948242188,256.8898620605469 578.4796752929688,247.38986206054688 "/>
  <path id="svg_21" fill="#d3dae1" d="m576.20969,249.51985c0.75,-0.32 1.54,0.28 2.34,0.44c0.46,0.08 0.93,0 1.39,0.08c0.93,0.13 1.85,0.75 2.74,0.44"/>
  <path id="svg_22" fill="#d3dae1" d="m575.22969,250.08985c0.74,-0.32 1.54,0.28 2.34,0.43c0.46,0.09 0.93,0 1.39,0.09c0.93,0.13 1.85,0.75 2.74,0.43"/>
  <path id="svg_23" fill="#d3dae1" d="m572.96969,251.21985c0.75,-0.32 1.55,0.29 2.35,0.44c0.45,0.09 0.93,0 1.38,0.09c0.94,0.12 1.86,0.75 2.74,0.43"/>
  <polygon id="svg_24" opacity="0.1" points="617.8096923828125,252.87985229492188 636.7896728515625,254.11984252929688 605.3496704101562,263.53985595703125 589.3297119140625,262.3798522949219 617.8096923828125,252.87985229492188 "/>
  <polygon id="svg_25" fill="#fff" points="617.8096923828125,252.05984497070312 636.7896728515625,253.29983520507812 605.3496704101562,262.7098388671875 589.3297119140625,261.5498352050781 617.8096923828125,252.05984497070312 "/>
  <path id="svg_26" fill="#d3dae1" d="m615.53969,254.18985c0.75,-0.32 1.55,0.28 2.35,0.43c0.45,0.09 0.92,0 1.38,0.09c0.93,0.12 1.86,0.75 2.74,0.43"/>
  <path id="svg_27" fill="#d3dae1" d="m614.55969,254.74985c0.75,-0.32 1.55,0.29 2.35,0.44c0.45,0.09 0.92,0 1.38,0.09c0.93,0.12 1.86,0.75 2.74,0.43"/>
  <path id="svg_28" fill="#d3dae1" d="m612.30969,255.88985c0.74,-0.32 1.54,0.28 2.34,0.44c0.46,0.08 0.93,0 1.39,0.08c0.93,0.13 1.85,0.75 2.74,0.44"/>
  <ellipse id="svg_29" opacity="0.1" fill="#b514ac" ry="41.68" rx="202.48" cy="563.69981" cx="266.31978"/>
  <path id="svg_30" fill="url(#c6e87aad-8151-4bb2-867f-5915ddeef7a8)" d="m488.04978,222.37981c-2.16,-18.98 -10.71,-37.09 -10.71,-37.09l0.65,-6.4s0.14,-3.2 -0.07,-8a36.4,36.4 0 0 1 1.17,-8.88c1.75,-5.55 -2.19,-12.37 -2.63,-13s0.22,-12.8 -3.72,-18.77s-30.18,-17.07 -30.18,-17.07s-1.41,-2.95 -3.4,-6.4l0.18,-0.35a37.6,37.6 0 0 0 -6,-8.09c-1.61,-1.72 -3.16,-2.7 -4.41,-2.22a36,36 0 0 1 -1.16,-5.07c0.26,0.07 0.53,0.14 0.79,0.19a8.16,8.16 0 0 0 3.3,0.08c2.44,-0.55 4.06,-2.74 5.42,-4.8c6.78,-10.3 12.62,-21.6 13.81,-33.79a21.48,21.48 0 0 0 -0.35,-7.46a25.17,25.17 0 0 0 -2.34,-5.45a43.8,43.8 0 0 0 -6.6,-9.73c-4.67,-4.92 -11.11,-7.93 -17.73,-9.71a61.38,61.38 0 0 0 -22.9,-1.71c-2,0.23 -4,0.56 -6,0.69a62.32,62.32 0 0 1 -7.61,-0.13l-13.09,-0.76l-0.06,-0.2l-2.18,-0.13c-0.86,1.71 0,3.74 1.07,5.34s2.3,3.27 2.21,5.16s-1.46,3.41 -2.53,5s-1.88,3.67 -0.81,5.23a3,3 0 0 0 0.53,0.58c1.13,1.17 3.1,1.3 4.81,1.28l0.3,0a32.57,32.57 0 0 0 -6.63,19.72a33.16,33.16 0 0 0 18.09,29.38c0.19,0.65 0.38,1.32 0.56,2a61.26,61.26 0 0 1 2.1,21.62l-0.23,0.5l-0.14,-0.53s-15.42,10.46 -20,13.23s-9.18,12.16 -9.4,14.72s-7.44,41.17 -7.44,41.17a94.59,94.59 0 0 0 -3.62,11.92l-9.21,8.09s-19,1.71 -24.5,0.43l0.16,1.06a83.09,83.09 0 0 0 -14.76,-2a15.65,15.65 0 0 0 -8,1.07l-0.19,0.09l-0.15,0.07a31.7,31.7 0 0 0 -8.4,2.36c-0.32,0.13 -0.61,0.26 -0.89,0.39l0.06,-1.31l-20.56,-1.06l-10.5,-2.13s-3.72,-3 -5.91,-2.56s-6.78,-2.56 -6.78,-2.56a18.33,18.33 0 0 0 -3.38,-2.1c-0.35,-2.42 -0.57,-3.89 -0.57,-3.89s-8.17,-32.42 -14.29,-51.48c-4.1,-12.73 -10,-19 -13.48,-21.73c-1.55,-2.7 -2.57,-4.44 -2.57,-4.44c-0.67,-2.34 -4.35,-7.61 -5.29,-7.74c-0.15,-0.24 -0.26,-0.36 -0.32,-0.36a1.17,1.17 0 0 0 -0.59,0.09c-1.72,-8.56 -2.72,-19.29 -0.09,-28.64a31.61,31.61 0 0 0 11.54,-24.36c0,-0.14 0,-0.28 0,-0.42s0,-0.29 0,-0.43a31.47,31.47 0 0 0 -7.43,-20.3l-0.34,-0.38a2.65,2.65 0 0 0 0.26,-0.21a5.36,5.36 0 0 0 1.89,-5.16c-0.45,-1.92 -1.95,-3.43 -2.72,-5.25a34,34 0 0 1 -1.11,-4.28a13.2,13.2 0 0 0 -3.15,-5.49l0.15,0.4c-3.92,-4.41 -10.66,-6.6 -16.73,-5.62c-4.51,0.72 -8.71,2.82 -13.24,3.47c-3.25,0.46 -6.56,0.16 -9.83,0.49a25.51,25.51 0 0 0 -8.72,2.52a5,5 0 0 0 -1.85,1.36a7.32,7.32 0 0 0 -0.92,2.57c-1.11,4.05 -4.63,6.94 -7.18,10.32a24.15,24.15 0 0 0 -4.84,13.34a10.44,10.44 0 0 0 0.35,3.65c0.22,0.71 0.56,1.38 0.72,2.1c0.5,2.2 -0.65,4.39 -1.21,6.57a12.79,12.79 0 0 0 0.71,8.34c3.95,8.84 16.92,11.79 19.62,21.07a25.81,25.81 0 0 0 6.49,2c0.18,0.92 0.34,1.85 0.47,2.79a0.75,0.75 0 0 0 -0.17,0.1c-3.5,3.41 -4.37,10 -4.37,10l-0.42,0.34c-1.43,1.18 -6.32,5.14 -10.74,8.19c-5.25,3.63 -14,15.79 -20.12,19.42s-11.16,26 -9.84,34.13s6.78,30.93 4.59,39.25s3.28,46.29 3.28,46.29a55.91,55.91 0 0 1 10.72,3.18l-0.11,1.66l-0.33,5s-9.91,35.84 -6.12,63.43s-1.75,30.43 -1.75,30.43s1.16,12.23 -1.75,16.5s-3.5,13.65 -3.5,13.65s-0.29,21.05 0.29,27s0.87,16.79 -1.17,19.35s-5.83,19.33 -5.54,24.45s-7.29,16.79 -3.21,31.86s-12,15.36 -12,15.36s2.05,23 6.42,29.58l0.64,0.94c-0.11,0.38 -0.22,0.78 -0.34,1.21c-1.65,6 -3.91,15.47 -2.34,17.76c2.33,3.42 3.5,2.84 3.5,2.84l0.87,15.36s17.5,14.79 30.92,14.23s10.79,-14.23 10.79,-14.23l-11.43,-29.64l-0.39,-1l12.7,-24s3.5,-10.52 4.37,-14.22s5.62,-16.81 5.62,-16.81s12,-28.44 12.25,-31.86s1.17,-21.89 3.5,-25.6s8.75,-25 8.75,-25l0.16,0.14a8.43,8.43 0 0 1 2.18,8.39c-1.47,5.4 -0.59,16.49 -0.59,16.49s-0.58,9.39 -1.75,14.23s-1.45,44.37 0.59,53.75c1.63,7.51 1.58,21.57 1.5,26.89c-1.37,5.65 -2.57,12.67 -0.34,13.5c3.8,1.43 23.05,1.14 23.05,1.14s8.16,-2.85 19.25,7.11s45.2,-2.84 45.2,-2.84s10.5,-2.85 -10.21,-11.09c-14.45,-5.75 -23.78,-9.58 -29.88,-13.68c0.14,-0.27 0.29,-0.54 0.42,-0.83c0,0 -8.46,-8 -1.46,-22.18s6.71,-26.17 6.71,-26.17l1.17,-47.79l-3.5,-63.44l-2.71,-66.58l0.48,-0.16c0.46,12.24 2.85,41.38 15.36,35.73c15.75,-7.11 2.33,-25.6 2.33,-25.6l-7.07,-13.78l2.11,-0.72l-7.91,-25.56a57.65,57.65 0 0 1 -0.3,-15.07a59.71,59.71 0 0 0 -0.18,-8.8c10.36,-1.81 20.28,-3.73 22.06,-3.29c2.1,0.51 13.85,0.61 18.47,0.63c-1.51,1.18 -2.72,2.35 -2.72,2.35l18.81,12.66s6.38,-3.49 7.71,-7.19a8.3,8.3 0 0 0 3.52,-1.88c0.2,4.37 1.36,9.1 5.4,9.21a7,7 0 0 0 2.94,-0.58l30.76,-6.09l-2.64,16.49l1.84,3.27c-0.93,13.91 -2,28.68 -2.94,41.67l-0.43,2.84l0.22,0.05c-1.46,20 -2.63,35.15 -2.63,35.15a18.43,18.43 0 0 1 7.67,-7.71l0.2,29.68s1.54,46.93 1.54,53.33s0.21,20.69 0.21,20.69s3.29,17.49 5.25,23.25s3.5,32 3.5,32s4.6,7.25 2.63,10s7.66,8.74 7.66,8.74s-6.13,8.32 -6.57,13.87c-0.05,0.64 0.58,1.32 1.72,2c-0.36,0.29 -0.73,0.58 -1.14,0.86c-2.84,1.9 -7,3.22 -13.26,2.68c-17.07,-1.5 -29.1,14.29 -18.6,17.49s42,3.84 42,3.84s9.54,-5.95 17,-3.27c-0.11,6.26 0.2,12 0.25,12.76l-0.09,0.07c-4.46,4 -13,10.88 -21.34,13.69c-12,4.05 -14.66,20.48 0.87,22.61s38.28,-2.56 38.28,-2.56s11.81,-8.74 20.78,-10.66s16.63,-6.19 15.1,-11.31c-1,-3.27 -3.57,-11.84 -5.31,-17.6q-0.15,-0.52 -0.3,-1c0.27,-0.6 0.54,-1.22 0.79,-1.86c0,0 -4.59,-23.89 -0.87,-29.86s1.75,-65.71 1.75,-65.71s-6.35,-15.14 -3.06,-24.31s-5.25,-22.19 -5.25,-22.19s0.93,-26.09 3.43,-40.63q0.17,-0.93 0.33,-1.8a81.92,81.92 0 0 0 12.2,-4.71s2.19,-32.86 3.5,-40.32c0.13,-0.7 0.31,-1.83 0.53,-3.3l1,-5.27l0,0l1.18,-6l0,0l4,-20.45l7.22,-9.34l18.6,-19s4.47,-10.04 2.28,-29.03zm-286.84,-117.33l-0.14,0.1a1.74,1.74 0 0 1 -0.05,-0.22a0.9,0.9 0 0 0 0.19,0.12zm183.77,23.29l-0.72,1.57l2.63,-2.62l-3.57,4l1.2,-2.52l0.46,-0.43zm-17.76,36.7c-0.69,1.83 -1.43,3.81 -2.2,5.87l1.41,-4.21l0.79,-1.66z"/>
  <path id="svg_31" fill="#585b8a" d="m309.82978,224.86981s-2.45,16.31 4.9,16.52s12.26,-12.58 12.26,-12.58l-3,-10.23l-14.16,6.29z"/>
  <path id="svg_32" opacity="0.2" d="m309.82978,224.86981s-2.45,16.31 4.9,16.52s12.26,-12.58 12.26,-12.58l-3,-10.23l-14.16,6.29z"/>
  <path id="svg_33" fill="#636992" d="m145.19978,577.90981c-13.08,0.57 -30.14,-14.21 -30.14,-14.21l-0.85,-15.35s-1.13,0.57 -3.41,-2.84c-1.53,-2.29 0.67,-11.78 2.28,-17.75c0.78,-2.92 1.42,-5 1.42,-5l28.7,7.68l1.37,3.63l11.14,29.62s2.56,13.65 -10.51,14.22z"/>
  <path id="svg_34" fill="#636992" d="m277.06978,534.42981s-33.25,12.79 -44,2.84s-18.76,-7.11 -18.76,-7.11s-18.76,0.29 -22.46,-1.14c-2.18,-0.83 -1,-7.94 0.36,-13.6c0.92,-3.91 1.92,-7.14 1.92,-7.14s32.68,-11.09 37.8,-4.27a24.51,24.51 0 0 0 5.45,5.2c5.92,4.28 15.17,8.16 29.8,14.13c20.12,8.24 9.89,11.09 9.89,11.09z"/>
  <path id="svg_35" fill="#ffd6d6" d="m247.22978,274.63981l9.09,18.19s13.08,18.48 -2.27,25.58s-15.06,-40.92 -15.06,-40.92l8.24,-2.85z"/>
  <path id="svg_36" fill="#dce6f2" d="m209.13978,116.89981s9.95,4.55 15.92,23.59s13.93,51.45 13.93,51.45s5.4,36.66 4.54,45.76a59,59 0 0 0 0.29,15.06l7.67,25.58l-15.35,5.4l-23.59,-90.38l-3.41,-76.46z"/>
  <path id="svg_37" opacity="0.05" d="m209.13978,116.89981s9.95,4.55 15.92,23.59s13.93,51.45 13.93,51.45s5.4,36.66 4.54,45.76a59,59 0 0 0 0.29,15.06l7.67,25.58l-15.35,5.4l-23.59,-90.38l-3.41,-76.46z"/>
  <path id="svg_38" opacity="0.1" d="m143.19978,530.44981l1.37,3.63l-1.68,3.21c-6.54,2.84 -22.74,0.57 -22.74,0.57s-3,-3.81 -7.1,-10.08c0.78,-2.92 1.42,-5 1.42,-5l28.73,7.67z"/>
  <path id="svg_39" opacity="0.1" d="m238.41978,510.54981c-8.29,18.78 -36.47,11.81 -44.3,9.46c-1.29,-0.39 -2,-0.65 -2,-0.65s0.05,-1.53 0.07,-3.94c0.92,-3.91 1.92,-7.14 1.92,-7.14s32.68,-11.09 37.8,-4.27a24.51,24.51 0 0 0 5.45,5.2a9.64,9.64 0 0 0 1.06,1.34z"/>
  <path id="svg_40" fill="#565988" d="m236.98978,486.67981c-6.82,14.2 1.43,22.17 1.43,22.17c-8.29,18.77 -36.47,11.81 -44.3,9.45c-1.29,-0.38 -2,-0.64 -2,-0.64s0.57,-19.62 -1.42,-29s-1.71,-48.88 -0.57,-53.71s1.7,-14.22 1.7,-14.22s-0.85,-11.08 0.57,-16.48a8.51,8.51 0 0 0 -2.12,-8.38l-0.15,-0.15s-6.25,21.32 -8.53,25s-3.12,22.17 -3.41,25.58s-11.94,31.84 -11.94,31.84s-4.54,13.07 -5.39,16.76s-4.27,14.22 -4.27,14.22l-13.7,26.44c-6.54,2.84 -22.74,0.57 -22.74,0.57s-3.12,-4 -7.39,-10.52s-6.25,-29.55 -6.25,-29.55s15.63,-0.29 11.65,-15.35s3.41,-26.72 3.13,-31.84s3.41,-21.88 5.4,-24.44s1.7,-13.36 1.13,-19.33s-0.28,-27 -0.28,-27s0.57,-9.38 3.41,-13.64s1.71,-16.49 1.71,-16.49s5.39,-2.84 1.7,-30.41s6,-63.38 6,-63.38l0.33,-5l0.52,-8.1s81.29,-5.12 87.83,1.13a21.56,21.56 0 0 1 4.15,5.95a59.2,59.2 0 0 1 4.7,15.13l3.41,86.12l3.41,63.38l-1.14,47.75s0.25,11.92 -6.58,26.14z"/>
  <path id="svg_41" opacity="0.1" d="m212.88978,316.70981l-8.53,184.74l-10.24,16.84c-1.29,-0.38 -2,-0.64 -2,-0.64s0.57,-19.62 -1.42,-29s-1.71,-48.88 -0.57,-53.71s1.7,-14.22 1.7,-14.22s-0.85,-11.08 0.57,-16.48a8.51,8.51 0 0 0 -2.12,-8.38l0.14,-1l22.47,-78.15z"/>
  <path id="svg_42" opacity="0.1" d="m121.02978,515.09981s22.17,-8.81 25.58,-6s-26.14,7.1 -26.14,7.1l0.56,-1.1z"/>
  <path id="svg_43" opacity="0.1" d="m230.45978,491.78981c-0.85,0.29 -22.45,8 -20.46,16.2s20.46,-16.2 20.46,-16.2z"/>
  <path id="svg_44" fill="#ffd6d6" d="m162.95978,71.28981s7.24,17.48 3.41,26.44s41.35,24.3 41.35,24.3s-13.21,-34.11 -0.42,-53.3s-44.34,2.56 -44.34,2.56z"/>
  <path id="svg_45" fill="#505484" d="m427.49978,577.33981c-8.74,1.92 -20.25,10.66 -20.25,10.66s-22.17,4.69 -37.31,2.56s-12.57,-18.55 -0.85,-22.6c8.13,-2.8 16.46,-9.71 20.81,-13.67c1.92,-1.77 3.06,-3 3.06,-3l42.43,-8.53s0.69,2.37 1.65,5.64c1.7,5.77 4.21,14.33 5.17,17.59c1.49,5.17 -5.97,9.43 -14.71,11.35z"/>
  <path id="svg_46" fill="#505484" d="m416.62978,544.50981s-17.91,1.92 -25.37,-2.34s-18.12,2.56 -18.12,2.56s-30.7,-0.64 -40.93,-3.84s1.49,-19 18.12,-17.48c6.06,0.55 10.16,-0.78 12.93,-2.68a13.62,13.62 0 0 0 5.63,-8.44l36,2.13l5,12.76l6.74,17.33z"/>
  <path id="svg_47" opacity="0.1" d="m410.43978,532.99981s-41.84,-6.84 -47.18,-12.27a13.62,13.62 0 0 0 5.63,-8.44l36,2.13l5,12.76l0.55,5.82z"/>
  <path id="svg_48" fill="#575988" d="m348.40978,293.61981l0.43,62.45s1.49,46.9 1.49,53.3s0.21,20.67 0.21,20.67s3.2,17.48 5.12,23.24s3.41,32 3.41,32s4.48,7.25 2.56,10s7.46,8.74 7.46,8.74s-6,8.32 -6.39,13.86s47.74,13.41 47.74,13.41l-18.75,-192.27l-14.93,-48.17l-28.35,2.77z"/>
  <path id="svg_49" opacity="0.1" d="m348.40978,293.61981l0.43,62.45s1.49,46.9 1.49,53.3s0.21,20.67 0.21,20.67s3.2,17.48 5.12,23.24s3.41,32 3.41,32s4.48,7.25 2.56,10s7.46,8.74 7.46,8.74s-6,8.32 -6.39,13.86s47.74,13.41 47.74,13.41l-18.75,-192.27l-14.93,-48.17l-28.35,2.77z"/>
  <path id="svg_50" opacity="0.1" d="m437.03978,548.44981c-13.93,33.21 -47.06,7.58 -47.06,7.58s0,-0.64 -0.08,-1.74c1.92,-1.77 3.06,-3 3.06,-3l42.43,-8.53s0.69,2.42 1.65,5.69z"/>
  <path id="svg_51" fill="#575988" d="m437.51978,545.57981c-13.65,35 -47.54,8.74 -47.54,8.74s-1.07,-18.12 1.07,-26.43s-2.35,-33.26 -2.35,-33.26s-2.56,-22.17 -4.9,-27.28s-2.13,-15.35 -2.13,-16.2s0.85,-7.68 -1.07,-12.37s-3,-16.2 -3,-16.2s0,-16.2 -1.92,-25.79l-6.61,-33l-11.94,-67.58l3.73,-0.64l66.83,-11.72s12.58,64 8.31,70.56c-0.92,1.44 -1.73,4.59 -2.4,8.65c-2.44,14.52 -3.35,40.59 -3.35,40.59s8.31,13 5.12,22.17s3,24.3 3,24.3s1.92,59.69 -1.71,65.66s0.86,29.8 0.86,29.8z"/>
  <path id="svg_52" fill="#d28690" d="m431.11978,109.22981s-60.54,42.63 -46.9,21.31c7.35,-11.48 6,-26.1 3.12,-37.14a87.64,87.64 0 0 0 -6,-16.29s51.44,-21.88 44.62,-2.27a36.74,36.74 0 0 0 -2,14.24a38,38 0 0 0 7.16,20.15z"/>
  <path id="svg_53" fill="#d28690" d="m322.11978,206.85981s-25.58,-7.39 -29.84,-0.14s1.28,23.16 9,25.72s25.44,-8.67 25.44,-8.67l-4.6,-16.91z"/>
  <path id="svg_54" fill="#585b8a" d="m351.39978,194.28981l-10.66,9.81s-18.55,1.7 -23.88,0.42c0,0 4.91,32.83 -2.13,36.88l43.06,-8.74l-6.39,-38.37z"/>
  <path id="svg_55" opacity="0.1" d="m351.39978,194.28981l-10.66,9.81s-18.55,1.7 -23.88,0.42c0,0 4.91,32.83 -2.13,36.88l43.06,-8.74l-6.39,-38.37z"/>
  <path id="svg_56" opacity="0.1" d="m214.53978,53.37981a32,32 0 0 1 -32,32c-16.42,-7.89 -32,-14.31 -32,-32a32,32 0 1 1 63.95,0l0.05,0z"/>
  <path id="svg_57" fill="#ffd6d6" d="m214.53978,52.51981a31.94,31.94 0 1 1 -7.24,-20.23a32,32 0 0 1 7.24,20.23z"/>
  <path id="svg_58" opacity="0.1" d="m233.18978,248.18981a72.32,72.32 0 0 1 -9.91,5.14s-16.2,-2.35 -18.54,0.42s-23,3.84 -23,3.84s-31.55,-1.49 -36.24,-5.54a19.2,19.2 0 0 0 -4.79,-2.84l0.52,-8.1s81.29,-5.12 87.83,1.13a21.56,21.56 0 0 1 4.13,5.95z"/>
  <path id="svg_59" fill="#dce6f2" d="m237.13978,242.45981c-0.64,3.62 -13.86,9.16 -13.86,9.16s-16.2,-2.34 -18.54,0.43s-23,3.84 -23,3.84s-31.55,-1.5 -36.24,-5.55s-15.14,-6 -15.14,-6s-5.33,-37.94 -3.19,-46.25s-3.2,-31.13 -4.48,-39.23s3.62,-30.48 9.59,-34.1s14.5,-15.78 19.61,-19.4c4.31,-3.05 9.07,-7 10.46,-8.19l0.41,-0.34s0.86,-6.61 4.27,-10s34.74,21.53 34.74,21.53s0.22,1.92 2.35,-1.7c0.48,-0.81 4.61,5.15 5.33,7.67c0,0 17.05,29.85 18.12,36s5.54,26.22 6.39,31.12c0.22,1.26 0.58,5.68 1,11.6c0.08,1.16 0.15,2.39 0.24,3.67c0.63,9.82 1.31,22.36 1.72,31.84c0,1.08 0.09,2.12 0.12,3.12a106.15,106.15 0 0 1 0.1,10.78z"/>
  <path id="svg_60" opacity="0.1" d="m128.88978,165.49981s11.72,14.28 15.56,14.28s-15.56,-14.28 -15.56,-14.28z"/>
  <path id="svg_61" opacity="0.1" d="m153.57978,196.19981s-19.19,20.89 -16.63,24.73s16.63,-24.73 16.63,-24.73z"/>
  <path id="svg_62" opacity="0.1" d="m139.50978,237.76981s22,-24.09 23,-32.4l-23,32.4z"/>
  <path id="svg_63" opacity="0.1" d="m167.21978,239.46981s25.37,-13.43 27.5,-24.09s-27.5,24.09 -27.5,24.09z"/>
  <path id="svg_64" opacity="0.1" d="m199.40978,109.86981l-3.52,8.52l5.86,2.77l5.76,16.1s15.88,31.76 15.24,48.28s2.88,41.35 2.88,41.35l9.16,-1.7l-4.32,-48.59a70.09,70.09 0 0 0 -5.58,-21.81c-7.32,-16.76 -20.94,-47.7 -21.8,-47.7c-1.17,0 -0.35,0.43 -0.35,0.43l-3.33,2.35z"/>
  <path id="svg_65" fill="#575989" d="m200.25978,109.00981l-3.52,8.53l5.87,2.77l5.75,16.1s15.88,31.76 15.24,48.28s2.88,41.35 2.88,41.35l9.17,-1.7l-4.33,-48.59a69.82,69.82 0 0 0 -5.57,-21.81c-7.32,-16.77 -20.94,-47.7 -21.79,-47.7c-1.18,0 -0.36,0.43 -0.36,0.43l-3.34,2.34z"/>
  <path id="svg_66" fill="#ffd6d6" d="m304.06978,234.28981c-4.46,-0.34 -15.16,-5.75 -19.41,-8l-1.8,-1l0.22,-16.51a29,29 0 0 1 3.26,-1.65c5.68,-2.48 17.33,-5.85 23.17,5c7.88,14.55 0.21,22.54 -5.44,22.16z"/>
  <path id="svg_67" opacity="0.1" d="m207.29978,32.28981a4.73,4.73 0 0 1 -1.49,0.61c-3.71,0.81 -7.93,-2.38 -11.11,-0.33c-1.94,1.26 -2.39,3.87 -2.65,6.17q-0.68,6 -1.36,11.92a14.71,14.71 0 0 1 -0.88,4.11c-1.57,3.59 -5.88,5.28 -9.81,5.22a5.85,5.85 0 0 1 -4.23,-1.4c-0.69,-0.7 -1.06,-1.68 -1.82,-2.32c-5,-4.19 -6.52,6.08 -5.2,9c2.12,4.77 9.65,9.37 6.49,15.43a5.78,5.78 0 0 1 -2.32,2.33a32,32 0 1 1 34.38,-50.74z"/>
  <path id="svg_68" fill="#353045" d="m173.09978,56.22981c0.75,0.63 1.13,1.61 1.82,2.31a5.86,5.86 0 0 0 4.23,1.4c3.93,0.06 8.24,-1.62 9.8,-5.23a14.24,14.24 0 0 0 0.89,-4.1l1.36,-11.92c0.26,-2.3 0.7,-4.91 2.65,-6.17c3.18,-2 7.4,1.14 11.11,0.33a5.43,5.43 0 0 0 4,-6.26c-0.43,-1.91 -1.89,-3.42 -2.64,-5.24a34.24,34.24 0 0 1 -1.09,-4.27c-2.07,-7.76 -11.18,-12.12 -19.1,-10.82c-4.4,0.73 -8.49,2.83 -12.9,3.47c-3.16,0.46 -6.39,0.16 -9.58,0.5a24.18,24.18 0 0 0 -8.5,2.51a4.94,4.94 0 0 0 -1.8,1.36a7.51,7.51 0 0 0 -0.9,2.56c-1.07,4 -4.51,6.95 -7,10.32a24.59,24.59 0 0 0 -4.74,13.31a10.67,10.67 0 0 0 0.34,3.65c0.21,0.7 0.54,1.38 0.7,2.1c0.49,2.19 -0.63,4.38 -1.18,6.56a13.12,13.12 0 0 0 0.7,8.34c3.84,8.83 16.49,11.78 19.12,21.05a21,21 0 0 0 7.44,2c2.58,0.05 5.36,-1.06 6.56,-3.35c3.15,-6 -4.37,-10.66 -6.49,-15.42c-1.33,-2.93 0.16,-13.19 5.2,-8.99z"/>
  <path id="svg_69" opacity="0.1" d="m426.00978,74.83981a36.74,36.74 0 0 0 -2,14.24c-1.54,1.31 -3.22,-2.61 -5,-1.6c-4.88,2.82 -10.52,9.53 -16.56,9.53a33.17,33.17 0 0 1 -15.07,-3.61a87.64,87.64 0 0 0 -6,-16.29s51.45,-21.88 44.63,-2.27z"/>
  <path id="svg_70" fill="#d28690" d="m435.66978,62.04981a33.26,33.26 0 1 1 -33.26,-33.26a33.25,33.25 0 0 1 33.26,33.26z"/>
  <path id="svg_71" fill="#f0f3f7" d="m434.24978,116.61981s-6.26,6.82 -7.11,7.38s-19,77 -19.32,77.89s-21.61,69.91 -21.61,69.91l-34.11,16.77l2.85,-84.42l25,-69.62s8.25,-9.38 10.8,-12.79s34.39,-23.88 34.39,-23.88l5.44,11.21l3.67,7.55z"/>
  <path id="svg_72" opacity="0.1" d="m429.73978,110.77981l-39.22,28.08l-0.63,-15.42c2.56,-3.41 34.39,-23.87 34.39,-23.87l5.46,11.21z"/>
  <path id="svg_73" fill="#f0f3f7" d="m430.58978,109.06981l-39.22,28.08l-0.61,-15.41c2.56,-3.42 34.39,-23.88 34.39,-23.88l5.44,11.21z"/>
  <path id="svg_74" fill="#585b8a" d="m389.44978,114.87981l1.31,6.86l-8.77,8.91l7,-15.67s-15,10.45 -19.5,13.22s-9,12.15 -9.17,14.71s-7.25,41.14 -7.25,41.14s-5.33,14.28 -3.83,18.33s-8.1,131.74 -8.1,131.74a19,19 0 0 1 12.82,-9.83l-3.42,-75.46s4.16,-50.2 4.37,-50.84s9.7,-29.74 9.7,-29.74l24.84,-53.37z"/>
  <path id="svg_75" opacity="0.1" d="m391.61978,122.58981l-0.68,14s-9.49,29.95 -12.68,34.85s-12.9,34.11 -12.9,34.11l-5.47,50.74l-9.38,4.27l-4.62,-8.51l7.68,-49s14.49,-41.35 16.63,-45.62l10.69,-22.52l10.73,-12.32z"/>
  <path id="svg_76" fill="#663d5c" d="m390.75978,121.73981l-0.67,14s-9.49,29.95 -12.69,34.85s-12.89,34.11 -12.89,34.11l-5.44,50.73l-9.38,4.26l-4.69,-8.52l7.68,-49s14.49,-41.36 16.62,-45.62l10.77,-22.49l10.69,-12.32z"/>
  <path id="svg_77" fill="#d28690" d="m280.19978,228.59981l18.33,12.69s12.93,-7.25 5.4,-11.94s-14.21,-5.4 -16.63,-5.4s-7.1,4.65 -7.1,4.65z"/>
  <path id="svg_78" fill="#d28690" d="m293.88978,205.13981a2.82,2.82 0 0 0 -1.33,2.41c0,3.89 0.44,14.19 3.7,9.54c4,-5.69 3.27,-10.8 9.38,-7.11a36,36 0 0 1 9.8,9l-1.7,-12.22s-12.56,-6.2 -19.85,-1.62z"/>
  <path id="svg_79" opacity="0.1" d="m436.01978,354.36981c-0.92,1.44 -1.73,4.59 -2.4,8.65c-37.38,11.21 -64.73,-12.49 -64.73,-12.49a326.27,326.27 0 0 1 -8.1,-34.1c-0.67,-3.94 -0.52,-11.58 0.1,-20.9l66.83,-11.72s12.57,63.95 8.3,70.56z"/>
  <path id="svg_80" fill="#585b8a" d="m474.38978,163.57981c-1.7,5.55 -1.06,16.84 -1.06,16.84l-15.35,72.48s-7.46,55.85 -8.74,63.31s-3.41,40.29 -3.41,40.29c-43.49,21.32 -77,-7.67 -77,-7.67a326.8,326.8 0 0 1 -8.1,-34.11c-2.14,-12.66 4.16,-63.38 7.14,-85.91c0.89,-6.67 1.49,-10.87 1.49,-10.87l11.19,-41.57s13.75,-35.07 18.87,-45.3s25.68,-33.21 25.68,-33.21c2.55,-1.62 6.63,4.1 9.66,9.31c2.29,3.94 4,7.6 4,7.6s25.58,11.08 29.41,17s3.2,18.12 3.63,18.76s4.3,7.51 2.59,13.05z"/>
  <path id="svg_81" opacity="0.1" d="m414.06978,137.78981s1.92,11.3 -3,14.71c-4.75,3.3 -40.11,72.83 -42.31,77.17c0.89,-6.68 1.49,-10.88 1.49,-10.88l11.19,-41.56s13.76,-35.07 18.87,-45.31s25.69,-33.21 25.69,-33.21c2.55,-1.62 6.62,4.1 9.65,9.31c-4.57,9.49 -14.1,27.43 -21.58,29.77z"/>
  <path id="svg_82" fill="#585b8a" d="m413.21978,136.93981s1.91,11.3 -3,14.71s-40.1,72.82 -42.33,77.16c0.89,-6.67 1.49,-10.87 1.49,-10.87l11.19,-41.57s13.75,-35.07 18.87,-45.3s25.68,-33.21 25.68,-33.21c2.55,-1.62 6.63,4.1 9.66,9.31c-4.55,9.48 -14.09,27.43 -21.56,29.77z"/>
  <polygon id="svg_83" fill="#b514ac" points="463.94976806640625,239.0498046875 451.91973876953125,301.63983154296875 451.91973876953125,301.6498107910156 450.769775390625,307.63983154296875 450.769775390625,307.6498107910156 448.17974853515625,321.11981201171875 437.1297607421875,318.7798156738281 431.979736328125,317.6898193359375 360.70977783203125,302.5898132324219 355.4697265625,301.4798278808594 343.509765625,298.9498291015625 345.8497314453125,283.4098205566406 346.81976318359375,276.9498291015625 355.44976806640625,219.64981079101562 463.94976806640625,239.0498046875 "/>
  <path id="svg_84" fill="#d28690" d="m397.43978,290.20981s-28.35,10.23 -22.17,22.38s45.83,-9.38 45.83,-9.38l-23.66,-13z"/>
  <path id="svg_85" opacity="0.1" d="m417.68978,377.38981c0,0.85 1.07,11.73 5.33,15.56s-5.33,-15.56 -5.33,-15.56z"/>
  <path id="svg_86" opacity="0.1" d="m389.12978,415.96981s5.11,14.07 25.36,19.83s-25.36,-19.83 -25.36,-19.83z"/>
  <path id="svg_87" opacity="0.1" d="m435.66978,62.04981a33.25,33.25 0 0 1 -16.67,28.83a17.7,17.7 0 0 1 -5,-4.17c-1.45,-1.76 -2.58,-4.16 -1.71,-6.26c0.7,-1.69 2.55,-2.76 3,-4.51a6.64,6.64 0 0 0 -0.16,-3.22c-0.37,-1.65 -0.72,-3.3 -1.08,-4.94c-0.31,-1.4 -0.86,-3.05 -2.25,-3.39s-2.55,0.82 -3.64,1.68c-2.67,2.11 -7.79,3.54 -11,1.81s-2.31,-7.52 -2.83,-10.65a1.86,1.86 0 0 0 -0.7,-1.41a2.92,2.92 0 0 0 -1.45,-0.1c-1.73,0 -3.12,-1.55 -3.62,-3.21a27.63,27.63 0 0 1 -0.58,-5.15c-0.19,-1.73 -0.82,-3.56 -2.3,-4.45a7.11,7.11 0 0 0 -3.79,-0.62l-6.27,0.07a33.26,33.26 0 0 1 60,19.72l0.05,-0.03z"/>
  <path id="svg_88" fill="#663d5c" d="m409.04978,66.06981c1.09,-0.86 2.29,-2 3.64,-1.67s1.93,2 2.24,3.38l1.08,4.93a6.7,6.7 0 0 1 0.17,3.23c-0.51,1.76 -2.35,2.82 -3.06,4.51c-0.87,2.1 0.27,4.5 1.71,6.25a18,18 0 0 0 10.29,6.15a7.56,7.56 0 0 0 3.21,0.07c2.38,-0.55 4,-2.74 5.28,-4.79c6.61,-10.3 12.3,-21.59 13.46,-33.77a21.66,21.66 0 0 0 -0.34,-7.45a25,25 0 0 0 -2.28,-5.45a44,44 0 0 0 -6.43,-9.73c-4.55,-4.9 -10.83,-7.91 -17.28,-9.69a58.52,58.52 0 0 0 -22.31,-1.75c-2,0.23 -3.92,0.56 -5.89,0.69a59.28,59.28 0 0 1 -7.42,-0.12l-14.72,-0.88c-0.84,1.71 0,3.74 1,5.34s2.24,3.26 2.16,5.16s-1.43,3.4 -2.47,5s-1.83,3.67 -0.79,5.23s3.16,1.66 5,1.64l7.42,-0.08a7.09,7.09 0 0 1 3.77,0.65c1.48,0.89 2.11,2.73 2.3,4.45a29.43,29.43 0 0 0 0.58,5.15c0.51,1.66 1.89,3.23 3.62,3.21a2.7,2.7 0 0 1 1.45,0.11a1.84,1.84 0 0 1 0.7,1.4c0.52,3.13 -0.44,8.91 2.83,10.65s8.41,0.29 11.08,-1.82z"/>
  <path id="svg_89" opacity="0.1" d="m451.31978,131.75981a16.3,16.3 0 0 0 -17.15,10.95c-4,11.39 -10.67,31.94 -9,40.06c2.35,11.51 5.12,30.7 5.12,30.7s12.15,7 6,14.06s-7.89,17.06 -7.89,17.06s-7.89,3.41 -9.59,10.66s-13.22,17.26 -13.22,17.26l-17.26,17.27s28.56,29 34.32,30.48l17.69,-20.68l20.89,-27.71l18.12,-19s4.26,-10 2.13,-29s-10.45,-37.09 -10.45,-37.09l0.64,-6.4s1.96,-45.85 -20.35,-48.62z"/>
  <path id="svg_90" fill="#585b8a" d="m453.01978,131.75981a16.3,16.3 0 0 0 -17.13,10.95c-4,11.39 -10.67,31.94 -9,40.06c2.34,11.51 5.11,30.7 5.11,30.7s12.15,7 6,14.06s-7.88,17.06 -7.88,17.06s-7.89,3.41 -9.6,10.66s-13.21,17.26 -13.21,17.26l-17.27,17.27s28.56,29 34.32,30.48l17.69,-20.68l20.84,-27.71l18.12,-19s4.27,-10 2.13,-29s-10.44,-37.09 -10.44,-37.09l0.64,-6.4s1.99,-45.85 -20.32,-48.62z"/>
  <path id="svg_91" opacity="0.1" d="m435.16978,196.62981s18.12,22.16 25.8,17.26s-25.8,-17.26 -25.8,-17.26z"/>
  <path id="svg_92" opacity="0.1" d="m441.98978,179.56981c1.92,0.64 17.7,22.6 25.8,20s-25.8,-20 -25.8,-20z"/>
  <path id="svg_93" opacity="0.1" d="m446.46978,217.28981s1.07,12.58 14.07,10.87s-14.07,-10.87 -14.07,-10.87z"/>
  <polygon id="svg_94" opacity="0.1" points="389.019775390625,115.82980346679688 381.98974609375,131.49981689453125 390.769775390625,122.58981323242188 389.019775390625,115.82980346679688 "/>
  <polygon id="svg_95" fill="#f0f3f7" points="389.019775390625,114.97982788085938 381.98974609375,130.64981079101562 390.769775390625,121.73980712890625 389.019775390625,114.97982788085938 "/>
  <polygon id="svg_96" opacity="0.3" points="360.70977783203125,302.5898132324219 355.4697265625,301.4798278808594 345.8497314453125,283.4098205566406 346.81976318359375,276.9498291015625 360.70977783203125,302.5898132324219 "/>
  <polygon id="svg_97" opacity="0.3" points="451.91973876953125,301.6498107910156 450.769775390625,307.63983154296875 450.769775390625,307.6498107910156 437.1297607421875,318.7798156738281 431.979736328125,317.6898193359375 451.91973876953125,301.6498107910156 "/>
  <path id="svg_98" opacity="0.1" d="m237.00978,231.71981c-2.64,0.44 -5.2,0.84 -7.54,1.14c-13,1.71 -43.92,-13.64 -43.92,-13.64s-37.73,-31.55 -48.6,-61.39s13,-34.32 13,-34.32c9,-5.12 28.57,9.16 31.34,11.51s5.12,8.31 4.9,12.15s6.4,8.74 6.4,8.74s11.3,19.61 14.07,21.74s3.41,4.05 4.26,7.68s8.31,6.61 11.51,6.39s7,1.07 7,2.77c0,1.37 3.13,2.05 5.7,2.27c0.76,10.93 1.51,25.25 1.88,34.96z"/>
  <path id="svg_99" opacity="0.1" d="m236.88978,228.59981c-2,0.32 -3.92,0.61 -5.72,0.85c-13,1.71 -43.91,-13.64 -43.91,-13.64s-37.73,-31.55 -48.6,-61.39s13,-34.32 13,-34.32c9,-5.12 28.56,9.16 31.33,11.51s5.12,8.31 4.91,12.15s6.39,8.74 6.39,8.74s11.3,19.61 14.07,21.74s3.41,4.05 4.27,7.68s8.31,6.6 11.51,6.39s7,1.07 7,2.77c0,1 1.78,1.67 3.76,2c0.08,1.16 0.15,2.39 0.24,3.67c0.66,9.83 1.34,22.37 1.75,31.85z"/>
  <path id="svg_100" opacity="0.1" d="m286.33978,207.12981l-0.81,19.16l-0.87,0l-1.8,-1l0.22,-16.51a29,29 0 0 1 3.26,-1.65z"/>
  <path id="svg_101" fill="#dce6f2" d="m149.94978,121.79981s-23.87,4.48 -13,34.32s48.6,61.4 48.6,61.4s30.91,15.34 43.92,13.64s32.82,-6.18 35.38,-5.54s19.83,0.64 19.83,0.64l0.85,-20l-20,-1.07l-10.23,-2.13s-3.63,-3 -5.76,-2.56s-6.6,-2.56 -6.6,-2.56s-3.42,-2.77 -6,-2.77s-7.46,-0.64 -7.46,-2.34s-3.84,-3 -7,-2.77s-10.71,-2.77 -11.59,-6.44s-1.49,-5.54 -4.26,-7.67s-14.07,-21.75 -14.07,-21.75s-6.61,-4.9 -6.4,-8.73s-2.13,-9.81 -4.9,-12.16s-22.37,-16.62 -31.31,-11.51z"/>
  <path id="svg_102" opacity="0.1" d="m211.34978,190.43981s-9.17,9.17 -6.83,10.87l6.83,-10.87z"/>
  <path id="svg_103" opacity="0.1" d="m221.14978,197.68981s-11.94,9.17 -8.74,9.81s8.74,-9.81 8.74,-9.81z"/>
  <path id="svg_104" opacity="0.1" d="m200.88978,211.28981c1.71,0.86 27.07,16 36.67,15.78l-36.67,-15.78z"/>
  <path id="svg_105" opacity="0.1" d="m202.60978,110.07981s-4.48,14.71 -6.19,14.71c-1.34,0 -23.84,-18.22 -33.23,-25.88l0.41,-0.34s0.85,-6.61 4.26,-10s34.75,21.51 34.75,21.51z"/>
  <path id="svg_106" fill="#dce6f2" d="m201.74978,108.36981s-4.47,14.71 -6.18,14.71c-1.35,0 -23.85,-18.22 -33.24,-25.88l0.41,-0.34s0.86,-6.61 4.27,-10s34.74,21.51 34.74,21.51z"/>
  <g id="svg_107" opacity="0.15">
   <path id="svg_108" d="m141.37978,60.82981l0,0c3,6.85 11.26,10.17 16.05,15.63c-2.85,-6.71 -11.18,-10 -16.05,-15.63z"/>
   <path id="svg_109" d="m171.94978,76.60981c-1.19,2.29 -4,3.4 -6.56,3.35a19.14,19.14 0 0 1 -6.58,-1.68a12.79,12.79 0 0 1 1.7,3.62a20.9,20.9 0 0 0 7.44,2c2.59,0.06 5.37,-1.05 6.56,-3.35c1.91,-3.65 -0.08,-6.77 -2.41,-9.72a6.35,6.35 0 0 1 -0.15,5.78z"/>
   <path id="svg_110" d="m209.05978,26.48981c-0.43,-1.92 -1.89,-3.43 -2.64,-5.24a32.72,32.72 0 0 1 -1.09,-4.28a13.26,13.26 0 0 0 -3.07,-5.49a12.76,12.76 0 0 1 0.51,1.51a34.39,34.39 0 0 0 1.12,4.3c0.75,1.81 2.21,3.32 2.64,5.24a5.43,5.43 0 0 1 -4,6.26c-3.7,0.81 -7.92,-2.39 -11.1,-0.33c-1.95,1.25 -2.4,3.86 -2.66,6.16q-0.67,6 -1.36,11.93a14.3,14.3 0 0 1 -0.88,4.1c-1.57,3.6 -5.88,5.29 -9.81,5.23a5.89,5.89 0 0 1 -4.22,-1.4a27.87,27.87 0 0 0 -1.83,-2.32c-5,-4.2 -6.52,6.07 -5.2,9a18.12,18.12 0 0 0 2.44,3.67c-1.1,-3.3 0.44,-12.8 5.32,-8.73a25.82,25.82 0 0 1 1.82,2.32a5.93,5.93 0 0 0 4.23,1.4c3.93,0.06 8.24,-1.63 9.81,-5.23a14.3,14.3 0 0 0 0.88,-4.11q0.68,-6 1.36,-11.92c0.26,-2.3 0.71,-4.91 2.65,-6.16c3.19,-2.06 7.41,1.14 11.11,0.32a5.42,5.42 0 0 0 3.97,-6.23z"/>
  </g>
  <path id="svg_111" opacity="0.1" d="m430.45978,90.36981a7.73,7.73 0 0 1 -3.21,-0.08a18,18 0 0 1 -10.28,-6.14c-1.45,-1.76 -2.59,-4.16 -1.71,-6.26c0.7,-1.69 2.54,-2.75 3,-4.51a6.7,6.7 0 0 0 -0.17,-3.23l-1.08,-4.93c-0.31,-1.4 -0.85,-3.05 -2.24,-3.38s-2.55,0.81 -3.64,1.67c-2.67,2.11 -7.8,3.55 -11,1.81s-2.31,-7.52 -2.83,-10.65a1.87,1.87 0 0 0 -0.7,-1.4a2.85,2.85 0 0 0 -1.46,-0.11c-1.73,0 -3.11,-1.55 -3.62,-3.21a28.39,28.39 0 0 1 -0.57,-5.15c-0.2,-1.72 -0.82,-3.56 -2.31,-4.45a7.19,7.19 0 0 0 -3.77,-0.65l-7.42,0.08c-1.83,0 -4,-0.12 -5,-1.64s-0.26,-3.68 0.79,-5.23s2.38,-3.09 2.47,-5s-1.15,-3.56 -2.16,-5.16a9.25,9.25 0 0 1 -1.26,-2.86l-2.13,-0.13c-0.83,1.7 0,3.73 1,5.34s2.25,3.26 2.16,5.15s-1.42,3.41 -2.47,5s-1.82,3.67 -0.78,5.23s3.15,1.67 5,1.65l7.42,-0.09a7.18,7.18 0 0 1 3.77,0.66c1.49,0.89 2.12,2.73 2.31,4.45a27.63,27.63 0 0 0 0.58,5.15c0.5,1.65 1.89,3.23 3.62,3.2a2.93,2.93 0 0 1 1.45,0.11a1.88,1.88 0 0 1 0.7,1.41c0.52,3.12 -0.44,8.91 2.83,10.65s8.37,0.3 11,-1.81c1.09,-0.86 2.3,-2 3.65,-1.68s1.93,2 2.23,3.38l1.09,4.94a6.69,6.69 0 0 1 0.16,3.23c-0.5,1.75 -2.35,2.82 -3.05,4.5c-0.87,2.1 0.26,4.51 1.71,6.26a18,18 0 0 0 10.35,6.14a7.73,7.73 0 0 0 3.21,0.08a7.54,7.54 0 0 0 4.16,-3.16a5.56,5.56 0 0 1 -1.8,0.82z"/>
  <ellipse id="svg_112" opacity="0.1" fill="#b514ac" ry="3.71" rx="24.17" cy="508.29979" cx="45.68985"/>
  <ellipse id="svg_113" opacity="0.1" fill="#b514ac" ry="3.71" rx="24.17" cy="467.83985" cx="737.60969"/>
  <ellipse id="svg_114" opacity="0.1" fill="#b514ac" ry="10.74" rx="70" cy="617.33985" cx="491.19969"/>
  <ellipse id="svg_115" opacity="0.1" fill="#b514ac" ry="8.38" rx="54.6" cy="571.83985" cx="690.18969"/>
  <path id="svg_118" fill="#b514ac" d="m46.78985,390.13979s2.74,3.58 -1.26,9s-7.3,10 -6,13.34c0,0 6,-10 11,-10.18s1.67,-6.12 -3.74,-12.16z"/>
  <path id="svg_119" opacity="0.1" d="m46.78985,390.13979a4,4 0 0 1 0.56,1.12c4.8,5.64 7.35,10.89 2.74,11c-4.29,0.12 -9.44,7.8 -10.67,9.74a3.73,3.73 0 0 0 0.14,0.44s6,-10 11,-10.18s1.64,-6.08 -3.77,-12.12z"/>
  <path id="svg_120" fill="#ffd037" d="m51.88985,394.69979c0,1.26 -0.15,2.28 -0.32,2.28s-0.32,-1 -0.32,-2.28s0.18,-0.66 0.35,-0.66s0.29,-0.6 0.29,0.66z"/>
  <path id="svg_121" fill="#ffd037" d="m53.62985,396.20979c-1.1,0.6 -2.07,1 -2.15,0.81s0.74,-0.76 1.85,-1.37s0.67,-0.16 0.75,0s0.66,-0.05 -0.45,0.56z"/>
  <path id="svg_122" fill="#b514ac" d="m32.32985,390.13979s-2.74,3.58 1.26,9s7.31,10 6,13.34c0,0 -6,-10 -10.95,-10.18s-1.75,-6.12 3.69,-12.16z"/>
  <path id="svg_123" opacity="0.1" d="m32.32985,390.13979a4.41,4.41 0 0 0 -0.56,1.12c-4.8,5.64 -7.35,10.89 -2.74,11c4.29,0.12 9.44,7.8 10.68,9.74a3.81,3.81 0 0 1 -0.15,0.44s-6,-10 -10.95,-10.18s-1.72,-6.08 3.72,-12.12z"/>
  <path id="svg_124" fill="#ffd037" d="m27.23985,394.69979c0,1.26 0.14,2.28 0.31,2.28s0.32,-1 0.32,-2.28s-0.18,-0.66 -0.35,-0.66s-0.28,-0.6 -0.28,0.66z"/>
  <path id="svg_125" fill="#ffd037" d="m25.48985,396.20979c1.11,0.6 2.07,1 2.16,0.81s-0.75,-0.76 -1.86,-1.37s-0.67,-0.16 -0.75,0s-0.66,-0.05 0.45,0.56z"/>
  <ellipse id="svg_126" opacity="0.1" fill="#b514ac" ry="4.39" rx="28.63" cy="435.46979" cx="39.55985"/>
  <path id="svg_127" fill="#65617d" d="m54.29985,407.63979l-0.14,1.12l-0.19,1.58l-0.08,0.66l-0.19,1.58l-0.09,0.66l-0.19,1.58l-2.19,18c-0.19,1.6 -2.81,2.85 -6,2.85l-11.34,0c-3.16,0 -5.78,-1.25 -6,-2.85l-2.19,-18l-0.19,-1.58l-0.08,-0.66l-0.2,-1.58l-0.08,-0.66l-0.19,-1.58l-0.14,-1.12c-0.11,-0.91 1.31,-1.67 3.1,-1.67l23.29,0c1.78,0 3.2,0.76 3.09,1.67z"/>
  <polygon id="svg_128" fill="#9d9cb5" points="54.159881591796875,408.7597961425781 53.969879150390625,410.3398132324219 25.149871826171875,410.3398132324219 24.959869384765625,408.7597961425781 54.159881591796875,408.7597961425781 "/>
  <polygon stroke="null" id="svg_129" fill="#9d9cb5" points="53.889892578125,410.9997863769531 53.699859619140625,412.5798034667969 25.42987060546875,412.5798034667969 25.2298583984375,410.9997863769531 53.889892578125,410.9997863769531 "/>
  <polygon id="svg_130" fill="#9d9cb5" points="53.619873046875,413.2397766113281 53.419891357421875,414.8197937011719 25.699859619140625,414.8197937011719 25.509857177734375,413.2397766113281 53.619873046875,413.2397766113281 "/>
  <path id="svg_131" fill="#b514ac" d="m718.55969,432.28985s-3.42,15.92 11.79,17.8l0.94,-1.77s-11.79,-11.09 -12.73,-16.03z"/>
  <path id="svg_132" fill="#b514ac" d="m736.12969,448.18985l-3.54,0.75l-0.35,0.08s-9.44,-7.66 -9.32,-24.76a42.22,42.22 0 0 0 4.51,7.13c3.74,4.95 7.99,11.55 8.7,16.8z"/>
  <path id="svg_133" fill="#b514ac" d="m737.31969,449.82985a2.22,2.22 0 0 1 -1.9,0.25c-9.08,-2.12 -6,-31.71 -6,-31.71c0.5,0.23 1,4 3.14,8.86c3.65,8.53 7.68,20.46 4.76,22.6z"/>
  <path id="svg_134" fill="#b514ac" d="m757.45969,432.28985s0.59,15.92 -14.62,17.8l-0.95,-1.8s14.63,-11.06 15.57,-16z"/>
  <path id="svg_135" fill="#b514ac" d="m753.09969,424.28985c0.12,17.1 -12.14,24.76 -12.14,24.76l-0.36,-0.08l-3.53,-0.75c0.7,-5.25 5,-11.85 8.69,-16.8a38.47,38.47 0 0 1 7.34,-7.13z"/>
  <path id="svg_136" fill="#b514ac" d="m740.54969,448.28985a5.52,5.52 0 0 1 -2,1.55l0,0a3.89,3.89 0 0 1 -0.75,0.25c-2.23,0.52 -3,-1.09 -2.88,-3.83c0.21,-4.87 3.27,-13.32 6,-19.65a24.56,24.56 0 0 1 5.7,-8.23s-0.14,23.03 -6.07,29.91z"/>
  <path id="svg_137" fill="#b514ac" d="m738.00969,407.98985s-10.14,36 -1.41,41.38s3.65,-38.2 1.41,-41.38z"/>
  <path id="svg_138" opacity="0.1" d="m718.55969,432.28985s-3.42,15.92 11.79,17.8l0.94,-1.77s-11.79,-11.09 -12.73,-16.03z"/>
  <path id="svg_139" opacity="0.1" d="m736.12969,448.18985l-3.54,0.75l-0.35,0.08s-9.44,-7.66 -9.32,-24.76a42.22,42.22 0 0 0 4.51,7.13c3.74,4.95 7.99,11.55 8.7,16.8z"/>
  <path id="svg_140" opacity="0.1" d="m737.31969,449.82985a2.22,2.22 0 0 1 -1.9,0.25c-9.08,-2.12 -6,-31.71 -6,-31.71c0.5,0.23 1,4 3.14,8.86c3.65,8.53 7.68,20.46 4.76,22.6z"/>
  <path id="svg_141" opacity="0.1" d="m757.45969,432.28985s0.59,15.92 -14.62,17.8l-0.95,-1.8s14.63,-11.06 15.57,-16z"/>
  <path id="svg_142" opacity="0.1" d="m753.09969,424.28985c0.12,17.1 -12.14,24.76 -12.14,24.76l-0.36,-0.08l-3.53,-0.75c0.7,-5.25 5,-11.85 8.69,-16.8a38.47,38.47 0 0 1 7.34,-7.13z"/>
  <path id="svg_143" opacity="0.1" d="m740.54969,448.28985a5.52,5.52 0 0 1 -2,1.55l0,0a3.89,3.89 0 0 1 -0.75,0.25c-2.23,0.52 -3,-1.09 -2.88,-3.83c0.21,-4.87 3.27,-13.32 6,-19.65a24.56,24.56 0 0 1 5.7,-8.23s-0.14,23.03 -6.07,29.91z"/>
  <path id="svg_144" opacity="0.1" d="m738.00969,407.98985s-10.14,36 -1.41,41.38s3.65,-38.2 1.41,-41.38z"/>
  <path id="svg_145" fill="#b514ac" d="m718.55969,432.28985s-2,15.92 13.2,17.8l0.94,-1.77s-13.2,-11.09 -14.14,-16.03z"/>
  <path id="svg_146" fill="#b514ac" d="m737.53969,448.18985l-3.54,0.75l-0.35,0.08s-10.85,-7.66 -10.76,-24.73c0,0 2.78,3 5.92,7.13c3.77,4.92 8.02,11.52 8.73,16.77z"/>
  <path id="svg_147" opacity="0.1" d="m737.53969,448.18985l-3.54,0.75c-3.35,-2.94 -4.68,-10.62 -5.16,-17.55c3.74,4.95 7.99,11.55 8.7,16.8z"/>
  <path id="svg_148" fill="#b514ac" d="m738.73969,449.82985a2.24,2.24 0 0 1 -1.91,0.25c-9.08,-2.12 -7.42,-31.71 -7.42,-31.71c0.5,0.23 2.46,4 4.55,8.86c3.67,8.53 7.69,20.46 4.78,22.6z"/>
  <path id="svg_149" fill="#b514ac" d="m757.45969,432.28985s2,15.92 -13.2,17.8l-0.94,-1.77s13.2,-11.09 14.14,-16.03z"/>
  <path id="svg_150" fill="#b514ac" d="m753.09969,424.28985c0.12,17.1 -10.73,24.76 -10.73,24.76l-0.35,-0.08l-3.54,-0.75c0.7,-5.25 5,-11.85 8.7,-16.8c3.14,-4.13 5.92,-7.13 5.92,-7.13z"/>
  <path id="svg_151" opacity="0.1" d="m747.17969,431.38985c-0.46,6.46 -1.64,13.57 -4.51,16.89a5.08,5.08 0 0 1 -0.65,0.66l-3.54,-0.75c0.7,-5.25 4.96,-11.85 8.7,-16.8z"/>
  <path id="svg_152" fill="#b514ac" d="m741.95969,448.28985a5.41,5.41 0 0 1 -2,1.55l0,0a4,4 0 0 1 -0.74,0.25c-2.24,0.52 -3,-1.09 -2.89,-3.83c0.22,-4.87 3.28,-13.32 6,-19.65c2,-4.55 3.81,-8 4.29,-8.23c0,-0.01 1.27,23.03 -4.66,29.91z"/>
  <path id="svg_153" opacity="0.1" d="m738.73969,449.82985a2.4,2.4 0 0 1 -1.44,-0.46c-4.27,-2.66 -4.36,-12.64 -3.34,-22.14c3.67,8.53 7.69,20.46 4.78,22.6z"/>
  <path id="svg_154" opacity="0.1" d="m741.95969,448.28985c-0.49,1.07 -1.15,1.63 -2,1.55l0,0a2.69,2.69 0 0 1 -1.21,-0.46a6.46,6.46 0 0 1 -2.42,-3.12c0.22,-4.87 3.28,-13.32 6,-19.65c0.98,8.77 1.31,18.07 -0.37,21.68z"/>
  <path id="svg_155" fill="#b514ac" d="m738.00969,407.98985s-8.72,36 0,41.38s2.24,-38.2 0,-41.38z"/>
  <polygon id="svg_156" fill="#4b4770" points="754.7496948242188,447.6098327636719 718.4396362304688,447.6098327636719 718.4396362304688,453.6198425292969 723.9796752929688,453.6198425292969 724.1196899414062,454.3298645019531 726.3396606445312,465.9998474121094 747.4496459960938,465.9998474121094 749.6697387695312,454.3298645019531 749.7997436523438,453.6198425292969 754.7496948242188,453.6198425292969 754.7496948242188,447.6098327636719 "/>
  <polygon id="svg_157" opacity="0.1" points="754.7496948242188,447.6098327636719 718.4396362304688,447.6098327636719 718.4396362304688,453.6198425292969 723.9796752929688,453.6198425292969 724.1196899414062,454.3298645019531 726.3396606445312,465.9998474121094 747.4496459960938,465.9998474121094 749.6697387695312,454.3298645019531 749.7997436523438,453.6198425292969 754.7496948242188,453.6198425292969 754.7496948242188,447.6098327636719 "/>
  <polygon id="svg_158" fill="#4b4770" points="751.6896362304688,451.1398620605469 751.0796508789062,454.3298645019531 748.8596801757812,465.9998474121094 727.7496948242188,465.9998474121094 725.5297241210938,454.3298645019531 724.9197387695312,451.1398620605469 751.6896362304688,451.1398620605469 "/>
  <polygon id="svg_159" opacity="0.1" points="751.6896362304688,451.1398620605469 751.0796508789062,454.3298645019531 725.5297241210938,454.3298645019531 724.9197387695312,451.1398620605469 751.6896362304688,451.1398620605469 "/>
  <rect id="svg_160" fill="#4b4770" height="6.01" width="36.31" y="447.60985" x="719.84969"/>
 </g>
</svg>