<svg width="214.52999999999997" height="740.44" xmlns="http://www.w3.org/2000/svg">

 <title>businessman</title>
 <g>
  <title>background</title>
  <rect fill="none" id="canvas_background" height="742.44" width="216.53" y="-1" x="-1"/>
 </g>
 <g>
  <title>Layer 1</title>
  <path id="svg_79" fill="#b514ac" d="m206.52606,19.82824s-84.19,-5.11 -74.27,53.89c0,0 -2,10.43 7.48,15.17c0,0 0.15,-4.38 8.64,-2.89a39.41,39.41 0 0 0 9.14,0.44a19.08,19.08 0 0 0 11.17,-4.59l0,0s23.67,-9.77 32.87,-48.46c0,0 6.81,-8.44 6.54,-10.61l-14.21,6.07s4.86,10.25 1,18.77c0,0 -0.46,-18.4 -3.19,-18c-0.56,0.09 -7.39,3.55 -7.39,3.55s8.36,17.86 2.05,30.83c0,0 2.4,-22 -4.65,-29.54l-10,5.84s9.77,18.44 3.15,33.49c0,0 1.7,-23.08 -5.25,-32.07l-9.06,7.07s9.17,18.18 3.58,30.66c0,0 -0.73,-26.87 -5.55,-28.9c0,0 -7.92,7 -9.13,9.86c0,0 6.28,13.2 2.38,20.16c0,0 -2.39,-17.9 -4.35,-18c0,0 -7.9,11.86 -8.72,20c0,0 0.34,-12.1 6.81,-21.13c0,0 -7.64,1.31 -12.1,6.27c0,0 1.23,-8.39 14,-9.12c0,0 6.52,-9 8.27,-9.55c0,0 -12.75,-1.06 -20.48,2.36c0,0 6.81,-7.91 22.82,-4.31l9,-7.3s-16.79,-2.3 -23.9,0.24c0,0 8.19,-7 26.31,-1.9l9.74,-5.83s-14.31,-3.08 -22.83,-2c0,0 9,-4.85 25.68,0.41l7,-3.13s-10.48,-2.06 -13.55,-2.38s-3.24,-1.18 -3.24,-1.18a36.39,36.39 0 0 1 19.7,2.19s14.8,-5.49 14.54,-6.38z"/>
  <path id="svg_80" fill="#b514ac" d="m41.41606,6.51824s-38,-2.29 -33.56,24.37c0,0 -0.89,4.71 3.38,6.85c0,0 0.07,-2 3.9,-1.31a17.05,17.05 0 0 0 4.14,0.2a8.62,8.62 0 0 0 5,-2.08l0,0s10.69,-4.42 14.85,-21.9c0,0 3.08,-3.81 3,-4.79l-6.44,2.74s2.19,4.63 0.47,8.48c0,0 -0.21,-8.31 -1.45,-8.12c-0.25,0 -3.33,1.61 -3.33,1.61s3.77,8.07 0.92,13.93c0,0 1.09,-9.94 -2.1,-13.35l-4.51,2.64s4.41,8.33 1.42,15.13c0,0 0.77,-10.43 -2.37,-14.49l-4.09,3.2s4.14,8.21 1.61,13.85c0,0 -0.33,-12.14 -2.5,-13.06c0,0 -3.58,3.16 -4.13,4.46c0,0 2.84,6 1.08,9.11c0,0 -1.08,-8.09 -2,-8.13c0,0 -3.57,5.36 -3.94,9a19.4,19.4 0 0 1 3.08,-9.54a10.72,10.72 0 0 0 -5.47,2.83s0.56,-3.79 6.35,-4.12c0,0 2.95,-4.07 3.74,-4.31c0,0 -5.76,-0.49 -9.26,1.06c0,0 3.08,-3.57 10.31,-2l4,-3.3s-7.59,-1 -10.8,0.11c0,0 3.7,-3.16 11.88,-0.86l4.41,-2.63s-6.47,-1.39 -10.32,-0.89c0,0 4.06,-2.19 11.61,0.18l3.14,-1.41s-4.73,-0.93 -6.12,-1.08s-1.46,-0.53 -1.46,-0.53a16.51,16.51 0 0 1 8.9,1s6.78,-2.43 6.66,-2.85z"/>
  <ellipse id="svg_86" fill="#b514ac" ry="6.8" rx="40.21" cy="729.63824" cx="131.58606"/>
  <path id="svg_87" fill="#b514ac" d="m148.20606,718.51824a11.68,11.68 0 0 0 3.83,-5.78c0.5,-2.3 -0.48,-5 -2.68,-5.89c-2.46,-0.94 -5.09,0.76 -7.08,2.48s-4.28,3.69 -6.89,3.33a10.5,10.5 0 0 0 3.25,-9.82a4.13,4.13 0 0 0 -0.91,-2c-1.36,-1.46 -3.84,-0.83 -5.47,0.32c-5.2,3.66 -6.65,10.72 -6.68,17.08c-0.52,-2.3 -0.08,-4.69 -0.1,-7s-0.65,-5 -2.64,-6.22a8,8 0 0 0 -4,-0.95c-2.34,-0.08 -4.94,0.15 -6.53,1.86c-2,2.12 -1.47,5.69 0.25,8s4.35,3.8 6.77,5.42a14.89,14.89 0 0 1 4.83,4.61a3.83,3.83 0 0 1 0.36,0.82l14.66,0a40.9,40.9 0 0 0 9.03,-6.26z"/>
 </g>
</svg>