<?xml version="1.0" encoding="utf-8"?>
<!-- Generator: Adobe Illustrator 16.0.0, SVG Export Plug-In . SVG Version: 6.00 Build 0)  -->
<!DOCTYPE svg PUBLIC "-//W3C//DTD SVG 1.1//EN" "http://www.w3.org/Graphics/SVG/1.1/DTD/svg11.dtd">
<svg version="1.1" id="Layer_1" xmlns="http://www.w3.org/2000/svg" xmlns:xlink="http://www.w3.org/1999/xlink" x="0px" y="0px"
	 width="32px" height="32px" viewBox="0 0 32 32" enable-background="new 0 0 32 32" xml:space="preserve">
<title>envelop</title>
<path fill="#DD77D7" d="M29,4H3C1.35,4,0,5.35,0,7v20c0,1.65,1.35,3,3,3h26c1.65,0,3-1.35,3-3V7C32,5.35,30.65,4,29,4z
	 M12.461,17.199L4,23.789V8.113L12.461,17.199z M5.512,8h20.976L16,15.875L5.512,8z M12.79,17.553L16,21l3.21-3.447L25.79,26H6.211
	L12.79,17.553L12.79,17.553z M19.539,17.199L28,8.113v15.676L19.539,17.199z"/>
</svg>
