<svg width="417.67538" height="286.94856" xmlns="http://www.w3.org/2000/svg">

 <g>
  <title>background</title>
  <rect fill="none" id="canvas_background" height="288.94856" width="419.67538" y="-1" x="-1"/>
 </g>
 <g>
  <title>Layer 1</title>
  <path id="svg_50" fill="#ccc" d="m246.06997,188.48227c0,-7.732 -29.10156,-14 -65,-14s-65,6.268 -65,14c0,4.95545 11.96436,9.30622 30,11.79432l0,76.70568a6.5,6.5 0 0 0 13,0l0,-75.324c6.87207,0.53241 14.27686,0.824 22,0.824s15.12793,-0.29162 22,-0.824l0,75.324a6.5,6.5 0 0 0 13,0l0,-76.70568c18.03565,-2.4881 30,-6.83887 30,-11.79432z"/>
  <polygon id="svg_51" fill="#a0616a" points="233.56298828125,270.906005859375 245.822998046875,270.906005859375 251.65499877929688,223.61801147460938 233.56100463867188,223.61801147460938 233.56298828125,270.906005859375 "/>
  <path id="svg_52" fill="#2f2e41" transform="rotate(179.99737548828125 816.0962524414062,952.6917724609375) " d="m1362.69469,1623.12002l38.53073,0a0,0 0 0 1 0,0l0,14.88687a0,0 0 0 1 0,0l-23.64387,0a14.88686,14.88686 0 0 1 -14.88686,-14.88686l0,0a0,0 0 0 1 0,-0.00001z"/>
  <polygon id="svg_53" fill="#a0616a" points="252.70098876953125,264.0639953613281 264.39801025390625,260.39300537109375 255.80599975585938,213.52801513671875 238.5419921875,218.94500732421875 252.70098876953125,264.0639953613281 "/>
  <path id="svg_54" fill="#2f2e41" transform="rotate(162.57737731933594 1027.68798828125,722.8760375976561) " d="m1593.84042,1381.29992l38.53073,0a0,0 0 0 1 0,0l0,14.88687a0,0 0 0 1 0,0l-23.64388,0a14.88686,14.88686 0 0 1 -14.88686,-14.88686l0,0a0,0 0 0 1 0.00001,-0.00001z"/>
  <path id="svg_55" fill="#2f2e41" d="m244.49881,242.29872l-22.42725,-58.87109c-5.03149,1.18164 -47.22656,10.51855 -61.35889,-4.52832c-4.84326,-5.15723 -5.78784,-12.62891 -2.80761,-22.208l8.24756,-10.36426l0.25634,0.01367c3.11841,0.16406 76.43531,4.27344 81.46119,26.38867c4.23754,18.64454 11.97656,53.40528 14.24731,63.61524a4.51573,4.51573 0 0 1 -2.814,5.18359l-9.01928,3.38184a4.46228,4.46228 0 0 1 -1.572,0.28613a4.51293,4.51293 0 0 1 -4.21337,-2.89747z"/>
  <path id="svg_56" fill="#2f2e41" d="m231.49881,249.29872l-22.42725,-58.87109c-5.03174,1.18164 -47.22656,10.51757 -61.35889,-4.52832c-4.84326,-5.15723 -5.78784,-12.62891 -2.80761,-22.208l8.24756,-10.36426l0.25634,0.01367c3.11841,0.16406 76.43531,4.27344 81.46119,26.38867c4.23754,18.64454 11.97656,53.40528 14.24731,63.61524a4.51573,4.51573 0 0 1 -2.814,5.18359l-9.01928,3.38184a4.46228,4.46228 0 0 1 -1.572,0.28613a4.51293,4.51293 0 0 1 -4.21337,-2.89747z"/>
  <path id="svg_57" fill="#a0616a" d="m261.80694,108.17619a10.52657,10.52657 0 0 0 -0.88488,1.40152l-49.32026,5.19623l-7.09959,-9.734l-16.09071,8.79449l13.94447,23.62125l60.48739,-15.42252a10.49579,10.49579 0 1 0 -1.03642,-13.857l0,0.00003z"/>
  <path id="svg_58" fill="#b514ac" d="m144.58792,166.7997a4.50694,4.50694 0 0 1 -1.81861,-4.34864c2.78248,-18.34277 -0.41894,-44.61914 -3.59472,-63.43261a24.79543,24.79543 0 0 1 27.55932,-28.76172a79.86459,79.86459 0 0 1 9.91285,1.9541l0,0a24.59626,24.59626 0 0 1 18.582,24.46777c-0.47486,18.1543 3.21142,40.80567 4.81836,49.70117a4.51862,4.51862 0 0 1 -0.83374,3.51075a4.39229,4.39229 0 0 1 -3.09546,1.75c-17.80811,1.81738 -37.01221,10.50195 -46.87451,15.5166a4.50062,4.50062 0 0 1 -2.04956,0.501a4.42884,4.42884 0 0 1 -2.60593,-0.85842z"/>
  <path id="svg_59" fill="#b514ac" d="m192.65869,119.48817a4.47083,4.47083 0 0 1 -2.47363,-2.39746l-9.9314,-22.94238a11.49973,11.49973 0 1 1 21.10718,-9.13574l9.93164,22.94238a4.5057,4.5057 0 0 1 -2.342,5.917l-12.8479,5.56153a4.46857,4.46857 0 0 1 -3.44385,0.05468l-0.00004,-0.00001z"/>
  <path id="svg_60" fill="#a0616a" d="m214.80694,106.17619a10.52657,10.52657 0 0 0 -0.88488,1.40152l-49.32026,5.19623l-7.09959,-9.734l-16.09071,8.79449l13.94447,23.62125l60.48739,-15.42252a10.49579,10.49579 0 1 0 -1.03642,-13.857l0,0.00003z"/>
  <path id="svg_61" fill="#b514ac" d="m145.65869,120.48817a4.47083,4.47083 0 0 1 -2.47363,-2.39746l-9.9314,-22.94238a11.49973,11.49973 0 1 1 21.10718,-9.13574l9.93164,22.94238a4.5057,4.5057 0 0 1 -2.342,5.917l-12.8479,5.56153a4.46857,4.46857 0 0 1 -3.44385,0.05468l-0.00004,-0.00001z"/>
  <circle id="svg_62" fill="#a0616a" r="24.56103" cy="37.89093" cx="164.90622"/>
  <path id="svg_63" fill="#2f2e41" d="m147.34569,54.74763a2.13481,2.13481 0 0 1 1.85636,-2.81906a4.93049,4.93049 0 0 1 3.4761,1.715a13.83414,13.83414 0 0 0 3.07115,2.63711c1.18812,0.59889 2.79953,0.51354 3.47686,-0.62825c0.636,-1.0722 0.20022,-2.508 -0.18483,-3.75346a36.90711,36.90711 0 0 1 -1.62991,-9.77c-0.11092,-3.70031 0.41115,-7.562 2.45972,-10.44806c2.64387,-3.72476 7.37142,-5.13883 11.84544,-5.03631s8.87547,1.48363 13.30714,2.35666c1.52991,0.30139 3.32825,0.45549 4.35152,-0.73025c1.08805,-1.26082 0.68844,-3.3014 0.22563,-5.00376c-1.20094,-4.41743 -2.475,-8.98461 -5.26525,-12.55225a18.89838,18.89838 0 0 0 -12.06081,-6.79013a28.93848,28.93848 0 0 0 -13.46236,1.52838a36.09622,36.09622 0 0 0 -17.68285,12.3186a29.23591,29.23591 0 0 0 -5.57809,21.60019a26.66717,26.66717 0 0 0 9.88579,16.85462l1.90839,-1.47903z"/>
  <path id="svg_64" fill="#3f3d56" d="m53.566,113.87633a122.0417,122.0417 0 0 1 10.10051,-38.51722q2.27961,-5.09249 5.01812,-9.96076a0.7438,0.7438 0 0 0 -1.28353,-0.75026a123.72825,123.72825 0 0 0 -13.7678,37.98231q-1.03368,5.58355 -1.55378,11.24593c-0.08812,0.95214 1.39892,0.94613 1.48648,0z"/>
  <circle id="svg_65" fill="#b514ac" r="9.4144" cy="58.36795" cx="72.28495"/>
  <path id="svg_66" fill="#3f3d56" d="m54.52903,114.12637a79.17409,79.17409 0 0 1 6.55267,-24.98792q1.47889,-3.30372 3.25549,-6.462a0.48254,0.48254 0 0 0 -0.83269,-0.48673a80.26817,80.26817 0 0 0 -8.93181,24.64089q-0.67059,3.62231 -1.008,7.29576c-0.05716,0.6177 0.90755,0.6138 0.96435,0l-0.00001,0z"/>
  <circle id="svg_67" fill="#b514ac" r="6.10756" cy="78.1155" cx="66.67288"/>
  <path id="svg_68" fill="#3f3d56" d="m53.31187,113.54983a79.17415,79.17415 0 0 1 -10.2024,-23.73277q-0.86592,-3.51453 -1.40763,-7.09749a0.48254,0.48254 0 0 0 -0.95593,0.12838a80.26861,80.26861 0 0 0 8.11306,24.92246q1.69919,3.26857 3.69253,6.37255c0.33485,0.5222 1.09311,-0.07423 0.76037,-0.59313z"/>
  <circle id="svg_69" fill="#b514ac" r="6.10756" cy="77.68677" cx="40.73823"/>
  <path id="svg_70" fill="#ccc" d="m34.5621,118.95354l0,-12a4.50508,4.50508 0 0 1 4.5,-4.5l28,0a4.50508,4.50508 0 0 1 4.5,4.5l0,12a4.50508,4.50508 0 0 1 -4.5,4.5l-28,0a4.50508,4.50508 0 0 1 -4.5,-4.5z"/>
  <rect id="svg_71" fill="#ccc" rx="3.5" height="7" width="86" y="115.48228" x="203.06998"/>
  <path id="svg_72" fill="#ccc" d="m338.56997,122.48227l-89,0a6.50736,6.50736 0 0 1 -6.5,-6.5l0,-49a6.50737,6.50737 0 0 1 6.5,-6.5l89,0a6.50737,6.50737 0 0 1 6.5,6.5l0,49a6.50736,6.50736 0 0 1 -6.5,6.5z"/>
  <circle id="svg_73" fill="#fff" r="6" cy="91.48228" cx="294.06998"/>
  <path id="svg_91" fill="#3f3d56" d="m407.56997,121.48227l-398,0a6.5,6.5 0 1 0 0,13l11.5,0l0,141.5a6.5,6.5 0 0 0 13,0l0,-129.00994l72.8711,132.07788a6.5,6.5 0 0 0 11.2583,-6.5l-76.17578,-138.06794l348.04638,0l0,0.08417l-76.1289,137.98377a6.49977,6.49977 0 1 0 11.25781,6.5l64.87109,-117.57813l0,114.51019a6.5,6.5 0 0 0 13,0l0,-138.07263l1.89112,-3.42737l2.60888,0a6.5,6.5 0 0 0 0,-13z"/>
 </g>
</svg>