<svg width="194.67538" height="302.94856" xmlns="http://www.w3.org/2000/svg">

 <g>
  <title>background</title>
  <rect fill="none" id="canvas_background" height="304.94856" width="196.67538" y="-1" x="-1"/>
 </g>
 <g>
  <title>Layer 1</title>
  <path id="svg_74" fill="#ccc" d="m189.06997,204.48227c0,-7.732 -29.10156,-14 -65,-14s-65,6.268 -65,14c0,4.95545 11.96436,9.30622 30,11.79432l0,76.70568a6.5,6.5 0 0 0 13,0l0,-75.324c6.87207,0.53241 14.27686,0.824 22,0.824s15.12793,-0.29162 22,-0.824l0,75.324a6.5,6.5 0 0 0 13,0l0,-76.70568c18.03565,-2.4881 30,-6.83887 30,-11.79432z"/>
  <circle id="svg_75" fill="#2f2e41" r="28" cy="48.33974" cx="131.25735"/>
  <polygon id="svg_76" fill="#ffb8b8" points="61.5770263671875,287.906005859375 49.316986083984375,287.906005859375 43.4849853515625,240.61801147460938 61.5789794921875,240.61801147460938 61.5770263671875,287.906005859375 "/>
  <path id="svg_77" fill="#2f2e41" d="m40.56,284.40253l23.64387,0a0,0 0 0 1 0,0l0,14.88687a0,0 0 0 1 0,0l-38.53078,0a0,0 0 0 1 0,0l0,0a14.88686,14.88686 0 0 1 14.88691,-14.88687z"/>
  <polygon id="svg_78" fill="#ffb8b8" points="42.438995361328125,281.0639953613281 30.74200439453125,277.39300537109375 39.334014892578125,230.52801513671875 56.5980224609375,235.94500732421875 42.438995361328125,281.0639953613281 "/>
  <path id="svg_79" fill="#2f2e41" transform="rotate(17.42262077331543 -459.093994140625,-571.127685546875) " d="m253.57428,88.29619l23.64387,0a0,0 0 0 1 0,0l0,14.88687a0,0 0 0 1 0,0l-38.53073,0a0,0 0 0 1 0,0l0,0a14.88686,14.88686 0 0 1 14.88686,-14.88687z"/>
  <path id="svg_80" fill="#2f2e41" d="m46.42776,262.19618a4.46224,4.46224 0 0 1 -1.572,-0.28613l-9.01929,-3.38184a4.51573,4.51573 0 0 1 -2.814,-5.18359c2.27075,-10.21 10.00976,-44.9707 14.24731,-63.61524c5.02588,-22.11523 78.34278,-26.22461 81.46118,-26.38867l0.25635,-0.01367l8.24758,10.36423c2.98022,9.5791 2.03564,17.05078 -2.80762,22.208c-14.13232,15.04687 -56.32739,5.71 -61.35888,4.52832l-22.42725,58.87109a4.51293,4.51293 0 0 1 -4.21338,2.8975z"/>
  <path id="svg_81" fill="#2f2e41" d="m59.42776,269.19618a4.46224,4.46224 0 0 1 -1.572,-0.28613l-9.01929,-3.38184a4.51573,4.51573 0 0 1 -2.814,-5.18359c2.27075,-10.21 10.00976,-44.9707 14.24731,-63.61524c5.02588,-22.11523 78.34278,-26.22461 81.46118,-26.38867l0.25635,-0.01367l8.24758,10.36423c2.98022,9.5791 2.03564,17.05078 -2.80762,22.208c-14.13232,15.04589 -56.32715,5.71 -61.35888,4.52832l-22.42725,58.87109a4.51293,4.51293 0 0 1 -4.21338,2.8975z"/>
  <path id="svg_82" fill="#ffb8b8" d="m33.333,125.17619a10.52563,10.52563 0 0 1 0.88489,1.40152l49.32026,5.19623l7.09959,-9.734l16.09071,8.79449l-13.94447,23.62125l-60.48739,-15.4225a10.4958,10.4958 0 1 1 1.03641,-13.857l0,0.00001z"/>
  <path id="svg_83" fill="#b514ac" d="m147.94607,184.6581a4.50062,4.50062 0 0 1 -2.04956,-0.501c-9.8623,-5.01465 -29.06641,-13.69922 -46.87451,-15.5166a4.39229,4.39229 0 0 1 -3.09546,-1.75a4.51858,4.51858 0 0 1 -0.83374,-3.51075c1.60693,-8.8955 5.29321,-31.54687 4.81836,-49.70117a24.59626,24.59626 0 0 1 18.582,-24.46777l0,0a79.86445,79.86445 0 0 1 9.91284,-1.9541a24.79544,24.79544 0 0 1 27.55933,28.76172c-3.17578,18.81347 -6.3772,45.08984 -3.59473,63.43261a4.50694,4.50694 0 0 1 -1.8186,4.34864a4.42884,4.42884 0 0 1 -2.60593,0.85842z"/>
  <path id="svg_84" fill="#b514ac" d="m100.824,136.80653a4.49628,4.49628 0 0 1 -1.78662,-0.373l-12.8479,-5.56153a4.50569,4.50569 0 0 1 -2.342,-5.917l9.93164,-22.94238a11.49973,11.49973 0 1 1 21.10718,9.13574l-9.9314,22.94238a4.51063,4.51063 0 0 1 -4.13086,2.71582l-0.00004,-0.00003z"/>
  <circle id="svg_85" fill="#ffb8b8" r="24.56103" cy="54.89093" cx="130.23373"/>
  <path id="svg_86" fill="#2f2e41" d="m105.23062,42.82384a88.59059,88.59059 0 0 0 38.32618,12.62843l-4.03992,-4.84061a29.68817,29.68817 0 0 0 9.17074,1.82105c3.13021,-0.04875 6.40987,-1.254 8.18642,-3.83171a9.342,9.342 0 0 0 0.62531,-8.62974a17.694,17.694 0 0 0 -5.56636,-6.96014a33.13951,33.13951 0 0 0 -30.84447,-5.51248a19.80609,19.80609 0 0 0 -9.21238,5.90943c-2.32838,2.87238 -6.81094,5.43156 -5.61879,8.93167l-1.02673,0.4841z"/>
  <path id="svg_87" fill="#2f2e41" d="m134.3635,23.00297a75.48471,75.48471 0 0 0 -27.463,-17.7592c-6.63872,-2.45941 -13.86459,-3.97895 -20.80509,-2.58225s-13.50411,6.19807 -15.44041,13.00778c-1.58332,5.56836 0.05158,11.56379 2.50871,16.80555s5.73758,10.10247 7.72463,15.53985a35.46793,35.46793 0 0 1 -35.689,47.56227c6.81938,0.91437 13.10515,4.119 19.77076,5.82483s14.53281,1.59011 19.48624,-3.18519c5.24091,-5.05244 5.34584,-13.26718 5.09245,-20.54249l-1.13,-32.445c-0.1921,-5.51543 -0.35615,-11.20763 1.63288,-16.35551s6.71617,-9.65569 12.23475,-9.60885c4.18253,0.0355 7.88442,2.56926 11.23865,5.068s6.90446,5.16474 11.0706,5.53641s8.92293,-2.71144 8.61118,-6.88249"/>
  <polygon id="svg_88" fill="#e6e6e6" points="20.196990966796875,107.08700561523438 76.75,108.4219970703125 84.9429931640625,168.87799072265625 32.71600341796875,170.04998779296875 20.196990966796875,107.08700561523438 "/>
  <path id="svg_89" fill="#ffb8b8" d="m80.333,123.17619a10.52563,10.52563 0 0 1 0.88489,1.40152l49.32026,5.19623l7.09959,-9.734l16.09071,8.79449l-13.94447,23.62125l-60.48739,-15.4225a10.4958,10.4958 0 1 1 1.03641,-13.857l0,0.00001z"/>
  <path id="svg_90" fill="#b514ac" d="m147.824,137.80653a4.49628,4.49628 0 0 1 -1.78662,-0.373l-12.8479,-5.56153a4.50569,4.50569 0 0 1 -2.342,-5.917l9.93164,-22.94238a11.49973,11.49973 0 1 1 21.10718,9.13574l-9.9314,22.94238a4.51063,4.51063 0 0 1 -4.13086,2.71582l-0.00004,-0.00003z"/>
 </g>
</svg>