<?xml version="1.0" encoding="utf-8"?>
<!-- Generator: Adobe Illustrator 16.0.0, SVG Export Plug-In . SVG Version: 6.00 Build 0)  -->
<!DOCTYPE svg PUBLIC "-//W3C//DTD SVG 1.1//EN" "http://www.w3.org/Graphics/SVG/1.1/DTD/svg11.dtd">
<svg version="1.1" id="Layer_1" xmlns="http://www.w3.org/2000/svg" xmlns:xlink="http://www.w3.org/1999/xlink" x="0px" y="0px"
	 width="372.434px" height="325.484px" viewBox="0 0 372.434 325.484" enable-background="new 0 0 372.434 325.484"
	 xml:space="preserve">
<polygon fill="#FFFFFF" points="136.458,212.727 142.309,212.727 142.309,221.503 152.448,221.503 152.448,212.727 158.298,212.727 
	158.298,235.884 152.448,235.884 152.448,225.745 142.309,225.745 142.309,235.884 136.458,235.884 "/>
<g>
	<g>
		<defs>
			<rect id="SVGID_1_" y="0" width="372.434" height="325.484"/>
		</defs>
		<clipPath id="SVGID_2_">
			<use xlink:href="#SVGID_1_"  overflow="visible"/>
		</clipPath>
		<path clip-path="url(#SVGID_2_)" fill="#FFFFFF" d="M165.675,212.727h6.148c3.367,0,5.763,0.229,7.192,0.684
			c1.427,0.455,2.577,1.212,3.445,2.27s1.304,2.31,1.304,3.751c0,1.52-0.48,2.787-1.437,3.81c-0.961,1.021-2.405,1.794-4.336,2.316
			l7.212,10.326h-6.322l-6.874-9.848h-0.579v9.848h-5.753V212.727L165.675,212.727z M171.428,221.794h1.834
			c1.861,0,3.143-0.186,3.845-0.56c0.699-0.373,1.05-0.994,1.05-1.859c0-0.514-0.173-0.96-0.52-1.34
			c-0.348-0.379-0.813-0.652-1.396-0.817c-0.584-0.167-1.653-0.249-3.209-0.249h-1.604V221.794z"/>
	</g>
	<g>
		<defs>
			<rect id="SVGID_3_" y="0" width="372.434" height="325.484"/>
		</defs>
		<clipPath id="SVGID_4_">
			<use xlink:href="#SVGID_3_"  overflow="visible"/>
		</clipPath>
		<path clip-path="url(#SVGID_4_)" fill="#FFFFFF" d="M189.879,212.727h6.854c4.416,0,7.695,0.417,9.843,1.253
			c2.146,0.835,3.913,2.189,5.303,4.067c1.392,1.88,2.086,4.072,2.086,6.58c0,1.785-0.39,3.427-1.166,4.92
			c-0.776,1.496-1.853,2.736-3.219,3.724c-1.372,0.988-2.853,1.671-4.449,2.047c-1.595,0.379-4.36,0.565-8.295,0.565h-6.956V212.727
			z M195.632,216.969v14.674h2.692c2.652,0,4.576-0.231,5.768-0.697c1.194-0.463,2.172-1.243,2.932-2.341
			c0.76-1.1,1.14-2.448,1.14-4.054c0-2.471-0.904-4.386-2.713-5.745c-1.63-1.225-4.247-1.837-7.849-1.837H195.632z"/>
	</g>
	<g>
		<defs>
			<rect id="SVGID_5_" y="0" width="372.434" height="325.484"/>
		</defs>
		<clipPath id="SVGID_6_">
			<use xlink:href="#SVGID_5_"  overflow="visible"/>
		</clipPath>
		<polygon clip-path="url(#SVGID_6_)" fill="#FFFFFF" points="219.557,212.727 234.669,212.727 234.669,216.969 225.307,216.969 
			225.307,221.211 234.669,221.211 234.669,225.452 225.307,225.452 225.307,235.884 219.557,235.884 		"/>
	</g>
	<g>
		<defs>
			<rect id="SVGID_7_" y="0" width="372.434" height="325.484"/>
		</defs>
		<clipPath id="SVGID_8_">
			<use xlink:href="#SVGID_7_"  overflow="visible"/>
		</clipPath>
		<polygon clip-path="url(#SVGID_8_)" fill="#323996" points="108.219,96.079 132.131,96.079 182.639,149.938 182.639,201.109 
			132.131,149.938 108.219,149.938 		"/>
	</g>
	<g>
		<defs>
			<rect id="SVGID_9_" y="0" width="372.434" height="325.484"/>
		</defs>
		<clipPath id="SVGID_10_">
			<use xlink:href="#SVGID_9_"  overflow="visible"/>
		</clipPath>
		<polygon clip-path="url(#SVGID_10_)" fill="#323996" points="263.563,96.072 239.648,96.072 189.159,149.931 189.159,201.09 
			239.648,149.931 263.563,149.931 		"/>
	</g>
	<g>
		<defs>
			<rect id="SVGID_11_" y="0" width="372.434" height="325.484"/>
		</defs>
		<clipPath id="SVGID_12_">
			<use xlink:href="#SVGID_11_"  overflow="visible"/>
		</clipPath>
		<path clip-path="url(#SVGID_12_)" fill="#ED1C24" d="M213.938,82.586c0,15.714-12.737,28.452-28.453,28.452
			c-15.714,0-28.452-12.738-28.452-28.452s12.738-28.452,28.452-28.452C201.199,54.134,213.938,66.873,213.938,82.586"/>
	</g>
	<g>
		<defs>
			<rect id="SVGID_13_" y="0" width="372.434" height="325.484"/>
		</defs>
		<clipPath id="SVGID_14_">
			<use xlink:href="#SVGID_13_"  overflow="visible"/>
		</clipPath>
		<path clip-path="url(#SVGID_14_)" fill="#ED1C24" d="M185.485,43.894c-21.369,0-38.692,17.322-38.692,38.691
			s17.323,38.692,38.692,38.692s38.692-17.322,38.692-38.692C224.177,61.217,206.854,43.894,185.485,43.894 M185.485,116.215
			c-18.572,0-33.629-15.056-33.629-33.629c0-18.572,15.057-33.629,33.629-33.629c18.574,0,33.628,15.057,33.628,33.629
			C219.113,101.159,204.059,116.215,185.485,116.215"/>
	</g>
	<g>
		<defs>
			<rect id="SVGID_15_" y="0" width="372.434" height="325.484"/>
		</defs>
		<clipPath id="SVGID_16_">
			<use xlink:href="#SVGID_15_"  overflow="visible"/>
		</clipPath>
		<path clip-path="url(#SVGID_16_)" fill="#FFFFFF" d="M258.729,161.896c-2.34,0-4.244-1.905-4.244-4.245
			c0-2.341,1.904-4.246,4.244-4.246c2.342,0,4.246,1.905,4.246,4.246C262.975,159.991,261.07,161.896,258.729,161.896
			 M258.729,154.153c-1.929,0-3.498,1.569-3.498,3.498c0,1.928,1.569,3.497,3.498,3.497c1.931,0,3.498-1.569,3.498-3.497
			C262.227,155.722,260.659,154.153,258.729,154.153"/>
	</g>
	<g>
		<defs>
			<rect id="SVGID_17_" y="0" width="372.434" height="325.484"/>
		</defs>
		<clipPath id="SVGID_18_">
			<use xlink:href="#SVGID_17_"  overflow="visible"/>
		</clipPath>
		<path clip-path="url(#SVGID_18_)" fill="#FFFFFF" d="M256.898,159.896v-4.491h1.908c0.479,0,0.827,0.04,1.047,0.121
			c0.217,0.08,0.391,0.224,0.521,0.43c0.131,0.206,0.196,0.442,0.196,0.708c0,0.337-0.098,0.615-0.297,0.834
			c-0.198,0.22-0.494,0.359-0.89,0.416c0.196,0.114,0.358,0.24,0.485,0.376c0.128,0.138,0.3,0.38,0.517,0.73l0.55,0.876h-1.084
			l-0.656-0.979c-0.233-0.349-0.394-0.568-0.479-0.66c-0.085-0.091-0.177-0.152-0.271-0.186c-0.096-0.034-0.248-0.051-0.455-0.051
			h-0.186v1.875H256.898z M257.805,157.304h0.672c0.435,0,0.707-0.02,0.813-0.056c0.108-0.037,0.192-0.1,0.254-0.189
			c0.063-0.091,0.092-0.202,0.092-0.337c0-0.151-0.04-0.273-0.12-0.366s-0.193-0.152-0.342-0.177
			c-0.072-0.011-0.294-0.016-0.662-0.016h-0.707V157.304z"/>
	</g>
	<g>
		<defs>
			<rect id="SVGID_19_" y="0" width="372.434" height="325.484"/>
		</defs>
		<clipPath id="SVGID_20_">
			<use xlink:href="#SVGID_19_"  overflow="visible"/>
		</clipPath>
		<path clip-path="url(#SVGID_20_)" fill="#FFFFFF" d="M108.788,255.568c-1.015-1.212-2.487-1.898-4.386-1.898
			c-3.862,0-6.71,3.143-6.71,7.462c0,4.32,2.848,7.462,6.546,7.462c2.063,0,3.732-0.916,4.779-2.486l4.255,3.176
			c-1.931,2.749-5.204,4.025-8.379,4.025c-7.233,0-12.502-4.746-12.502-12.177c0-7.43,5.269-12.176,12.502-12.176
			c2.585,0,5.859,0.884,7.823,3.404L108.788,255.568z"/>
	</g>
	<g>
		<defs>
			<rect id="SVGID_21_" y="0" width="372.434" height="325.484"/>
		</defs>
		<clipPath id="SVGID_22_">
			<use xlink:href="#SVGID_21_"  overflow="visible"/>
		</clipPath>
		<polygon clip-path="url(#SVGID_22_)" fill="#FFFFFF" points="116.255,249.545 121.36,249.545 121.36,268.004 130.819,268.004 
			130.819,272.718 116.255,272.718 		"/>
	</g>
	<g>
		<defs>
			<rect id="SVGID_23_" y="0" width="372.434" height="325.484"/>
		</defs>
		<clipPath id="SVGID_24_">
			<use xlink:href="#SVGID_23_"  overflow="visible"/>
		</clipPath>
		<path clip-path="url(#SVGID_24_)" fill="#FFFFFF" d="M141.265,249.545h4.222l10.081,23.173h-5.761l-1.996-4.909h-9.001
			l-1.932,4.909h-5.629L141.265,249.545z M143.228,256.288l-2.814,7.2h5.662L143.228,256.288z"/>
	</g>
	<g>
		<defs>
			<rect id="SVGID_25_" y="0" width="372.434" height="325.484"/>
		</defs>
		<clipPath id="SVGID_26_">
			<use xlink:href="#SVGID_25_"  overflow="visible"/>
		</clipPath>
		<rect x="157.832" y="249.544" clip-path="url(#SVGID_26_)" fill="#FFFFFF" width="5.105" height="23.174"/>
	</g>
	<g>
		<defs>
			<rect id="SVGID_27_" y="0" width="372.434" height="325.484"/>
		</defs>
		<clipPath id="SVGID_28_">
			<use xlink:href="#SVGID_27_"  overflow="visible"/>
		</clipPath>
		<polygon clip-path="url(#SVGID_28_)" fill="#FFFFFF" points="167.587,249.545 175.313,249.545 180.647,264.666 180.712,264.666 
			186.079,249.545 193.771,249.545 193.771,272.718 188.665,272.718 188.665,254.945 188.602,254.945 182.512,272.718 
			178.617,272.718 172.758,254.945 172.692,254.945 172.692,272.718 167.587,272.718 		"/>
	</g>
	<g>
		<defs>
			<rect id="SVGID_29_" y="0" width="372.434" height="325.484"/>
		</defs>
		<clipPath id="SVGID_30_">
			<use xlink:href="#SVGID_29_"  overflow="visible"/>
		</clipPath>
		<path clip-path="url(#SVGID_30_)" fill="#FFFFFF" d="M206.117,249.545h4.223l10.081,23.173h-5.762l-1.996-4.909h-9.001
			l-1.932,4.909h-5.629L206.117,249.545z M208.08,256.288l-2.813,7.2h5.662L208.08,256.288z"/>
	</g>
	<g>
		<defs>
			<rect id="SVGID_31_" y="0" width="372.434" height="325.484"/>
		</defs>
		<clipPath id="SVGID_32_">
			<use xlink:href="#SVGID_31_"  overflow="visible"/>
		</clipPath>
		<path clip-path="url(#SVGID_32_)" fill="#FFFFFF" d="M222.75,249.544h8.641c4.06,0,8.479,0.854,8.479,5.893
			c0,2.587-1.605,4.354-3.993,5.105v0.065c3.043,0.393,5.073,2.649,5.073,5.662c0,4.844-4.583,6.446-8.707,6.446h-9.491
			L222.75,249.544L222.75,249.544z M227.854,258.807h3.699c1.571,0,3.207-0.654,3.207-2.521c0-1.932-1.832-2.422-3.436-2.422h-3.471
			V258.807L227.854,258.807z M227.854,268.398h4.582c1.605,0,3.404-0.688,3.404-2.718c0-2.192-2.455-2.554-4.124-2.554h-3.862
			V268.398L227.854,268.398z"/>
	</g>
	<g>
		<defs>
			<rect id="SVGID_33_" y="0" width="372.434" height="325.484"/>
		</defs>
		<clipPath id="SVGID_34_">
			<use xlink:href="#SVGID_33_"  overflow="visible"/>
		</clipPath>
		<polygon clip-path="url(#SVGID_34_)" fill="#FFFFFF" points="244.159,249.545 249.266,249.545 249.266,268.004 258.725,268.004 
			258.725,272.718 244.159,272.718 		"/>
	</g>
	<g>
		<defs>
			<rect id="SVGID_35_" y="0" width="372.434" height="325.484"/>
		</defs>
		<clipPath id="SVGID_36_">
			<use xlink:href="#SVGID_35_"  overflow="visible"/>
		</clipPath>
		<polygon clip-path="url(#SVGID_36_)" fill="#FFFFFF" points="261.738,249.545 277.48,249.545 277.48,254.258 266.846,254.258 
			266.846,258.579 276.893,258.579 276.893,263.292 266.846,263.292 266.846,268.004 278.07,268.004 278.07,272.718 
			261.738,272.718 		"/>
	</g>
</g>
</svg>
