<?xml version="1.0" encoding="utf-8"?>
<!-- Generator: Adobe Illustrator 16.0.0, SVG Export Plug-In . SVG Version: 6.00 Build 0)  -->
<!DOCTYPE svg PUBLIC "-//W3C//DTD SVG 1.1//EN" "http://www.w3.org/Graphics/SVG/1.1/DTD/svg11.dtd">
<svg version="1.1" id="Layer_1" xmlns="http://www.w3.org/2000/svg" xmlns:xlink="http://www.w3.org/1999/xlink" x="0px" y="0px"
	 width="32px" height="32px" viewBox="0 0 32 32" enable-background="new 0 0 32 32" xml:space="preserve">
<title>mobile</title>
<path fill="#DD77D7" d="M23,0H9C7.35,0,6,1.35,6,3v26c0,1.65,1.35,3,3,3h14c1.65,0,3-1.35,3-3V3C26,1.35,24.65,0,23,0z M12,1.5h8v1
	h-8V1.5z M16,30c-1.105,0-2-0.895-2-2s0.895-2,2-2c1.105,0,2,0.895,2,2S17.105,30,16,30z M24,24H8V4h16V24z"/>
</svg>
