<svg width="485.67538" height="462.2717" xmlns="http://www.w3.org/2000/svg">

 <g>
  <title>background</title>
  <rect fill="none" id="canvas_background" height="464.2717" width="487.67538" y="-1" x="-1"/>
 </g>
 <g>
  <title>Layer 1</title>
  <circle id="svg_2" fill="#f2f2f2" r="6.46689" cy="50.98023" cx="144.35274"/>
  <circle id="svg_3" fill="#f2f2f2" r="6.46689" cy="50.98023" cx="118.57944"/>
  <circle id="svg_4" fill="#f2f2f2" r="6.46689" cy="50.98023" cx="92.80613"/>
  <circle id="svg_5" fill="#f2f2f2" r="6.46689" cy="50.98023" cx="67.03283"/>
  <circle id="svg_6" fill="#f2f2f2" r="6.46689" cy="77.98023" cx="144.35274"/>
  <circle id="svg_7" fill="#f2f2f2" r="6.46689" cy="77.98023" cx="118.57944"/>
  <circle id="svg_8" fill="#f2f2f2" r="6.46689" cy="77.98023" cx="92.80613"/>
  <circle id="svg_9" fill="#f2f2f2" r="6.46689" cy="77.98023" cx="67.03283"/>
  <circle id="svg_10" fill="#f2f2f2" r="6.46689" cy="104.98023" cx="144.35274"/>
  <circle id="svg_11" fill="#f2f2f2" r="6.46689" cy="104.98023" cx="118.57944"/>
  <circle id="svg_12" fill="#f2f2f2" r="6.46689" cy="104.98023" cx="92.80613"/>
  <circle id="svg_13" fill="#f2f2f2" r="6.46689" cy="104.98023" cx="67.03283"/>
  <circle id="svg_14" fill="#f2f2f2" r="6.46689" cy="131.98023" cx="144.35274"/>
  <circle id="svg_15" fill="#f2f2f2" r="6.46689" cy="131.98023" cx="118.57944"/>
  <circle id="svg_16" fill="#f2f2f2" r="6.46689" cy="131.98023" cx="92.80613"/>
  <circle id="svg_17" fill="#f2f2f2" r="6.46689" cy="131.98023" cx="67.03283"/>
  <circle id="svg_18" fill="#f2f2f2" r="6.46689" cy="158.98023" cx="144.35274"/>
  <circle id="svg_19" fill="#f2f2f2" r="6.46689" cy="158.98023" cx="118.57944"/>
  <circle id="svg_20" fill="#f2f2f2" r="6.46689" cy="158.98023" cx="92.80613"/>
  <circle id="svg_21" fill="#f2f2f2" r="6.46689" cy="158.98023" cx="67.03283"/>
  <circle id="svg_22" fill="#f2f2f2" r="6.46689" cy="185.98023" cx="144.35274"/>
  <circle id="svg_23" fill="#f2f2f2" r="6.46689" cy="185.98023" cx="118.57944"/>
  <circle id="svg_24" fill="#f2f2f2" r="6.46689" cy="185.98023" cx="92.80613"/>
  <circle id="svg_25" fill="#f2f2f2" r="6.46689" cy="185.98023" cx="67.03283"/>
  <path id="svg_26" fill="#ccc" d="m87.52764,362.39985l0,2a12.51087,12.51087 0 0 0 12.5,12.5l90,0a12.50461,12.50461 0 0 0 12.5,-12.5l0,-2a12.41025,12.41025 0 0 0 -2.90039,-8a12.85917,12.85917 0 0 0 -2.10987,-2s-49.48,-1.12 -49.48,-2.5l-48.00974,0a12.51734,12.51734 0 0 0 -12.5,12.5z"/>
  <rect id="svg_27" fill="#ccc" height="84" width="13" y="376.40327" x="139.2512"/>
  <path id="svg_28" fill="#ccc" d="m189.2512,459.94658c0,1.40463 -19.69947,0.5433 -44,0.5433s-44,0.86133 -44,-0.5433s19.69948,-12.54331 44,-12.54331s44,11.13868 44,12.54331z"/>
  <path id="svg_29" fill="#a0616a" d="m171.3782,360.7035a10.7427,10.7427 0 0 0 -3.80711,-16.02664l-27.55289,-93.88524l-20.9809,10.27567l33.68091,89.055a10.80091,10.80091 0 0 0 18.66,10.58123l-0.00001,-0.00002z"/>
  <path id="svg_30" fill="#b514ac" d="m146.2602,266.47048l-23.48261,6.35682a4.81687,4.81687 0 0 1 -6.04231,-4.08554l-2.83827,-24.08746a13.37737,13.37737 0 0 1 25.8455,-6.91525l9.674,22.1558a4.81688,4.81688 0 0 1 -3.15629,6.57563l-0.00002,0z"/>
  <polygon id="svg_31" fill="#a0616a" points="177.5155029296875,450.10101318359375 189.7755126953125,450.1000061035156 195.6085205078125,418.3039855957031 177.51351928710938,418.3039855957031 177.5155029296875,450.10101318359375 "/>
  <path id="svg_32" fill="#2f2e41" d="m174.38814,446.09819l24.1438,-0.001l0.001,0a15.38605,15.38605 0 0 1 15.38648,15.38623l0,0.5l-39.53052,0.00146l-0.00076,-15.88669z"/>
  <path id="svg_33" fill="#2f2e41" d="m191.74587,433.0502q-0.21423,0 -0.43018,-0.02051l-16.96655,-1.23535a4.49994,4.49994 0 0 1 -3.80933,-6.0293l22.70655,-51.01465a3.4981,3.4981 0 0 0 -0.19629,-2.79882a3.45078,3.45078 0 0 0 -2.21118,-1.75977c-10.67725,-2.791 -38.072,-10.22266 -61.78638,-18.918c-10.15991,-3.72558 -16.55884,-9.10937 -19.0188,-16.00195c-3.24316,-9.08692 1.55469,-17.374 1.7605,-17.72168l0.16089,-0.27246l22.31469,2.02832l24.19117,2.05762l53.01342,28.42773a20.086,20.086 0 0 1 8.81861,25.78418l-24.44092,54.80762a4.49689,4.49689 0 0 1 -4.1062,2.66702z"/>
  <circle id="svg_34" fill="#a0616a" r="24.56103" cy="193.81592" cx="138.14983"/>
  <polygon id="svg_35" fill="#a0616a" points="170.5155029296875,449.10101318359375 182.7755126953125,449.1000061035156 188.6085205078125,417.3039855957031 170.51351928710938,417.3039855957031 170.5155029296875,449.10101318359375 "/>
  <path id="svg_36" fill="#2f2e41" d="m167.38814,445.09819l24.1438,-0.001l0.001,0a15.38605,15.38605 0 0 1 15.38648,15.38623l0,0.5l-39.53052,0.00146l-0.00076,-15.88669z"/>
  <path id="svg_37" fill="#2f2e41" d="m184.74587,436.0502q-0.21423,0 -0.43018,-0.02051l-16.96655,-1.23535a4.49994,4.49994 0 0 1 -3.80933,-6.0293l22.70655,-51.01465a3.4981,3.4981 0 0 0 -0.19629,-2.79882a3.45078,3.45078 0 0 0 -2.21118,-1.75977c-10.67725,-2.791 -38.072,-10.22266 -61.78638,-18.918c-10.15991,-3.72558 -16.55884,-9.10937 -19.0188,-16.00195c-3.24316,-9.08692 1.55469,-17.374 1.7605,-17.72168l0.16089,-0.27246l22.31469,2.02832l24.19117,2.05762l53.01342,28.42773a20.086,20.086 0 0 1 8.81861,25.78418l-24.44092,54.80762a4.49689,4.49689 0 0 1 -4.1062,2.66702z"/>
  <path id="svg_38" fill="#2f2e41" d="m145.72463,232.3041l-26,-9s-16.322,12.54 -8.481,43.64857a77.01216,77.01216 0 0 1 -3.40009,48.32025a49.7778,49.7778 0 0 1 -2.61889,5.53118s29,35 56,9l-10.5,-50.5s16.49998,-33.5 -5.00002,-47z"/>
  <path id="svg_39" fill="#2f2e41" d="m141.1992,219.21224c-3.49561,-5.2323 -6.25434,-12.48755 -2.40565,-17.4659c3.79908,-4.91417 11.29215,-4.19018 17.11054,-6.36466c8.104,-3.02867 12.80409,-12.5493 11.33825,-21.07565s-8.31032,-15.59442 -16.464,-18.48644s-17.34839,-1.95148 -25.33312,1.37887c-9.82931,4.0997 -18.26115,12.03028 -21.79686,22.07625s-1.6456,22.10808 5.68929,29.82962c7.86381,8.27835 20.20556,10.48455 31.62276,10.35068"/>
  <path id="svg_40" fill="#2f2e41" d="m118.35235,174.57967c-4.40483,3.58587 -11.12526,1.99318 -15.85359,-1.15387s-8.56507,-7.62825 -13.681,-10.09566c-9.01922,-4.35 -19.92379,-1.45825 -28.70172,3.36009s-16.55915,11.475 -25.83123,15.25617s-21.10393,3.96808 -28.12485,-3.17161a25.732,25.732 0 0 0 37.7101,30.37144c10.15941,-6.18838 15.77105,-19.1637 27.16593,-22.57932c6.3055,-1.89008 13.07632,-0.36778 19.44917,1.28106s13.01783,3.43041 19.44912,2.02674s12.447,-7.18312 11.62879,-13.71476l-3.21072,-1.58028z"/>
  <path id="svg_41" fill="#b514ac" d="m198.30601,406.00656a167.50643,167.50643 0 0 1 0,-50.97535a4.30257,4.30257 0 0 1 4.2371,-3.6057l39.87252,0a4.24657,4.24657 0 0 1 3.35525,1.62624a4.31917,4.31917 0 0 1 0.8074,3.70456a102.32847,102.32847 0 0 0 -0.0003,47.52515a4.31806,4.31806 0 0 1 -0.8071,3.70456a4.24657,4.24657 0 0 1 -3.35525,1.62624l-39.87252,0a4.30258,4.30258 0 0 1 -4.2371,-3.6057z"/>
  <path id="svg_42" fill="#fff" d="m230.14555,376.10212l-20.92358,0a3.00328,3.00328 0 0 1 -3,-3l0,-1.17188a3.00328,3.00328 0 0 1 3,-3l20.92358,0a3.00328,3.00328 0 0 1 3,3l0,1.17188a3.00328,3.00328 0 0 1 -3,3z"/>
  <path id="svg_43" fill="#fff" d="m230.14555,388.44685l-20.92358,0a3.00328,3.00328 0 0 1 -3,-3l0,-1.17236a3.00328,3.00328 0 0 1 3,-3l20.92358,0a3.00328,3.00328 0 0 1 3,3l0,1.17236a3.00328,3.00328 0 0 1 -3,3z"/>
  <path id="svg_44" fill="#a0616a" d="m208.79126,356.20417a10.74266,10.74266 0 0 0 -7.69048,-14.56723l-50.13535,-84.02409l-17.74823,15.19168l54.86227,77.816a10.80091,10.80091 0 0 0 20.71183,5.58367l-0.00004,-0.00003z"/>
  <path id="svg_45" fill="#2f2e41" d="m160.9267,271.235l-21.14972,12.02212a4.81687,4.81687 0 0 1 -6.87143,-2.44636l-8.76626,-22.61447a13.37737,13.37737 0 0 1 23.29816,-13.15318l14.9026,19.03623a4.81687,4.81687 0 0 1 -1.41335,7.15566z"/>
  <rect id="svg_47" fill="#ccc" rx="3.5" height="7" width="86" y="296.74955" x="135.46677"/>
  <path id="svg_48" fill="#ccc" d="m270.96676,303.74955l-89,0a6.50737,6.50737 0 0 1 -6.5,-6.5l0,-49a6.50736,6.50736 0 0 1 6.5,-6.5l89,0a6.50736,6.50736 0 0 1 6.5,6.5l0,49a6.50737,6.50737 0 0 1 -6.5,6.5z"/>
  <circle id="svg_49" fill="#fff" r="6" cy="272.74955" cx="226.46677"/>
  <path id="svg_50" fill="#e6e6e6" d="m192.22029,181.68809l0,-175.5a7.53,7.53 0 0 1 7.52143,-7.52143l138.72857,0a7.53,7.53 0 0 1 7.52143,7.52143l0,175.5a7.53,7.53 0 0 1 -7.52143,7.52143l-138.72857,0a7.53,7.53 0 0 1 -7.52143,-7.52143zm7.52143,-181.35a5.85658,5.85658 0 0 0 -5.85,5.85l0,175.5a5.85658,5.85658 0 0 0 5.85,5.85l138.72857,0a5.85658,5.85658 0 0 0 5.85,-5.85l0,-175.5a5.85658,5.85658 0 0 0 -5.85,-5.85l-138.72857,0z"/>
  <path id="svg_51" fill="#b514ac" d="m276.88544,79.26437l0,-36.03569a3.76488,3.76488 0 0 1 3.76071,-3.76071l30.537,0a3.76489,3.76489 0 0 1 3.76072,3.76071l0,36.03569a3.76489,3.76489 0 0 1 -3.76072,3.76071l-30.537,0a3.76488,3.76488 0 0 1 -3.76071,-3.76071z"/>
  <path id="svg_52" fill="#ccc" d="m217.54972,95.97866l0,-36.03569a3.7649,3.7649 0 0 1 3.76072,-3.76072l30.537,0a3.76489,3.76489 0 0 1 3.76071,3.76072l0,36.03569a3.76488,3.76488 0 0 1 -3.76071,3.76071l-30.537,0a3.76489,3.76489 0 0 1 -3.76072,-3.76071z"/>
  <path id="svg_53" fill="#ff6584" d="m265.18544,146.95723l0,-36.03572a3.76489,3.76489 0 0 1 3.76071,-3.76072l30.537,0a3.7649,3.7649 0 0 1 3.76072,3.76072l0,36.03569a3.76489,3.76489 0 0 1 -3.76072,3.76071l-30.537,0a3.76488,3.76488 0 0 1 -3.76071,-3.76068z"/>
  <circle id="svg_54" fill="#f2f2f2" r="6.46689" cy="10.48694" cx="498.07356"/>
  <circle id="svg_55" fill="#f2f2f2" r="6.46689" cy="36.26024" cx="498.07356"/>
  <circle id="svg_56" fill="#f2f2f2" r="6.46689" cy="62.03354" cx="498.07356"/>
  <circle id="svg_57" fill="#f2f2f2" r="6.46689" cy="87.80684" cx="498.07356"/>
  <circle id="svg_58" fill="#f2f2f2" r="6.46689" cy="10.48694" cx="471.07356"/>
  <circle id="svg_59" fill="#f2f2f2" r="6.46689" cy="36.26024" cx="471.07356"/>
  <circle id="svg_60" fill="#f2f2f2" r="6.46689" cy="62.03354" cx="471.07356"/>
  <circle id="svg_61" fill="#f2f2f2" r="6.46689" cy="87.80684" cx="471.07356"/>
  <circle id="svg_62" fill="#f2f2f2" r="6.46689" cy="10.48694" cx="444.07356"/>
  <circle id="svg_63" fill="#f2f2f2" r="6.46689" cy="36.26024" cx="444.07356"/>
  <circle id="svg_64" fill="#f2f2f2" r="6.46689" cy="62.03354" cx="444.07356"/>
  <circle id="svg_65" fill="#f2f2f2" r="6.46689" cy="87.80684" cx="444.07356"/>
  <circle id="svg_66" fill="#f2f2f2" r="6.46689" cy="10.48694" cx="417.07356"/>
  <circle id="svg_67" fill="#f2f2f2" r="6.46689" cy="36.26024" cx="417.07356"/>
  <circle id="svg_68" fill="#f2f2f2" r="6.46689" cy="62.03354" cx="417.07356"/>
  <circle id="svg_69" fill="#f2f2f2" r="6.46689" cy="87.80684" cx="417.07356"/>
  <circle id="svg_70" fill="#f2f2f2" r="6.46689" cy="10.48694" cx="390.07356"/>
  <circle id="svg_71" fill="#f2f2f2" r="6.46689" cy="36.26024" cx="390.07356"/>
  <circle id="svg_72" fill="#f2f2f2" r="6.46689" cy="62.03354" cx="390.07356"/>
  <circle id="svg_73" fill="#f2f2f2" r="6.46689" cy="87.80684" cx="390.07356"/>
  <circle id="svg_74" fill="#f2f2f2" r="6.46689" cy="10.48694" cx="363.07356"/>
  <circle id="svg_75" fill="#f2f2f2" r="6.46689" cy="36.26024" cx="363.07356"/>
  <circle id="svg_76" fill="#f2f2f2" r="6.46689" cy="62.03354" cx="363.07356"/>
  <circle id="svg_77" fill="#f2f2f2" r="6.46689" cy="87.80684" cx="363.07356"/>
  <path id="svg_78" fill="#ffb8b8" d="m389.12715,239.91906a11.00279,11.00279 0 0 1 7.76758,-14.46387a10.58985,10.58985 0 0 1 1.45117,-0.23633l24.30274,-42.59863l-6.13672,-10.54248l15.27539,-11.78467l11.687,16.23194a11.14851,11.14851 0 0 1 -0.26025,13.30859l-33.36474,42.7139a10.50735,10.50735 0 0 1 0.31055,1.03467a11.00313,11.00313 0 0 1 -9.35986,13.48971a10.706,10.706 0 0 1 -1.34668,0.08447a11.036,11.036 0 0 1 -10.32618,-7.2373z"/>
  <polygon id="svg_79" fill="#ffb8b8" points="341.71234130859375,449.5546569824219 329.45233154296875,449.55364990234375 323.620361328125,402.2656555175781 341.71435546875,402.26666259765625 341.71234130859375,449.5546569824219 "/>
  <path id="svg_80" fill="#2f2e41" d="m320.6955,446.05061l23.64382,0a0,0 0 0 1 0,0l0,14.88687a0,0 0 0 1 0,0l-38.53068,0a0,0 0 0 1 0,0l0,0a14.88686,14.88686 0 0 1 14.88686,-14.88687z"/>
  <polygon id="svg_81" fill="#ffb8b8" points="442.71234130859375,449.5546569824219 430.45233154296875,449.55364990234375 424.620361328125,402.2656555175781 442.71435546875,402.26666259765625 442.71234130859375,449.5546569824219 "/>
  <path id="svg_82" fill="#2f2e41" d="m421.6955,446.05061l23.64382,0a0,0 0 0 1 0,0l0,14.88687a0,0 0 0 1 0,0l-38.53068,0a0,0 0 0 1 0,0l0,0a14.88686,14.88686 0 0 1 14.88686,-14.88687z"/>
  <path id="svg_83" fill="#b514ac" d="m435.18772,162.59577l-27.52466,10.45937l-6.72,-18.66664a11.16824,11.16824 0 0 1 5.002,-13.49951l0,0a11.16822,11.16822 0 0 1 14.26248,2.78445l14.98018,18.92233z"/>
  <path id="svg_84" fill="#2f2e41" d="m342.77071,411.255l-23.08447,-5.26514a4.98641,4.98641 0 0 1 -3.812,-5.61914c9.2627,-58.70947 18.17432,-93.09082 41.14014,-136.75244c0.3208,-0.814 3.90674,-17.33789 6.24707,-28.28516a4.97165,4.97165 0 0 1 4.21387,-5.02392l43.04443,-6.62452a5.57031,5.57031 0 0 1 2.02149,-0.30419l0.43017,0.08154l-0.00537,0.42334c-0.00537,0.4375 -0.44092,0.50439 -0.60449,0.52978l-0.57227,0.08789a6.68453,6.68453 0 0 1 1.77491,1.20655c18.85986,22.68365 28.667,97.03973 41.123,179.18457a4.48423,4.48423 0 0 1 -1.30371,3.64746a4.93337,4.93337 0 0 1 -3.5376,1.60058l-27.50146,0.67041a4.98232,4.98232 0 0 1 -5.03516,-4.21826l-18.5239,-107.04884a3.97443,3.97443 0 0 0 -7.49463,-1.15576c-14.94434,30.43457 -28.88086,56.75489 -42.60645,109.26612a4.95254,4.95254 0 0 1 -4.79248,3.72607a5.03,5.03 0 0 1 -1.12109,-0.12694z"/>
  <path id="svg_85" fill="#b514ac" d="m365.17794,236.55578a4.99864,4.99864 0 0 1 -2.0835,-3.54883c-3.52539,-32.90967 -1.06982,-58.66406 7.50586,-78.73486a24.99167,24.99167 0 0 1 16.56689,-14.17969l22.24951,-1.12305l0.11524,0.05567a26.00516,26.00516 0 0 1 14.21924,27.58838c-7.15625,18.86328 -13.14844,38.50293 -8.57862,54.34619a5.122,5.122 0 0 1 -0.48388,3.9834a4.8841,4.8841 0 0 1 -3.11573,2.30908l-42.37841,10.08105a4.96422,4.96422 0 0 1 -4.0166,-0.77734z"/>
  <path id="svg_86" fill="#ffb8b8" d="m355.6003,189.32824l-42.67432,-33.666a10.51634,10.51634 0 0 1 -1.03613,0.30567a11.02707,11.02707 0 0 1 -8.81784,-1.6914a10.91273,10.91273 0 0 1 -4.62647,-7.7334a11.02294,11.02294 0 0 1 7.209,-11.63818a11.00362,11.00362 0 0 1 14.42627,7.8374a10.57293,10.57293 0 0 1 0.229,1.45215l42.48145,24.50732l10.57177,-6.08642l11.71094,15.332l-16.41406,11.69922a10.942,10.942 0 0 1 -13.05957,-0.31836l-0.00004,0z"/>
  <path id="svg_87" fill="#b514ac" d="m390.28123,182.72206l-24.34868,-16.55739l11.44288,-16.20685a11.16823,11.16823 0 0 1 13.92862,-3.64l0,0a11.16823,11.16823 0 0 1 5.89441,13.2826l-6.91723,23.12164z"/>
  <circle id="svg_88" fill="#ffb8b8" r="24.56103" cy="106.09806" cx="401.99133"/>
  <path id="svg_89" fill="#2f2e41" d="m392.98648,102.43989c-6.31272,4.32051 -14.60145,8.76174 -21.04891,4.16075c-4.23352,-3.02109 -5.56737,-8.61545 -3.8506,-13.52487c3.08726,-8.82856 11.56943,-12.71531 19.68052,-15.69458c10.54441,-3.87305 22.02572,-6.95424 32.91112,-4.18055s20.5056,13.31292 18.54058,24.37293c-1.58023,8.89423 -9.97,16.29492 -8.779,25.24958c1.19867,9.01215 11.33379,13.75589 20.28149,15.36658s18.96038,2.12822 25.39074,8.5552c8.2031,8.1988 6.15464,22.85325 -1.56414,31.50955s-19.36683,12.58011 -30.6538,15.24757c-14.95454,3.53422 -31.12906,5.3916 -45.33209,-0.47378s-25.25566,-21.65434 -21.14126,-36.45976c1.73791,-6.2538 5.83191,-11.5391 9.78854,-16.68452s7.9631,-10.526 9.47237,-16.83887c1.25773,-5.26073 0.32683,-11.36869 -3.16181,-15.31484a4.437,4.437 0 0 1 -0.5944,-5.18643l0.06065,-0.10396z"/>
  <path id="svg_46" fill="#3f3d56" d="m459.30036,300.74955l-406,0a6.5,6.5 0 1 0 0,13l11.5,0l0,141.5a6.5,6.5 0 0 0 13,0l0,-129.00995l72.8711,132.07788a6.5,6.5 0 0 0 11.2583,-6.5l-76.17578,-138.06793l348.04638,0l0,0.08417l-76.1289,137.98376a6.49977,6.49977 0 1 0 11.25781,6.5l64.87109,-117.57813l0,114.5102a6.5,6.5 0 0 0 13,0l0,-138.07263l1.89112,-3.42737l10.60888,0a6.5,6.5 0 0 0 0,-13z"/>
 </g>
</svg>