<?xml version="1.0" encoding="utf-8"?>
<!-- Generator: Adobe Illustrator 16.0.0, SVG Export Plug-In . SVG Version: 6.00 Build 0)  -->
<!DOCTYPE svg PUBLIC "-//W3C//DTD SVG 1.1//EN" "http://www.w3.org/Graphics/SVG/1.1/DTD/svg11.dtd">
<svg version="1.1" id="Layer_1" xmlns="http://www.w3.org/2000/svg" xmlns:xlink="http://www.w3.org/1999/xlink" x="0px" y="0px"
	 width="409.828px" height="213.723px" viewBox="0 -50.611 409.828 213.723" enable-background="new 0 -50.611 409.828 213.723"
	 xml:space="preserve">
<g>
	<title>background</title>
	<rect id="canvas_background" x="-1" y="-1" fill="none" width="411.828" height="165.111"/>
</g>
<g>
	<title>Layer 1</title>
	<circle id="svg_1" fill="#F2F2F2" cx="210.691" cy="12.467" r="6.467"/>
	<circle id="svg_2" fill="#F2F2F2" cx="210.691" cy="38.24" r="6.467"/>
	<circle id="svg_3" fill="#F2F2F2" cx="237.691" cy="12.467" r="6.467"/>
	<circle id="svg_4" fill="#F2F2F2" cx="237.691" cy="38.24" r="6.467"/>
	<circle id="svg_5" fill="#F2F2F2" cx="264.691" cy="12.467" r="6.467"/>
	<circle id="svg_6" fill="#F2F2F2" cx="264.691" cy="38.24" r="6.467"/>
	<circle id="svg_7" fill="#F2F2F2" cx="264.691" cy="64.014" r="6.467"/>
	<circle id="svg_8" fill="#F2F2F2" cx="264.691" cy="89.787" r="6.467"/>
	<circle id="svg_9" fill="#F2F2F2" cx="291.691" cy="12.467" r="6.467"/>
	<circle id="svg_10" fill="#F2F2F2" cx="291.691" cy="38.24" r="6.467"/>
	<circle id="svg_11" fill="#F2F2F2" cx="291.691" cy="64.014" r="6.467"/>
	<circle id="svg_12" fill="#F2F2F2" cx="291.691" cy="89.787" r="6.467"/>
	<circle id="svg_13" fill="#F2F2F2" cx="318.691" cy="12.467" r="6.467"/>
	<circle id="svg_14" fill="#F2F2F2" cx="318.691" cy="38.24" r="6.467"/>
	<circle id="svg_15" fill="#F2F2F2" cx="345.691" cy="12.467" r="6.467"/>
	<circle id="svg_16" fill="#F2F2F2" cx="345.691" cy="38.24" r="6.467"/>
	<path id="svg_57" fill="#3F3D56" d="M94.522,159.064h-82c-4.968-0.006-8.994-4.031-9-9v-89c0.006-4.968,4.032-8.994,9-9h82
		c4.968,0.006,8.995,4.032,9,9v89C103.517,155.032,99.49,159.058,94.522,159.064z M12.522,54.064c-3.864,0.005-6.996,3.136-7,7v89
		c0.004,3.864,3.136,6.996,7,7h82c3.864-0.004,6.996-3.136,7-7v-89c-0.004-3.864-3.136-6.995-7-7H12.522z"/>
	<path id="svg_58" fill="#3F3D56" d="M244.522,159.064h-82c-4.968-0.006-8.994-4.031-9-9v-89c0.006-4.968,4.032-8.994,9-9h82
		c4.968,0.006,8.995,4.032,9,9v89C253.517,155.032,249.49,159.058,244.522,159.064z M162.522,54.064c-3.864,0.005-6.996,3.136-7,7
		v89c0.004,3.864,3.136,6.996,7,7h82c3.864-0.004,6.995-3.136,7-7v-89c-0.005-3.864-3.136-6.995-7-7H162.522z"/>
	<path id="svg_59" fill="#B514AC" d="M29.037,89.064h-8c-2.484-0.003-4.497-2.016-4.5-4.5v-8c0.003-2.484,2.016-4.497,4.5-4.5h8
		c2.484,0.003,4.497,2.016,4.5,4.5v8C33.534,87.048,31.521,89.061,29.037,89.064z"/>
	<path id="svg_60" fill="#CCCCCC" d="M29.037,114.064h-8c-2.484-0.003-4.497-2.016-4.5-4.5v-8c0.003-2.484,2.016-4.497,4.5-4.5h8
		c2.484,0.003,4.497,2.016,4.5,4.5v8C33.534,112.048,31.521,114.061,29.037,114.064z"/>
	<path id="svg_61" fill="#B514AC" d="M87.507,84.2H50.158c-1.656-0.001-2.998-1.344-3-3v-1.273c0.002-1.656,1.344-2.998,3-3h37.349
		c1.656,0.002,2.999,1.344,3,3V81.2C90.505,82.857,89.163,84.199,87.507,84.2z"/>
	<path id="svg_62" fill="#CCCCCC" d="M179.727,87.495h-8c-2.484-0.003-4.497-2.016-4.5-4.5v-8c0.003-2.484,2.016-4.497,4.5-4.5h8
		c2.484,0.003,4.498,2.016,4.5,4.5v8C184.224,85.48,182.211,87.492,179.727,87.495z"/>
	<path id="svg_63" fill="#CCCCCC" d="M238.197,82.632h-37.35c-1.656-0.002-2.998-1.344-3-3v-1.273c0.002-1.656,1.344-2.998,3-3
		h37.35c1.656,0.002,2.998,1.344,3,3v1.273C241.195,81.288,239.853,82.63,238.197,82.632z"/>
	<path id="svg_64" fill="#B514AC" d="M238.197,106.632h-69.35c-1.656-0.002-2.998-1.344-3-3v-1.273c0.002-1.656,1.344-2.998,3-3
		h69.35c1.656,0.002,2.998,1.344,3,3v1.273C241.195,105.288,239.853,106.63,238.197,106.632L238.197,106.632z"/>
	<path id="svg_65" fill="#CCCCCC" d="M238.197,123.632h-69.35c-1.656-0.002-2.998-1.344-3-3v-1.273c0.002-1.656,1.344-2.998,3-3
		h69.35c1.656,0.002,2.998,1.344,3,3v1.273C241.195,122.288,239.853,123.63,238.197,123.632L238.197,123.632z"/>
	<path id="svg_66" fill="#CCCCCC" d="M238.197,140.632h-69.35c-1.656-0.002-2.998-1.344-3-3v-1.273c0.002-1.656,1.344-2.998,3-3
		h69.35c1.656,0.002,2.998,1.344,3,3v1.273C241.195,139.288,239.853,140.63,238.197,140.632L238.197,140.632z"/>
	<path id="svg_67" fill="#3F3D56" d="M394.523,159.064h-82c-4.969-0.006-8.995-4.031-9.001-9v-89c0.006-4.968,4.032-8.994,9.001-9
		h82c4.967,0.006,8.994,4.032,9,9v89C403.517,155.032,399.49,159.058,394.523,159.064z M312.523,54.064
		c-3.865,0.005-6.996,3.136-7.001,7v89c0.005,3.864,3.136,6.996,7.001,7h82c3.863-0.004,6.994-3.136,7-7v-89
		c-0.006-3.864-3.137-6.995-7-7H312.523z"/>
	<path id="svg_68" fill="#CCCCCC" d="M388.197,82.632h-37.35c-1.656-0.002-2.998-1.344-3-3v-1.273c0.002-1.656,1.344-2.998,3-3
		h37.35c1.656,0.002,2.998,1.344,3,3v1.273C391.195,81.288,389.853,82.63,388.197,82.632z"/>
	<path id="svg_69" fill="#CCCCCC" d="M388.197,106.632h-69.35c-1.656-0.002-2.998-1.344-3-3v-1.273c0.002-1.656,1.344-2.998,3-3
		h69.35c1.656,0.002,2.998,1.344,3,3v1.273C391.195,105.288,389.853,106.63,388.197,106.632z"/>
	<path id="svg_70" fill="#CCCCCC" d="M388.197,123.632h-69.35c-1.656-0.002-2.998-1.344-3-3v-1.273c0.002-1.656,1.344-2.998,3-3
		h69.35c1.656,0.002,2.998,1.344,3,3v1.273C391.195,122.288,389.853,123.63,388.197,123.632z"/>
	<path id="svg_71" fill="#CCCCCC" d="M388.197,140.632h-69.35c-1.656-0.002-2.998-1.344-3-3v-1.273c0.002-1.656,1.344-2.998,3-3
		h69.35c1.656,0.002,2.998,1.344,3,3v1.273C391.195,139.288,389.853,140.63,388.197,140.632z"/>
	<path id="svg_72" fill="#CCCCCC" d="M87.507,109.2H50.158c-1.656-0.001-2.998-1.344-3-3v-1.273c0.002-1.656,1.344-2.998,3-3h37.349
		c1.656,0.002,2.999,1.344,3,3v1.273C90.505,107.857,89.163,109.199,87.507,109.2z"/>
	<path id="svg_73" fill="#CCCCCC" d="M29.037,139.064h-8c-2.484-0.003-4.497-2.016-4.5-4.5v-8c0.003-2.484,2.016-4.497,4.5-4.5h8
		c2.484,0.003,4.497,2.016,4.5,4.5v8C33.534,137.048,31.521,139.061,29.037,139.064z"/>
	<path id="svg_74" fill="#CCCCCC" d="M87.507,134.2H50.158c-1.656-0.001-2.998-1.344-3-3v-1.273c0.002-1.656,1.344-2.998,3-3h37.349
		c1.656,0.002,2.999,1.344,3,3v1.273C90.505,132.857,89.163,134.199,87.507,134.2z"/>
	<path id="svg_75" fill="#B514AC" d="M334.519,78.064c0-0.022,0.004-0.045,0.004-0.068c0-4.971-4.029-9-9-9l0,0v9.068H334.519z"/>
	<path id="svg_76" fill="#CCCCCC" d="M324.523,79.064v-9.068c-4.971-0.002-9.002,4.026-9.004,8.997s4.025,9.001,8.996,9.003
		c4.945,0.002,8.967-3.986,9.004-8.932H324.523z"/>
</g>
<circle id="svg_1_1_" fill="#F2F2F2" cx="211.381" cy="-13.199" r="6.467"/>
<circle id="svg_3_1_" fill="#F2F2F2" cx="238.381" cy="-13.199" r="6.467"/>
<circle id="svg_5_1_" fill="#F2F2F2" cx="265.381" cy="-13.199" r="6.467"/>
<circle id="svg_9_1_" fill="#F2F2F2" cx="292.381" cy="-13.199" r="6.467"/>
<circle id="svg_13_1_" fill="#F2F2F2" cx="319.381" cy="-13.199" r="6.467"/>
<circle id="svg_15_1_" fill="#F2F2F2" cx="346.381" cy="-13.199" r="6.467"/>
<circle id="svg_1_2_" fill="#F2F2F2" cx="211.38" cy="-39.532" r="6.467"/>
<circle id="svg_3_2_" fill="#F2F2F2" cx="238.38" cy="-39.532" r="6.467"/>
<circle id="svg_5_2_" fill="#F2F2F2" cx="265.38" cy="-39.532" r="6.467"/>
<circle id="svg_9_2_" fill="#F2F2F2" cx="292.38" cy="-39.532" r="6.467"/>
<circle id="svg_13_2_" fill="#F2F2F2" cx="319.38" cy="-39.532" r="6.467"/>
<circle id="svg_15_2_" fill="#F2F2F2" cx="346.38" cy="-39.532" r="6.467"/>
</svg>
