<svg width="542.67627" height="535.00958" xmlns="http://www.w3.org/2000/svg">

 <g>
  <title>background</title>
  <rect fill="none" id="canvas_background" height="537.00958" width="544.67627" y="-1" x="-1"/>
 </g>
 <g>
  <title>Layer 1</title>
  <path stroke="null" id="svg_2" fill="#3f3d56" d="m518.15055,5.3319l-495.95652,0a15.53874,21.023 0 0 0 -15.52174,21l0,354a15.53874,21.023 0 0 0 15.52174,21l495.95652,0a15.53874,21.023 0 0 0 15.52174,-21l0,-354a15.53874,21.023 0 0 0 -15.52174,-21zm14.04348,375a14.05621,19.01722 0 0 1 -14.04348,19l-495.95652,0a14.05621,19.01722 0 0 1 -14.04348,-19l0,-354a14.05621,19.01722 0 0 1 14.04348,-19l495.95652,0a14.05621,19.01722 0 0 1 14.04348,19l0,354z"/>
  <path stroke="null" id="svg_3" fill="#3f3d56" d="m518.85185,61.70152l-496.35913,0a0.82043,0.5 0 0 1 0,-1l496.35913,0a0.82043,0.5 0 0 1 0,1z"/>
  <path id="svg_4" fill="#3f3d56" d="m193.67229,358.3319a1,1 0 0 1 -1,-1l0,-329a1,1 0 1 1 2,0l0,329a1.00005,1.00005 0 0 1 -1,1z"/>
  <path id="svg_5" fill="#3f3d56" d="m344.67229,358.3319a1,1 0 0 1 -1,-1l0,-329a1,1 0 1 1 2,0l0,329a1.00005,1.00005 0 0 1 -1,1z"/>
  <path id="svg_7" fill="#b514ac" d="m96.58794,165.9193l-36.54,0a4.505,4.505 0 0 1 -4.5,-4.5l0,-43.11961a4.505,4.505 0 0 1 4.5,-4.5l36.54,0a4.505,4.505 0 0 1 4.5,4.5l0,43.11963a4.505,4.505 0 0 1 -4.5,4.49998z"/>
  <path id="svg_8" fill="#b514ac" d="m247.59416,288.9193l-36.54,0a4.505,4.505 0 0 1 -4.5,-4.5l0,-43.11961a4.505,4.505 0 0 1 4.5,-4.5l36.54,0a4.505,4.505 0 0 1 4.5,4.5l0,43.11963a4.505,4.505 0 0 1 -4.5,4.49998z"/>
  <path id="svg_9" fill="#b514ac" d="m266.58806,191.9193l-36.54,0a4.50508,4.50508 0 0 1 -4.5,-4.5l0,-43.11961a4.50508,4.50508 0 0 1 4.5,-4.5l36.54,0a4.50508,4.50508 0 0 1 4.5,4.5l0,43.11963a4.50508,4.50508 0 0 1 -4.5,4.49998z"/>
  <path id="svg_10" fill="#b514ac" d="m419.58806,144.9193l-36.54,0a4.50508,4.50508 0 0 1 -4.5,-4.5l0,-43.11961a4.50508,4.50508 0 0 1 4.5,-4.5l36.54,0a4.50508,4.50508 0 0 1 4.5,4.5l0,43.11963a4.50508,4.50508 0 0 1 -4.5,4.49998z"/>
  <path id="svg_14" fill="#ff6584" d="m472.58806,217.9193l-36.54,0a4.50508,4.50508 0 0 1 -4.5,-4.5l0,-43.11961a4.50508,4.50508 0 0 1 4.5,-4.5l36.54,0a4.50508,4.50508 0 0 1 4.5,4.5l0,43.11963a4.50508,4.50508 0 0 1 -4.5,4.49998z"/>
  <path id="svg_15" fill="#e6e6e6" d="m401.58806,233.9193l-36.54,0a4.50508,4.50508 0 0 1 -4.5,-4.5l0,-43.11961a4.50508,4.50508 0 0 1 4.5,-4.5l36.54,0a4.50508,4.50508 0 0 1 4.5,4.5l0,43.11963a4.50508,4.50508 0 0 1 -4.5,4.49998z"/>
  <path id="svg_16" fill="#e6e6e6" d="m308.59183,300.91923l-36.54,0a4.50508,4.50508 0 0 1 -4.5,-4.5l0,-43.11961a4.50508,4.50508 0 0 1 4.5,-4.5l36.54,0a4.50508,4.50508 0 0 1 4.5,4.5l0,43.11963a4.50508,4.50508 0 0 1 -4.5,4.49998z"/>
  <path id="svg_17" fill="#ff6584" d="m63.58794,244.9193l-36.54,0a4.505,4.505 0 0 1 -4.5,-4.5l0,-43.11961a4.505,4.505 0 0 1 4.5,-4.5l36.54,0a4.505,4.505 0 0 1 4.5,4.5l0,43.11963a4.505,4.505 0 0 1 -4.5,4.49998z"/>
  <path id="svg_18" fill="#e6e6e6" d="m166.58794,165.9193l-36.54,0a4.505,4.505 0 0 1 -4.5,-4.5l0,-43.11961a4.505,4.505 0 0 1 4.5,-4.5l36.54,0a4.505,4.505 0 0 1 4.5,4.5l0,43.11963a4.505,4.505 0 0 1 -4.5,4.49998z"/>
  <path id="svg_19" fill="#ccc" d="m136.67229,46.3319l-57,0a4,4 0 0 1 0,-8l57,0a4,4 0 0 1 0,8z"/>
  <path id="svg_20" fill="#ccc" d="m297.67229,46.3319l-57,0a4,4 0 0 1 0,-8l57,0a4,4 0 0 1 0,8z"/>
  <path id="svg_21" fill="#ccc" d="m448.67229,46.3319l-57,0a4,4 0 0 1 0,-8l57,0a4,4 0 0 1 0,8z"/>
  <path id="svg_23" fill="#ffb8b8" d="m108.01144,339.22325a10.05577,10.05577 0 0 1 -8.70007,-12.73046l-25.63286,-23.8611l13.55277,-3.43814l25.20573,20.44382a10.11027,10.11027 0 0 1 -4.42557,19.58585l0,0.00003z"/>
  <polygon id="svg_24" fill="#ffb8b8" points="143.40623474121094,515.5848846435547 155.66624450683594,515.5848846435547 161.4982452392578,468.2969207763672 143.4042205810547,468.2969207763672 143.40623474121094,515.5848846435547 "/>
  <path id="svg_25" fill="#2f2e41" transform="rotate(179.99737548828125 425.9843139648438,628.8355102539062) " d="m674.70393,728.08598l38.53073,0a0,0 0 0 1 0,0l0,14.88687a0,0 0 0 1 0,0l-23.64388,0a14.88686,14.88686 0 0 1 -14.88686,-14.88686l0,0a0,0 0 0 1 0.00001,-0.00001z"/>
  <polygon id="svg_26" fill="#ffb8b8" points="59.34724426269531,506.73289489746094 71.19523620605469,509.8868865966797 88.99623107910156,465.69090270996094 71.51124572753906,461.03688049316406 59.34724426269531,506.73289489746094 "/>
  <path id="svg_27" fill="#2f2e41" d="m91.11521,526.97133l-37.23417,-9.91087a0,0 0 0 1 0,0l3.8292,-14.38593a0,0 0 0 1 0,0l22.84825,6.08168a-14.38592,-14.38592 0 0 1 10.55672,18.21512l0,0a0,0 0 0 1 0,0.00001z"/>
  <path id="svg_28" fill="#2f2e41" d="m158.96318,506.63169l-18.70728,0a4.72981,4.72981 0 0 1 -4.72607,-4.293l-11.35646,-117.9316a3.74767,3.74767 0 0 0 -7.321,-0.71484l-32.97342,110.19922a4.74216,4.74216 0 0 1 -5.7,3.24609l-17.40308,-4.35156a4.74747,4.74747 0 0 1 -3.44727,-5.78711c0.28418,-1.11035 28.41065,-111.02832 28.65625,-112.1582c6.37281,-46.96778 13.99707,-59.55371 18.093,-66.31445c0.33911,-0.55958 0.65064,-1.07422 0.93115,-1.56055c0.35108,-0.6084 2.51245,-6.64453 3.88355,-10.56445a4.79,4.79 0 0 1 2.43506,-2.97754c17.21069,-8.80176 37.34741,-2.709 43.10913,-0.63184a4.6821,4.6821 0 0 1 2.33813,1.81543c17.28467,26.07129 8.80225,177.49121 6.92627,207.581a4.75127,4.75127 0 0 1 -4.73796,4.4434z"/>
  <circle id="svg_29" fill="#ffb8b8" r="24.56103" cy="183.35612" cx="110.68639"/>
  <path id="svg_30" fill="#ccc" d="m108.08402,301.16979l-0.17651,-0.1709c-0.33105,-0.32031 -33.05566,-32.37988 -28.82056,-62.02441c1.81128,-12.67969 12.07032,-20.78125 29.66773,-23.43067a27.13473,27.13473 0 0 1 29.99976,19.1211l17.3999,59.48437l-48.07032,7.02051z"/>
  <path id="svg_31" fill="#ccc" d="m91.335,323.97252l-23.31836,-23.17089a13.13671,13.13671 0 0 1 -3.47973,-12.39161l11.28857,-45.91894a10.35411,10.35411 0 0 1 13.17989,-7.40039a10.41072,10.41072 0 0 1 6.80908,12.79394l-11.88448,40.39649l19.21826,20.63672l-11.81323,15.05468z"/>
  <path id="svg_32" fill="#ffb8b8" d="m216.40656,244.89432a10.05577,10.05577 0 0 1 -14.88374,4.02868l-31.12945,16.13447l1.37589,-13.70578l27.59693,-17.07886a10.11028,10.11028 0 0 1 17.04041,10.62149l-0.00004,0z"/>
  <path id="svg_33" fill="#ccc" d="m198.12337,255.09651l-30.34625,13.11355a12.80885,12.80885 0 0 1 -12.477,-1.33846l-38.58893,-27.64906a10.355,10.355 0 0 1 -1.97354,-14.98585a10.41025,10.41025 0 0 1 14.40861,-1.568l33.08845,26.042l26.30022,-10.17517l9.58844,16.56099z"/>
  <path id="svg_34" fill="#2f2e41" d="m114.75815,191.22643c3.03,-3.79642 8.69082,-4.00051 12.85285,-6.50478c5.45181,-3.28033 7.70574,-10.61077 5.94888,-16.726s-6.93808,-10.881 -12.8784,-13.16029s-12.5494,-2.30748 -18.81589,-1.20568c-9.33021,1.64048 -18.51612,5.99512 -24.20655,13.56895s-7.13858,18.66583 -1.98149,26.61243c2.37026,3.65236 6.02921,6.66714 6.97549,10.91712c1.2423,5.57954 -2.6714,10.96083 -6.86421,14.846c-4.77673,4.42628 -10.257,8.1334 -14.44192,13.12294s-6.97564,11.80621 -5.066,18.03215c1.6,5.21635 6.25591,9.05948 11.36143,10.98408s10.66607,2.2027 16.12124,2.30939c5.29718,0.10361 10.92363,-0.02522 15.386,-2.88141c4.77715,-3.05764 7.32781,-8.8583 7.51626,-14.52705s-1.70587,-11.22252 -4.24464,-16.2945c-1.51323,-3.02314 -3.27267,-5.95256 -4.27818,-9.18027s-1.1797,-6.89016 0.43058,-9.86274c1.69267,-3.12465 5.1171,-5.009 8.6041,-5.69419c0.18117,-0.0356 0.37286,-0.06739 0.57335,-0.0957a7.39847,7.39847 0 0 0 6.33328,-8.62766c-0.39726,-2.21434 -0.36296,-4.33384 0.67382,-5.63279z"/>
  <polygon id="svg_35" fill="#a0616a" points="421.2299041748047,516.6318817138672 408.9698944091797,516.6318817138672 403.13792419433594,469.3439178466797 421.23191833496094,469.3448944091797 421.2299041748047,516.6318817138672 "/>
  <path id="svg_36" fill="#2f2e41" d="m400.21292,513.12873l23.64386,0a0,0 0 0 1 0,0l0,14.88687a0,0 0 0 1 0,0l-38.53077,0a0,0 0 0 1 0,0l0,0a14.88687,14.88687 0 0 1 14.88691,-14.88687z"/>
  <polygon id="svg_37" fill="#a0616a" points="510.18492126464844,502.7449188232422 499.03392028808594,507.83787536621094 474.0798797607422,467.24888610839844 490.53892517089844,459.7308807373047 510.18492126464844,502.7449188232422 "/>
  <path id="svg_38" fill="#2f2e41" transform="rotate(-24.54854965209961 -484.52685546875006,165.0203247070312) " d="m258.94345,881.98199l23.64388,0a0,0 0 0 1 0,0l0,14.88687a0,0 0 0 1 0,0l-38.53073,0a0,0 0 0 1 0,0l0,0a14.88685,14.88685 0 0 1 14.88685,-14.88687z"/>
  <path id="svg_39" fill="#a0616a" d="m474.48244,357.18889a10.05579,10.05579 0 0 0 0.80112,-15.39851l14.4116,-32.69992l-18.30864,3.10281l-10.87858,30.57671a10.11028,10.11028 0 0 0 13.9745,14.41891z"/>
  <path id="svg_40" fill="#2f2e41" d="m420.44846,504.16327l-11.71192,0a4.51686,4.51686 0 0 1 -4.48828,-4.17383l-6.387,-170.5586a4.49977,4.49977 0 0 1 4.92529,-4.80468l67.73487,7.19336a4.5013,4.5013 0 0 1 4.06225,4.39355l1.41943,75.23535a3.49205,3.49205 0 0 0 0.23389,1.19336l27.78516,72.05274a4.49892,4.49892 0 0 1 -2.64307,5.84082l-11.86841,4.373a4.50108,4.50108 0 0 1 -5.55737,-2.16406l-34.13257,-66.36914a4.475,4.475 0 0 1 -0.4043,-1.14258l-5.83081,-28.09375a3.49992,3.49992 0 0 0 -6.904,0.3125l-11.76222,102.72367a4.499,4.499 0 0 1 -4.47094,3.98829z"/>
  <circle id="svg_41" fill="#a0616a" r="24.56103" cy="171.50971" cx="426.28035"/>
  <path id="svg_42" fill="#b514ac" d="m443.12397,345.02624a87.66432,87.66432 0 0 1 -46.8728,-14.19825l-0.239,-0.165l0.02466,-0.28955l9.395,-109.416a15.4205,15.4205 0 0 1 14.59887,-14.06153c12.176,-0.55957 28.531,0.146 37.28589,6.66651c13.23071,9.85449 19.60767,24.69385 17.49561,40.7124c-4.38013,33.21875 0.58178,78.0293 1.16186,83.0293l0.042,0.36035l-0.32959,0.15137a77.26611,77.26611 0 0 1 -32.5625,7.2104z"/>
  <path id="svg_43" fill="#b514ac" d="m475.86079,337.48961a5.007,5.007 0 0 1 -3.68066,-1.62207l-5.37256,-5.86132a5.02581,5.02581 0 0 1 -1.10913,-4.79493l12.25073,-41.46386l-18.63989,-39.14356a8.8323,8.8323 0 0 1 -0.60376,-5.87939a8.809,8.809 0 0 1 16.31323,-2.084l25.29468,41.042a11.95092,11.95092 0 0 1 0.72,11.19824l-20.60986,45.665a4.98754,4.98754 0 0 1 -3.76636,2.87988a5.05373,5.05373 0 0 1 -0.79642,0.06401z"/>
  <path id="svg_44" fill="#a0616a" d="m302.73871,258.28447a10.05577,10.05577 0 0 0 14.99854,-3.57767l35.438,4.59612l-8.14419,-16.68847l-32.404,-1.806a10.11028,10.11028 0 0 0 -9.88836,17.476l0.00001,0.00002z"/>
  <path id="svg_45" fill="#b514ac" d="m380.85029,267.39879a13.42535,13.42535 0 0 1 -1.84472,-0.12744l-55.751,-7.73242a5.54112,5.54112 0 0 1 -4.25073,-3.11133a5.65746,5.65746 0 0 1 -0.31787,-0.8291l-0.00025,0a5.56408,5.56408 0 0 1 0.575,-4.43164l4.61353,-7.64893a5.58411,5.58411 0 0 1 4.75586,-2.686l0.00757,0l48.59594,0.05566l36.29395,-32.51709a9.86788,9.86788 0 0 1 6.10718,-2.49951a9.83491,9.83491 0 0 1 7.37256,16.81543l-36.21512,40.27827a13.364,13.364 0 0 1 -9.9419,4.4341z"/>
  <path id="svg_46" fill="#2f2e41" d="m429.07256,193.35988c2.2445,-5.19457 4.14379,-12.11253 -0.16123,-15.78514c-2.49712,-2.13029 -6.09385,-2.13469 -9.36546,-2.39972c-9.21732,-0.74668 -18.70553,-4.98771 -23.21077,-13.06356s-1.98923,-20.08442 6.51023,-23.728c5.72923,-2.456 12.29743,-0.78291 18.29443,0.91767l18.0058,5.10593c5.35006,1.51712 10.96737,3.19025 14.819,7.20149c6.14268,6.39729 5.6835,17.21166 0.80459,24.618s-12.22635,15.13079 -20.63767,17.94281l-5.05892,-0.80948z"/>
 </g>
</svg>